<svg width="30" height="30" viewBox="0 0 30 30" fill="none" xmlns="http://www.w3.org/2000/svg">
<path d="M27.7915 12.8868C27.5639 12.6399 27.3305 12.3983 27.0915 12.1624C26.6833 11.7599 26.387 11.5013 26.1768 11.3335C25.7546 10.9993 25.6821 11.0206 25.6406 11.0653C25.5968 11.1119 25.5895 11.1793 25.9304 11.5853L26.7213 12.5075C26.9026 12.7202 27.1193 12.9742 27.3524 13.2593C27.4635 13.3997 27.571 13.549 27.6421 13.7088C27.715 13.8695 27.7421 14.0266 27.7237 14.2288C27.7059 14.4277 27.6397 14.6584 27.5535 14.9079C27.4626 15.1686 27.3534 15.4226 27.2268 15.6679C26.9318 16.2433 26.544 16.7662 26.079 17.2155C25.9493 17.3433 25.8204 17.4568 25.723 17.5006C25.6843 17.5202 25.6413 17.5299 25.5979 17.529C25.1601 17.5237 23.8764 16.4513 22.9535 16.2348C22.7999 16.2019 22.6259 16.1822 22.4359 16.2082C22.2378 16.2352 22.0504 16.3139 21.8924 16.4364C21.5795 16.6859 21.4408 17.003 21.339 17.2906C20.9168 18.5075 21.2224 19.7517 21.5895 20.9795C21.6822 21.2928 21.7824 21.6039 21.8901 21.9124C21.9977 22.2233 22.1088 22.5348 22.2119 22.8497C22.4128 23.4775 22.613 24.1326 22.6473 24.7873C22.6781 25.1166 22.6353 25.4333 22.5588 25.7337C22.4773 26.0339 22.3048 26.2897 22.0924 26.5235C21.8648 26.7408 21.5637 26.9402 21.2346 27.1068C20.8977 27.2655 20.5408 27.4104 20.1586 27.5246C18.6284 27.9948 16.8726 28.1557 14.9917 28.397C13.9188 28.5313 12.761 28.6326 11.5721 28.5144C10.9799 28.4524 10.3826 28.3315 9.80748 28.1228C9.66303 28.0724 9.52414 28.0073 9.38148 27.9493L9.17503 27.8455C9.10525 27.8113 9.03414 27.7766 8.98259 27.7406C8.75348 27.6024 8.55281 27.4068 8.38481 27.1677C8.04681 26.687 7.84348 26.0557 7.71125 25.3973C7.34414 23.5479 7.51214 21.3477 7.38681 19.6884C7.32059 18.8373 6.8097 18.5157 6.27925 18.6962C6.21037 18.7188 6.1557 18.7437 6.12659 18.7555C5.5917 18.9933 4.67903 19.0159 3.72525 18.4946C3.52259 18.3742 3.32237 18.2444 3.15437 18.0835C3.06303 18.0097 2.99303 17.9186 2.91214 17.8364C2.84614 17.7446 2.76814 17.659 2.71637 17.5604C1.56725 15.8433 5.12881 10.3844 7.50303 8.8926C8.31059 8.37927 9.23014 8.07994 10.1208 8.17105C10.5641 8.21282 10.9933 8.34438 11.3919 8.53705C11.7719 8.73771 12.1855 9.01149 12.597 9.22927C13.4221 9.6726 14.2906 10.0402 15.2059 10.1288C15.6608 10.1719 16.1257 10.1337 16.5526 9.99216C16.7677 9.92482 16.9659 9.82327 17.1575 9.7166C17.5141 9.49971 17.7953 9.22593 18.1168 8.99282C18.1901 8.93771 18.2655 8.89105 18.3419 8.84571C18.4164 8.79727 18.4953 8.75794 18.5741 8.71905C19.4526 8.28882 20.5066 8.29905 21.4537 8.56838C22.027 8.73282 22.5359 8.98238 22.9821 9.22216C23.8737 9.71238 24.5177 10.211 24.9566 10.5488C25.393 10.8915 25.6237 11.0835 25.6406 11.0653C25.6548 11.0497 25.455 10.8248 25.0437 10.4457C24.6295 10.0715 24.0061 9.53282 23.1133 8.99327C22.6644 8.72882 22.1555 8.45371 21.5475 8.25682C20.9437 8.06416 20.2484 7.95416 19.5081 8.03816C19.3606 8.05549 19.2117 8.08416 19.0628 8.11949C19.0335 8.04838 18.9521 7.97505 18.7466 7.89238C18.3955 7.75905 17.6866 7.57905 16.2693 7.46216C15.9254 7.4355 15.5806 7.42112 15.2357 7.41905C15.277 7.37794 15.3106 7.33171 15.3055 7.24882C15.3006 7.16082 15.249 7.03327 15.1704 6.80216C15.1015 6.5726 14.9853 6.21994 15.0464 5.71016C15.0777 5.45771 15.1588 5.17505 15.3446 4.90194C15.4401 4.76016 15.5706 4.60838 15.7284 4.43394C15.8839 4.25905 16.0706 4.06305 16.251 3.79994C16.3641 3.63781 16.4546 3.46109 16.5201 3.2746C16.5928 3.06905 16.6293 2.82371 16.6146 2.58571C16.5844 2.10505 16.3701 1.63394 16.0155 1.27394C15.661 0.915713 15.1977 0.69838 14.7377 0.599936C14.2881 0.502733 13.8225 0.507669 13.375 0.61438C12.9439 0.72038 12.5561 0.933269 12.2817 1.21371C12.005 1.49438 11.857 1.81927 11.797 2.0986C11.7357 2.37971 11.7619 2.61482 11.8077 2.76371C11.8555 2.91371 11.9135 2.98149 11.9408 2.97349C12.0086 2.95771 11.9386 2.6326 12.1326 2.20571C12.2413 1.96321 12.4088 1.75165 12.6199 1.59016C12.8515 1.41349 13.1599 1.2886 13.4997 1.24216C14.1748 1.14527 15.0006 1.36771 15.4095 1.8466C15.6128 2.07682 15.7241 2.37527 15.7288 2.62749C15.7355 2.8786 15.6428 3.08616 15.5024 3.29149C15.247 3.66238 14.8653 3.9986 14.603 4.41594C14.3684 4.78383 14.2347 5.20694 14.2153 5.64282C14.1857 6.37616 14.427 6.83571 14.6041 7.10016C14.7228 7.26549 14.8268 7.36238 14.9108 7.41905C14.3599 7.4226 13.773 7.44816 13.2399 7.5026C12.2146 7.60194 11.3986 7.78749 11.4088 7.90994C11.4093 7.91171 11.411 7.91349 11.4117 7.91527C11.027 7.74638 10.6137 7.62349 10.1824 7.57594C9.66125 7.51638 9.12348 7.56571 8.61259 7.70571C8.10036 7.84527 7.61481 8.06994 7.16325 8.3446C4.68014 9.85771 0.567921 15.6677 2.0477 17.963C2.12103 18.1002 2.21925 18.2155 2.30903 18.3386C2.41125 18.4484 2.50637 18.5675 2.61992 18.6633C2.83503 18.8713 3.08081 19.0359 3.33192 19.187C4.53503 19.8602 5.32525 19.7413 6.11748 19.627L6.3377 19.5528C6.50903 19.4906 6.53548 19.4199 6.5577 19.7595C6.56414 19.9219 6.59237 20.0313 6.5977 21.1302C6.59992 21.8713 6.59703 22.6157 6.62614 23.3559C6.6577 24.0966 6.71437 24.8348 6.85459 25.5648C6.99903 26.2906 7.21348 27.0253 7.66059 27.6753C7.8837 27.997 8.17437 28.2897 8.51992 28.4997C8.60792 28.5579 8.68748 28.5966 8.76703 28.6368L9.00703 28.7579C9.17103 28.8268 9.33259 28.9019 9.49792 28.9608C10.1579 29.2035 10.829 29.3395 11.4793 29.4095C12.7837 29.5419 14.0015 29.4322 15.1059 29.2948C16.965 29.0535 18.7646 28.8955 20.4255 28.3842C21.2524 28.1188 22.0566 27.7944 22.7277 27.1533C23.0419 26.8179 23.2966 26.4157 23.4137 25.9844C23.5259 25.5593 23.5688 25.1295 23.5321 24.7333C23.5277 24.531 23.4877 24.3426 23.4657 24.1497C23.4257 23.965 23.3966 23.7759 23.3479 23.5995C23.2599 23.2413 23.1539 22.9008 23.0437 22.5733C22.8215 21.9128 22.5919 21.3219 22.4166 20.7293C22.0988 19.695 21.7904 18.5824 22.1286 17.5584C22.197 17.341 22.3017 17.1608 22.3986 17.0877C22.447 17.0497 22.4908 17.0304 22.5524 17.0204C22.6133 17.0104 22.6924 17.0144 22.7808 17.0322C23.5728 17.2022 24.8275 18.3062 25.6028 18.2973C25.7609 18.2952 25.9165 18.257 26.0577 18.1857C26.317 18.0506 26.4677 17.8857 26.6061 17.7497C27.1186 17.2334 27.5401 16.6343 27.8528 15.9775C27.9861 15.6991 28.0989 15.4113 28.1901 15.1164C28.2737 14.841 28.347 14.5646 28.3621 14.2715C28.3819 13.9826 28.313 13.6713 28.1899 13.4435C28.0706 13.2113 27.9246 13.0375 27.7915 12.8868ZM13.2515 8.14238C14.2581 8.20238 15.4444 8.30149 16.1979 8.3646C17.0601 8.43571 17.6573 8.49171 18.0741 8.5166C18.0046 8.5566 17.9348 8.59682 17.8699 8.64327C17.543 8.86838 17.2426 9.14149 16.9244 9.32483C16.7599 9.40971 16.5919 9.4926 16.4101 9.54438C15.2484 9.89994 13.9241 9.3466 12.8628 8.74882C12.4641 8.52882 12.1041 8.27549 11.6513 8.02482C11.6313 8.01482 11.6101 8.0066 11.5899 7.99682C11.8875 8.0606 12.521 8.09527 13.2515 8.14238Z" fill="white"/>
<path d="M15.0256 17.0227C13.1064 17.0227 11.5449 18.5842 11.5449 20.5034C11.5449 22.4227 13.1064 23.9841 15.0256 23.9841C16.9449 23.9841 18.5063 22.4227 18.5063 20.5034C18.5063 18.5842 16.9449 17.0227 15.0256 17.0227ZM15.0256 23.5746C13.3322 23.5746 11.9544 22.1969 11.9544 20.5034C11.9544 18.81 13.3322 17.4322 15.0256 17.4322C16.7191 17.4322 18.0968 18.81 18.0968 20.5034C18.0968 22.1969 16.7191 23.5746 15.0256 23.5746ZM16.336 15.4667C16.6897 15.4667 16.9775 15.1789 16.9775 14.8251C16.9775 14.4714 16.6897 14.1836 16.336 14.1836C15.9822 14.1836 15.6945 14.4714 15.6945 14.8251C15.6945 15.1789 15.9822 15.4667 16.336 15.4667ZM16.336 14.5931C16.4639 14.5931 16.568 14.6972 16.568 14.8251C16.568 14.9531 16.4639 15.0572 16.336 15.0572C16.208 15.0572 16.1039 14.9531 16.1039 14.8251C16.1039 14.6972 16.208 14.5931 16.336 14.5931ZM18.0832 15.4667C18.4369 15.4667 18.7247 15.1789 18.7247 14.8251C18.7247 14.4714 18.4369 14.1836 18.0832 14.1836C17.7294 14.1836 17.4416 14.4714 17.4416 14.8251C17.4416 15.1789 17.7294 15.4667 18.0832 15.4667ZM18.0832 14.5931C18.2111 14.5931 18.3152 14.6972 18.3152 14.8251C18.3152 14.9531 18.2111 15.0572 18.0832 15.0572C17.9552 15.0572 17.8511 14.9531 17.8511 14.8251C17.8511 14.6972 17.9552 14.5931 18.0832 14.5931ZM11.7497 15.4667H14.5888C14.8222 15.4667 15.012 15.2769 15.012 15.0435V14.6067C15.012 14.3734 14.8222 14.1836 14.5888 14.1836L11.7497 14.1836C11.5164 14.1836 11.3265 14.3734 11.3265 14.6067V15.0435C11.3265 15.2769 11.5164 15.4667 11.7497 15.4667ZM11.736 14.6067C11.736 14.6031 11.7375 14.5996 11.74 14.5971C11.7426 14.5945 11.7461 14.5931 11.7497 14.5931H14.5888C14.5924 14.5931 14.5959 14.5945 14.5985 14.5971C14.601 14.5996 14.6025 14.6031 14.6025 14.6067V15.0435C14.6025 15.0471 14.601 15.0506 14.5985 15.0532C14.5959 15.0557 14.5924 15.0572 14.5888 15.0572H11.7497C11.7461 15.0572 11.7426 15.0557 11.74 15.0532C11.7375 15.0506 11.736 15.0471 11.736 15.0435V14.6067Z" fill="white"/>
<path d="M15.0273 17.9031C13.5897 17.9031 12.4202 19.0726 12.4202 20.5102C12.4202 21.9477 13.5897 23.1173 15.0273 23.1173C16.4648 23.1173 17.6344 21.9477 17.6344 20.5102C17.6344 19.0726 16.4648 17.9031 15.0273 17.9031ZM15.0273 22.7078C13.8155 22.7078 12.8297 21.7219 12.8297 20.5102C12.8297 19.2984 13.8155 18.3126 15.0273 18.3126C16.239 18.3126 17.2249 19.2984 17.2249 20.5102C17.2249 21.7219 16.239 22.7078 15.0273 22.7078Z" fill="white"/>
<path d="M15.0273 18.7766C14.9142 18.7766 14.8225 18.8683 14.8225 18.9814C14.8225 19.0944 14.9142 19.1861 15.0273 19.1861C15.7573 19.1861 16.3513 19.7801 16.3513 20.5101C16.3513 20.6232 16.4429 20.7149 16.556 20.7149C16.6691 20.7149 16.7608 20.6232 16.7608 20.5101C16.7608 19.5543 15.9831 18.7766 15.0273 18.7766Z" fill="white"/>
</svg>
