<svg width="167" height="147" viewBox="0 0 167 147" fill="none" xmlns="http://www.w3.org/2000/svg">
<rect width="167" height="147" rx="10" fill="#ECE8EF" fill-opacity="0.46"/>
<path d="M53.7454 125.728V127.472H46.7374V116.384H48.7534V125.728H53.7454ZM59.5716 121.92C59.5716 122.528 59.6463 123.082 59.7956 123.584C59.945 124.074 60.1583 124.496 60.4356 124.848C60.7236 125.189 61.0703 125.456 61.4756 125.648C61.881 125.84 62.3396 125.936 62.8516 125.936C63.353 125.936 63.8063 125.84 64.2116 125.648C64.617 125.456 64.9583 125.189 65.2356 124.848C65.5236 124.496 65.7423 124.074 65.8916 123.584C66.041 123.082 66.1156 122.528 66.1156 121.92C66.1156 121.312 66.041 120.762 65.8916 120.272C65.7423 119.77 65.5236 119.349 65.2356 119.008C64.9583 118.656 64.617 118.384 64.2116 118.192C63.8063 118 63.353 117.904 62.8516 117.904C62.3396 117.904 61.881 118 61.4756 118.192C61.0703 118.384 60.7236 118.656 60.4356 119.008C60.1583 119.36 59.945 119.781 59.7956 120.272C59.6463 120.762 59.5716 121.312 59.5716 121.92ZM68.2276 121.92C68.2276 122.869 68.0836 123.706 67.7956 124.432C67.5183 125.157 67.1343 125.765 66.6436 126.256C66.1636 126.736 65.5983 127.098 64.9476 127.344C64.297 127.589 63.6036 127.712 62.8676 127.712C62.1316 127.712 61.433 127.589 60.7716 127.344C60.121 127.098 59.5503 126.736 59.0596 126.256C58.5796 125.765 58.1956 125.157 57.9076 124.432C57.6196 123.706 57.4756 122.869 57.4756 121.92C57.4756 120.97 57.6196 120.138 57.9076 119.424C58.1956 118.698 58.585 118.09 59.0756 117.6C59.577 117.109 60.153 116.741 60.8036 116.496C61.4543 116.25 62.1423 116.128 62.8676 116.128C63.593 116.128 64.281 116.25 64.9316 116.496C65.5823 116.741 66.1476 117.109 66.6276 117.6C67.1183 118.09 67.5076 118.698 67.7956 119.424C68.0836 120.138 68.2276 120.97 68.2276 121.92ZM81.1913 127.472C80.8286 126.864 80.4233 126.213 79.9753 125.52C79.5273 124.816 79.0633 124.112 78.5833 123.408C78.1033 122.693 77.6126 122.005 77.1113 121.344C76.6206 120.672 76.1513 120.069 75.7033 119.536V127.472H73.7193V116.384H75.3673C75.7939 116.832 76.2526 117.365 76.7433 117.984C77.2339 118.592 77.7246 119.226 78.2153 119.888C78.7166 120.549 79.1966 121.216 79.6553 121.888C80.1246 122.549 80.5406 123.168 80.9033 123.744V116.384H82.9033V127.472H81.1913ZM90.859 125.808C90.9763 125.818 91.131 125.829 91.323 125.84C91.515 125.84 91.7763 125.84 92.107 125.84C93.4617 125.84 94.4697 125.498 95.131 124.816C95.803 124.122 96.139 123.157 96.139 121.92C96.139 120.661 95.8137 119.696 95.163 119.024C94.5123 118.352 93.5043 118.016 92.139 118.016C91.5417 118.016 91.115 118.032 90.859 118.064V125.808ZM98.251 121.92C98.251 122.88 98.1017 123.717 97.803 124.432C97.5043 125.136 97.0777 125.728 96.523 126.208C95.979 126.677 95.3177 127.029 94.539 127.264C93.771 127.488 92.9177 127.6 91.979 127.6C91.531 127.6 91.0243 127.578 90.459 127.536C89.8937 127.504 89.355 127.429 88.843 127.312V116.544C89.355 116.426 89.899 116.352 90.475 116.32C91.051 116.288 91.563 116.272 92.011 116.272C92.939 116.272 93.787 116.384 94.555 116.608C95.323 116.821 95.979 117.162 96.523 117.632C97.0777 118.09 97.5043 118.677 97.803 119.392C98.1017 120.096 98.251 120.938 98.251 121.92ZM106.788 116.272C108.388 116.272 109.61 116.565 110.452 117.152C111.306 117.738 111.732 118.634 111.732 119.84C111.732 121.344 110.991 122.362 109.508 122.896C109.711 123.141 109.94 123.44 110.196 123.792C110.452 124.144 110.714 124.528 110.98 124.944C111.247 125.349 111.503 125.77 111.748 126.208C111.994 126.634 112.212 127.056 112.404 127.472H110.148C109.946 127.088 109.727 126.704 109.492 126.32C109.258 125.925 109.018 125.546 108.772 125.184C108.538 124.81 108.303 124.464 108.068 124.144C107.834 123.813 107.615 123.52 107.412 123.264C107.263 123.274 107.135 123.28 107.028 123.28C106.922 123.28 106.82 123.28 106.724 123.28H105.748V127.472H103.732V116.544C104.223 116.437 104.746 116.368 105.3 116.336C105.855 116.293 106.351 116.272 106.788 116.272ZM106.932 118.016C106.506 118.016 106.111 118.032 105.748 118.064V121.648H106.628C107.119 121.648 107.551 121.621 107.924 121.568C108.298 121.514 108.607 121.418 108.852 121.28C109.108 121.141 109.3 120.954 109.428 120.72C109.556 120.485 109.62 120.186 109.62 119.824C109.62 119.482 109.556 119.194 109.428 118.96C109.3 118.725 109.114 118.538 108.868 118.4C108.634 118.261 108.351 118.165 108.02 118.112C107.69 118.048 107.327 118.016 106.932 118.016ZM117.247 116.384H119.263V127.472H117.247V116.384Z" fill="black"/>
<g clip-path="url(#clip0_14_38)">
<path d="M113.379 8.05371H18.0406V68.8638H113.379V8.05371Z" fill="#E6E6E6"/>
<path d="M110.653 15.6808H20.7669V65.2662H110.653V15.6808Z" fill="white"/>
<path d="M113.338 8H18V12.0338H113.338V8Z" fill="#E3887B"/>
<path d="M21.01 10.8101C21.4246 10.8101 21.7607 10.4753 21.7607 10.0624C21.7607 9.64945 21.4246 9.3147 21.01 9.3147C20.5953 9.3147 20.2592 9.64945 20.2592 10.0624C20.2592 10.4753 20.5953 10.8101 21.01 10.8101Z" fill="white"/>
<path d="M23.8594 10.8101C24.274 10.8101 24.6101 10.4753 24.6101 10.0624C24.6101 9.64945 24.274 9.3147 23.8594 9.3147C23.4447 9.3147 23.1086 9.64945 23.1086 10.0624C23.1086 10.4753 23.4447 10.8101 23.8594 10.8101Z" fill="white"/>
<path d="M26.7088 10.8101C27.1234 10.8101 27.4595 10.4753 27.4595 10.0624C27.4595 9.64945 27.1234 9.3147 26.7088 9.3147C26.2941 9.3147 25.958 9.64945 25.958 10.0624C25.958 10.4753 26.2941 10.8101 26.7088 10.8101Z" fill="white"/>
<path d="M49.4066 19.7594H31.8262V38.7548H49.4066V19.7594Z" fill="#E6E6E6"/>
<path d="M74.4998 19.7594H56.9195V38.7548H74.4998V19.7594Z" fill="#E6E6E6"/>
<path d="M99.5929 19.7594H82.0126V38.7548H99.5929V19.7594Z" fill="#E6E6E6"/>
<path d="M49.4066 42.193H31.8262V61.1884H49.4066V42.193Z" fill="#E6E6E6"/>
<path d="M74.4998 42.193H56.9195V61.1884H74.4998V42.193Z" fill="#E6E6E6"/>
<path d="M99.5929 42.193H82.0126V61.1884H99.5929V42.193Z" fill="#E6E6E6"/>
<path d="M61.1686 47.075L64.3808 45.8102L64.7543 52.1339C64.7543 52.1339 65.4265 54.0682 65.2025 54.8122C65.2025 54.8122 65.3519 56.077 64.9783 56.1513C64.6048 56.2257 63.5587 56.3746 63.4848 56.3001C63.4109 56.2256 63.4101 56.0024 63.4101 56.0024C63.4101 56.0024 62.663 56.5232 62.5884 57.1183C62.5884 57.1183 59.4509 58.0855 59.3762 57.1927C59.3016 56.2999 60.9449 55.5559 60.9449 55.5559L62.2148 53.6216L61.1686 47.075Z" fill="white"/>
<path d="M67.9667 47.075L71.1784 45.8102L71.552 52.1339C71.552 52.1339 72.2242 54.0682 72.0002 54.8122C72.0002 54.8122 72.1495 56.077 71.776 56.1513C71.4025 56.2257 70.3564 56.3746 70.2825 56.3001C70.2085 56.2256 70.2078 56.0024 70.2078 56.0024C70.2078 56.0024 69.4607 56.5232 69.386 57.1183C69.386 57.1183 66.2486 58.0855 66.1739 57.1927C66.0992 56.2999 67.7426 55.5559 67.7426 55.5559L69.0125 53.6216L67.9667 47.075Z" fill="white"/>
<path d="M68.2805 22.6551C68.2805 22.6551 67.5966 24.5584 68.3891 25.4167L67.7284 27.6778C67.7284 27.6778 70.0757 34.6912 69.4051 35.6708C69.4051 35.6708 66.9013 36.9176 61.8931 35.2255L63.9274 27.366L63.6368 24.0486L64.0392 22.49L64.9334 22.4016C64.9334 22.4016 64.3969 24.4054 65.3806 24.7172C66.3642 25.0289 67.3238 22.4517 67.3238 22.4517L68.2805 22.6551Z" fill="#3F3D56"/>
<path d="M36.6944 34.9415L37.5576 35.2932L41.677 29.9011L42.9717 36.2309L43.8348 36.0746C44.3885 30.6175 44.8404 25.0513 44.286 22.4187L41.0885 22.2819L39.637 26.8931L38.9307 30.0189L36.6944 34.9415Z" fill="white"/>
<path d="M89.0799 22.3755C89.0799 22.3755 87.9019 24.0064 87.9595 24.6645C88.017 25.3227 88.7639 36.0526 88.7639 36.0526L90.5165 36.1385L89.9989 28.4129L90.4299 26.3241L91.4929 36.0526L93.6478 36.1099L91.7229 23.4915L91.3493 22.3756L89.0799 22.3755Z" fill="white"/>
<path d="M95.7375 48.6497C95.4248 48.276 94.8871 48.0739 94.3709 47.9646C94.3857 47.9179 92.8008 47.5917 92.7738 47.6589L92.1763 47.1848L90.3401 48.1343L89.3084 47.4347L88.8291 47.6041C88.8487 47.5199 87.3414 47.7799 87.3414 47.7799C87.0535 47.7903 86.6857 47.8082 86.274 47.8397C84.8324 47.9502 84.7213 51.6688 84.7213 51.6688C85.3846 51.3986 86.0919 51.2511 86.8083 51.2336L87.1979 55.6812C89.2021 55.5101 91.304 55.7092 93.4826 56.1967L94.5043 52.7004L96.8834 51.779C96.8834 51.779 96.4769 49.5332 95.7375 48.6497Z" fill="#3F3D56"/>
<path d="M44.6826 46.5318C44.4249 46.2239 43.982 46.0573 43.5565 45.9674C43.5693 45.9288 42.2628 45.6601 42.2405 45.7155L41.748 45.325L40.2354 46.1073L39.3853 45.531L38.9905 45.6706C39.0066 45.6012 37.7646 45.8154 37.7646 45.8154C37.528 45.8239 37.2243 45.8386 36.8852 45.8647C35.6973 45.9557 35.6059 49.0194 35.6059 49.0194C36.1525 48.7967 36.7352 48.6752 37.3256 48.6608L37.6466 57.6317C39.2979 57.4907 41.0298 57.6549 42.8244 58.0565L43.6661 49.8696L45.6265 49.1104C45.6265 49.1104 45.2917 47.2601 44.6826 46.5318Z" fill="white"/>
<path d="M128.824 48.9196H137.253V44.4278C137.253 43.3147 136.809 42.2471 136.019 41.4599C135.229 40.6728 134.157 40.2306 133.039 40.2306C131.921 40.2306 130.849 40.6728 130.059 41.4599C129.268 42.2471 128.824 43.3147 128.824 44.4278V48.9196Z" fill="#2F2E41"/>
<path d="M125.062 98.8956H123.249L122.386 91.9308H125.062L125.062 98.8956Z" fill="#FFB6B6"/>
<path d="M125.524 98.306H121.954C121.35 98.3061 120.772 98.5448 120.345 98.9697C119.918 99.3946 119.679 99.9709 119.679 100.572V100.645H125.524V98.306Z" fill="#2F2E41"/>
<path d="M146.733 96.486L145.155 97.3736L140.966 91.7315L143.296 90.4215L146.733 96.486Z" fill="#FFB6B6"/>
<path d="M146.845 95.7463L143.736 97.4939C143.21 97.7894 142.824 98.2806 142.663 98.8596C142.501 99.4385 142.577 100.058 142.873 100.581L142.91 100.645L148 97.7833L146.845 95.7463Z" fill="#2F2E41"/>
<path d="M135.147 67.5751L135.287 68.2717C135.287 68.2717 135.706 68.6896 135.497 68.8986C135.287 69.1076 135.357 70.083 135.357 70.083C135.474 71.8614 137.807 81.8553 138.225 83.8071C138.225 83.8071 141.442 85.8971 143.961 90.0073C146.479 94.1175 146.548 95.1625 146.548 95.1625L143.751 96.347L136.756 87.9175C136.756 87.9175 134.798 86.7331 134.098 85.6882C133.399 84.6433 129.061 73.8449 129.061 73.8449L126.612 85.1308C126.612 85.1308 126.752 89.241 126.123 91.8884C125.736 93.559 125.501 95.2612 125.423 96.974L122.135 96.6257C122.135 96.6257 122.345 86.7331 122.695 85.6881C122.695 85.6881 121.226 73.6359 124.164 68.829L126.532 62.5424L128.851 61.6534L135.147 67.5751Z" fill="#2F2E41"/>
<path d="M133.082 41.3287C128.669 41.4038 128.669 47.9423 133.082 48.0167C137.496 47.9415 137.495 41.4031 133.082 41.3287Z" fill="#FFB8B8"/>
<path d="M129.685 44.4992H130.436L130.64 43.9905L130.538 44.4992H134.64L134.507 43.4349L135.505 44.4992H136.499V43.9225C136.5 43.4769 136.412 43.0357 136.241 42.6239C136.07 42.2121 135.819 41.8379 135.503 41.5227C135.187 41.2074 134.812 40.9572 134.399 40.7864C133.985 40.6156 133.542 40.5275 133.095 40.5272C132.648 40.5269 132.205 40.6144 131.791 40.7846C131.378 40.9548 131.002 41.2044 130.685 41.5193C130.369 41.8341 130.118 42.208 129.946 42.6195C129.775 43.031 129.686 43.4721 129.686 43.9177V43.9225L129.685 44.4992Z" fill="#2F2E41"/>
<path d="M128.531 49.9691L136.871 50.0364L135.109 67.8441C135.109 67.8441 125.355 67.3315 125.349 64.3664L126.263 61.7316L128.531 49.9691Z" fill="#3F3D56"/>
<path d="M137.23 69.5656C137.101 69.4092 137.009 69.2267 136.959 69.031C136.91 68.8353 136.904 68.6312 136.942 68.4329C136.98 68.2346 137.061 68.047 137.18 67.8834C137.298 67.7198 137.452 67.5841 137.629 67.4858L137.266 64.3508L139.126 63.6667L139.575 68.1013C139.72 68.4084 139.747 68.7578 139.651 69.0835C139.555 69.4091 139.343 69.6885 139.054 69.8688C138.765 70.049 138.42 70.1177 138.084 70.0619C137.748 70.006 137.444 69.8295 137.23 69.5656Z" fill="#FFB6B6"/>
<path d="M135.774 51.5706L136.872 50.0429C136.872 50.0429 137.623 49.877 138.51 50.9079C139.397 51.9388 139.915 64.8251 139.915 64.8251L136.662 65.5614L134.739 56.4306L135.774 51.5706Z" fill="#3F3D56"/>
<path d="M117.391 65.545L117.633 76.9935L125.075 80.9102L138.628 78.4999L138.96 66.5994L130.369 63.5865L117.391 65.545Z" fill="white"/>
<path d="M125.056 81.0337L117.516 77.0655L117.27 65.4434L130.381 63.4651L130.409 63.4749L139.082 66.5163L138.744 78.5994L125.056 81.0337ZM117.751 76.9212L125.095 80.7863L138.512 78.4002L138.839 66.6823L130.358 63.7079L117.512 65.6462L117.751 76.9212Z" fill="#CACACA"/>
<path d="M124.909 68.649L124.88 68.6375L117.348 65.6548L117.435 65.4349L124.939 68.406L138.944 66.4822L138.977 66.7166L124.909 68.649Z" fill="#CACACA"/>
<path d="M125.043 68.5261L124.805 68.5289L124.956 80.9115L125.194 80.9086L125.043 68.5261Z" fill="#CACACA"/>
<path d="M123.957 68.0564L121.242 66.9601L134.313 64.8857L137.029 65.9819L123.957 68.0564Z" fill="#CACACA"/>
<path d="M117.438 68.866L117.344 69.0834L120.494 70.4337L120.588 70.2163L117.438 68.866Z" fill="#CACACA"/>
<path d="M118.864 72.7716L118.77 72.989L121.92 74.3394L122.014 74.122L118.864 72.7716Z" fill="#E3887B"/>
<path d="M75.9867 81.4502L76.2286 92.8987L83.6704 96.8154L97.2228 94.4052L97.5556 82.5047L88.9643 79.4918L75.9867 81.4502Z" fill="white"/>
<path d="M83.651 96.9391L76.1113 92.9709L75.8656 81.3488L88.9758 79.3705L89.0038 79.3803L97.6768 82.4217L97.339 94.5047L83.651 96.9391ZM76.3459 92.8266L83.6898 96.6917L97.1067 94.3056L97.4344 82.5877L88.9528 79.6133L76.1076 81.5516L76.3459 92.8266Z" fill="#CACACA"/>
<path d="M83.5043 84.5544L83.4752 84.5429L75.9428 81.5602L76.0305 81.3403L83.5339 84.3114L97.5394 82.3876L97.5719 82.622L83.5043 84.5544Z" fill="#CACACA"/>
<path d="M83.638 84.4314L83.4003 84.4343L83.5515 96.8169L83.7892 96.814L83.638 84.4314Z" fill="#CACACA"/>
<path d="M81.8947 83.6922L79.8372 82.8655L92.9085 80.7911L94.9659 81.6179L81.8947 83.6922Z" fill="#CACACA"/>
<path d="M76.0336 84.7714L75.9396 84.9888L79.0888 86.3391L79.1828 86.1217L76.0336 84.7714Z" fill="#CACACA"/>
<path d="M77.4596 88.677L77.3657 88.8944L80.5149 90.2448L80.6088 90.0274L77.4596 88.677Z" fill="#E3887B"/>
<path d="M88.915 83.0199L89.196 96.3098L97.8347 100.856L113.567 98.0586L113.953 84.244L103.98 80.7466L88.915 83.0199Z" fill="#E3887B"/>
<path d="M97.8121 101L89.0597 96.3936L88.7745 82.9022L103.993 80.6057L104.026 80.6171L114.094 84.1477L113.702 98.1741L97.8121 101ZM89.3321 96.2262L97.8571 100.713L113.432 97.943L113.812 84.3404L103.967 80.8876L89.0555 83.1377L89.3321 96.2262Z" fill="#3F3D56"/>
<path d="M97.6418 86.6233L97.6081 86.6099L88.864 83.1476L88.9659 82.8922L97.6761 86.3412L113.934 84.1079L113.972 84.3801L97.6418 86.6233Z" fill="#3F3D56"/>
<path d="M97.797 86.4807L97.5211 86.484L97.6967 100.858L97.9726 100.855L97.797 86.4807Z" fill="#3F3D56"/>
<path d="M95.9132 85.6289L93.3848 84.6629L108.558 82.2549L111.087 83.2208L95.9132 85.6289Z" fill="#3F3D56"/>
<path d="M88.9696 86.8752L88.8604 87.1276L92.5161 88.6951L92.6252 88.4427L88.9696 86.8752Z" fill="#3F3D56"/>
<path d="M90.625 91.409L90.5159 91.6614L94.1716 93.2289L94.2807 92.9766L90.625 91.409Z" fill="white"/>
<path d="M121.611 67.4379C121.794 67.3521 121.957 67.2273 122.086 67.0723C122.216 66.9173 122.31 66.7358 122.362 66.5406C122.414 66.3455 122.422 66.1414 122.386 65.9427C122.35 65.7441 122.271 65.5557 122.154 65.3908L123.843 62.7208L122.464 61.3029L120.132 65.1067C119.867 65.3209 119.69 65.6244 119.635 65.9598C119.58 66.2951 119.65 66.639 119.832 66.9264C120.014 67.2137 120.296 67.4245 120.624 67.5188C120.952 67.6131 121.303 67.5844 121.611 67.4381V67.4379Z" fill="#FFB6B6"/>
<path d="M129.813 50.671L128.603 49.877C128.603 49.877 127.669 50.0855 126.676 51.9879C125.683 53.8904 121.677 62.396 121.677 62.396L123.324 64.0601L127.716 57.3874L129.813 50.671Z" fill="#3F3D56"/>
</g>
<defs>
<clipPath id="clip0_14_38">
<rect width="130" height="93" fill="white" transform="translate(18 8)"/>
</clipPath>
</defs>
</svg>
