<svg width="121" height="140" viewBox="0 0 121 140" fill="none" xmlns="http://www.w3.org/2000/svg">
<g filter="url(#filter0_d_14_2084)">
<rect x="15" y="30" width="71.6279" height="71.6279" rx="35.814" fill="#E6F1F1"/>
</g>
<g clip-path="url(#clip0_14_2084)">
<path d="M37.9208 67.7616L29.9969 63.7996C29.9969 63.7996 37.0478 50.7052 37.7193 49.3621C38.0954 48.61 40.2576 47.3342 42.0909 46.3538C42.2789 46.6828 45.5962 52.3839 50.8138 52.3839C56.0315 52.3839 59.3487 46.6828 59.5367 46.3538C61.37 47.3342 63.5322 48.61 63.9083 49.3621C64.5798 50.7052 71.6307 63.7996 71.6307 63.7996L63.7068 67.7616L65.0163 84.3613C65.0398 84.6506 65.003 84.9417 64.9084 85.216C64.8137 85.4904 64.6632 85.7422 64.4663 85.9555C64.2694 86.1688 64.0305 86.3389 63.7645 86.4552C63.4986 86.5715 63.2114 86.6313 62.9212 86.631H38.7065C37.4776 86.631 36.5106 85.5835 36.6113 84.3613L37.9208 67.7616ZM59.1271 63.3027C59.2547 63.1416 59.3957 62.9871 59.5435 62.8394C59.5435 62.8394 52.2911 63.0072 50.6728 68.2182C48.4904 64.1891 42.4938 65.2501 42.4938 65.2501C42.6415 65.3508 42.7825 65.4515 42.9101 65.5657C44.562 66.9692 44.7299 69.3665 45.2806 70.7296C46.0326 72.6166 47.8122 73.2612 49.3029 72.9658C49.6588 72.8919 50.0751 72.6233 50.4176 72.3077C50.5788 72.1532 50.7198 71.9921 50.834 71.8376C50.8944 71.9585 50.9548 72.0727 51.0287 72.1801C51.1966 72.4487 51.5323 72.7442 51.9285 72.9792V72.9859C52.4053 73.2747 52.9559 73.4895 53.3924 73.4895C55.2055 73.4895 57.1394 72.3077 57.5759 69.9171C57.8915 68.1846 57.5289 65.3307 59.1271 63.3027Z" fill="#E3887B"/>
<path d="M38.2565 63.4934L37.9208 67.7616L34.026 65.8142L37.1317 62.9475C37.5803 62.5332 38.3042 62.8844 38.2565 63.4934ZM67.5344 65.8477L63.7068 67.7616L63.3737 63.5236C63.3254 62.9106 64.058 62.5607 64.5046 62.9831L67.5344 65.8477Z" fill="#89C4C1"/>
<path d="M59.5435 62.8394C59.3957 62.9871 59.2547 63.1415 59.1271 63.3027L59.1204 63.296C53.0903 65.7067 52.0226 72.3211 51.9285 72.9792C51.5323 72.7442 51.1966 72.4487 51.0287 72.1801C50.9548 72.0726 50.8944 71.9585 50.834 71.8376C50.4176 71.0184 50.3035 70.0648 50.4512 69.1516C50.5049 68.8225 50.5788 68.5136 50.6728 68.2182C52.2912 63.0072 59.5435 62.8394 59.5435 62.8394Z" fill="#33F297"/>
<path d="M59.1204 63.2959L59.1271 63.3026C57.5289 65.3306 57.8915 68.1845 57.5759 69.917C57.1394 72.3076 55.2054 73.4894 53.3924 73.4894C52.9559 73.4894 52.4052 73.2746 51.9285 72.9858V72.9791C52.0225 72.321 53.0902 65.7066 59.1204 63.2959Z" fill="white"/>
<path d="M59.5368 46.3538C59.3487 46.6828 56.0315 52.3839 50.8138 52.3839C45.5962 52.3839 42.2789 46.6828 42.0909 46.3538C43.5145 45.595 44.7366 45.0175 44.7769 44.9973C45.3611 46.4948 46.637 47.5893 47.8525 48.3482C48.7435 48.8948 49.7685 49.1842 50.8138 49.1842C51.8592 49.1842 52.8841 48.8948 53.7752 48.3482C54.9906 47.5893 56.2665 46.4948 56.8507 44.9973C56.891 45.0175 58.1132 45.595 59.5368 46.3538Z" fill="#33F297"/>
<path d="M50.6728 68.2181C50.5788 68.5136 50.505 68.8225 50.4512 69.1515C50.3035 70.0648 50.4177 71.0183 50.834 71.8376C50.7199 71.992 50.5788 72.1532 50.4177 72.3076C50.2431 71.8174 48.2823 66.5394 42.9169 65.5589L42.9102 65.5657C42.7826 65.4515 42.6416 65.3508 42.4938 65.25C42.4938 65.25 48.4904 64.1891 50.6728 68.2181Z" fill="white"/>
<path d="M50.4175 72.3075C50.0751 72.6231 49.6587 72.8917 49.3028 72.9656C47.8121 73.2611 46.0326 72.6164 45.2805 70.7295C44.7298 69.3663 44.562 66.969 42.91 65.5656L42.9167 65.5588C48.2821 66.5392 50.2429 71.8173 50.4175 72.3075Z" fill="#33F297"/>
<path d="M64.5102 49.063C63.8662 47.7683 59.643 45.5933 57.1517 44.3967C57.0683 44.3545 56.9769 44.3303 56.8835 44.3256C56.7901 44.3209 56.6968 44.3358 56.6096 44.3694C56.5223 44.403 56.443 44.4545 56.3769 44.5206C56.3108 44.5867 56.2593 44.666 56.2257 44.7533C55.7899 45.87 54.8458 46.888 53.4228 47.7764C52.6377 48.2558 51.7356 48.5096 50.8156 48.51C49.8957 48.5103 48.9934 48.2572 48.2079 47.7784C46.7822 46.888 45.8381 45.87 45.4023 44.7533C45.3345 44.5787 45.176 44.4511 45.0021 44.3826C44.9118 44.3503 44.8159 44.3362 44.7202 44.3411C44.6244 44.3461 44.5305 44.37 44.444 44.4115C41.9843 45.5927 37.7618 47.7677 37.1185 49.061C36.4598 50.3805 29.4767 63.3501 29.4062 63.481C29.3635 63.5602 29.3372 63.6471 29.3287 63.7367C29.3203 63.8262 29.3299 63.9165 29.357 64.0022C29.3842 64.088 29.4282 64.1674 29.4866 64.2358C29.545 64.3042 29.6165 64.3601 29.697 64.4003L37.2152 68.1595L35.94 84.306C35.8796 85.0755 36.1448 85.8431 36.6693 86.4098C37.1937 86.9766 37.9371 87.3023 38.7093 87.3023H62.9187C63.6909 87.3023 64.4343 86.9772 64.9587 86.4098C65.4832 85.8424 65.7484 85.0755 65.688 84.306L64.4135 68.1595L71.9317 64.4003C72.0121 64.3601 72.0835 64.3041 72.1419 64.2357C72.2002 64.1673 72.2442 64.0879 72.2714 64.0021C72.2985 63.9164 72.3081 63.8261 72.2997 63.7366C72.2913 63.6471 72.265 63.5602 72.2225 63.481C72.1513 63.3501 65.1682 50.3805 64.5102 49.063ZM44.4575 45.8989C45.0699 47.0257 46.0899 48.039 47.5001 48.92C49.5126 50.1616 52.1147 50.1623 54.1313 48.918C55.5394 48.039 56.5588 47.0257 57.1705 45.8989C57.6701 46.1433 58.1388 46.381 58.582 46.6107C57.6063 48.0678 54.7712 51.7142 50.814 51.7142C46.8682 51.7142 44.0264 48.0685 43.0473 46.6107C43.4892 46.381 43.9579 46.144 44.4575 45.8989ZM64.2993 66.7144L63.9058 61.7331C63.8988 61.6452 63.8746 61.5595 63.8345 61.4809C63.7944 61.4024 63.7393 61.3325 63.6722 61.2752C63.6051 61.218 63.5274 61.1745 63.4435 61.1473C63.3596 61.1201 63.2712 61.1097 63.1832 61.1167C63.0953 61.1236 63.0096 61.1478 62.9311 61.1879C62.8525 61.228 62.7826 61.2832 62.7254 61.3503C62.6681 61.4174 62.6247 61.4951 62.5975 61.579C62.5702 61.6629 62.5598 61.7513 62.5668 61.8392L64.349 84.4121C64.3812 84.8156 64.2476 85.2018 63.9723 85.4992C63.6969 85.7967 63.3229 85.9592 62.9187 85.9592H38.7093C38.3044 85.9592 37.9304 85.7954 37.6557 85.4979C37.3811 85.2004 37.2475 84.8143 37.279 84.4107L39.0612 61.8379C39.0749 61.6604 39.0178 61.4847 38.9022 61.3493C38.7867 61.2138 38.6222 61.1297 38.4448 61.1153C38.2673 61.1016 38.0916 61.1587 37.9562 61.2743C37.8207 61.3898 37.7366 61.5543 37.7222 61.7318L37.3287 66.713L30.9164 63.5066C32.33 60.8816 37.7276 50.8479 38.3212 49.6607C38.5072 49.2873 39.7334 48.4117 41.854 47.2466C42.8767 48.8199 46.0684 53.0558 50.8147 53.0558C55.5616 53.0558 58.7533 48.8186 59.7753 47.2452C61.8886 48.407 63.1215 49.286 63.3081 49.6613C63.9011 50.8472 69.298 60.881 70.7116 63.5072L64.2993 66.7144Z" fill="black"/>
<path d="M59.5281 62.1698C59.4523 62.1718 52.8849 62.3819 50.5171 66.8408C47.7861 63.6921 42.6175 64.5482 42.3771 64.5912C42.2445 64.6147 42.1221 64.6775 42.0257 64.7715C41.9293 64.8654 41.8633 64.9862 41.8364 65.1181C41.8095 65.25 41.8228 65.3869 41.8747 65.5111C41.9265 65.6354 42.0145 65.7411 42.1273 65.8147C43.4367 66.6702 43.8564 68.2234 44.2271 69.594C44.3627 70.0963 44.491 70.5704 44.6555 70.9786C45.4291 72.9119 47.1213 73.7036 48.6335 73.7036C48.9122 73.7036 49.1842 73.6768 49.444 73.6257C49.894 73.5304 50.366 73.243 50.7595 72.9018C51.3773 73.5431 52.4927 74.1596 53.3919 74.1596C55.3607 74.1596 57.7177 72.8689 58.2388 70.0358C58.3328 69.5268 58.3698 68.9487 58.4094 68.3356C58.5209 66.6152 58.6464 64.6664 60.0156 63.3194C60.2117 63.126 60.2702 62.8325 60.1634 62.5787C60.0566 62.3249 59.7773 62.1436 59.5281 62.1698ZM56.3539 64.0869C53.2374 66.3936 51.983 69.8142 51.5157 71.6643C51.1221 70.9659 50.9717 70.1218 51.1121 69.2562C51.613 66.1793 54.1795 64.7517 56.3539 64.0869ZM49.9463 68.3134C49.8839 68.5478 49.8281 68.7882 49.7872 69.0413C49.7608 69.2053 49.742 69.3705 49.7308 69.5362C48.9149 68.3094 47.6894 66.9106 45.9374 65.9376C47.4141 66.178 49.0149 66.8092 49.9463 68.3134ZM49.1734 72.3089C48.0043 72.5392 46.5364 72.0658 45.9011 70.477C45.7662 70.1413 45.648 69.7048 45.5231 69.2428C45.3163 68.4786 45.0806 67.6211 44.6803 66.8126C47.6531 68.1516 49.121 70.9572 49.6086 72.0913C49.4501 72.1974 49.295 72.2834 49.1734 72.3089ZM56.9173 69.7927C56.5332 71.8818 54.8692 72.8166 53.3912 72.8166C53.1884 72.8166 52.9305 72.738 52.6727 72.6205C52.9507 71.2016 54.0291 67.2014 57.5781 64.8605C57.2141 66.0074 57.1355 67.2 57.0677 68.2489C57.0315 68.8211 56.9965 69.3616 56.9173 69.7927Z" fill="black"/>
</g>
<defs>
<filter id="filter0_d_14_2084" x="-18.7674" y="0.325583" width="139.163" height="139.163" filterUnits="userSpaceOnUse" color-interpolation-filters="sRGB">
<feFlood flood-opacity="0" result="BackgroundImageFix"/>
<feColorMatrix in="SourceAlpha" type="matrix" values="0 0 0 0 0 0 0 0 0 0 0 0 0 0 0 0 0 0 127 0" result="hardAlpha"/>
<feOffset dy="4.09302"/>
<feGaussianBlur stdDeviation="16.8837"/>
<feComposite in2="hardAlpha" operator="out"/>
<feColorMatrix type="matrix" values="0 0 0 0 0.577292 0 0 0 0 0.800912 0 0 0 0 0.85 0 0 0 0.09 0"/>
<feBlend mode="normal" in2="BackgroundImageFix" result="effect1_dropShadow_14_2084"/>
<feBlend mode="normal" in="SourceGraphic" in2="effect1_dropShadow_14_2084" result="shape"/>
</filter>
<clipPath id="clip0_14_2084">
<rect width="42.9767" height="42.9767" fill="white" transform="translate(29.3256 44.3257)"/>
</clipPath>
</defs>
</svg>
