<svg width="44" height="44" viewBox="0 0 44 44" fill="none" xmlns="http://www.w3.org/2000/svg">
<g clip-path="url(#clip0_14_2086)">
<path d="M8.92072 23.7616L0.996887 19.7996C0.996887 19.7996 8.04776 6.70516 8.71927 5.36213C9.09532 4.61004 11.2576 3.33417 13.0908 2.35376C13.2788 2.6828 16.5961 8.38393 21.8137 8.38393C27.0314 8.38393 30.3487 2.6828 30.5367 2.35376C32.3699 3.33417 34.5322 4.61004 34.9082 5.36213C35.5797 6.70516 42.6306 19.7996 42.6306 19.7996L34.7068 23.7616L36.0162 40.3613C36.0397 40.6506 36.003 40.9417 35.9083 41.216C35.8136 41.4904 35.6631 41.7422 35.4662 41.9555C35.2694 42.1688 35.0304 42.3389 34.7645 42.4552C34.4985 42.5715 34.2114 42.6313 33.9211 42.631H9.70639C8.47753 42.631 7.51055 41.5835 7.61128 40.3613L8.92072 23.7616ZM30.1271 19.3027C30.2546 19.1416 30.3957 18.9871 30.5434 18.8394C30.5434 18.8394 23.2911 19.0072 21.6727 24.2182C19.4903 20.1891 13.4937 21.2501 13.4937 21.2501C13.6415 21.3508 13.7825 21.4515 13.9101 21.5657C15.562 22.9692 15.7299 25.3665 16.2805 26.7296C17.0326 28.6166 18.8121 29.2612 20.3028 28.9658C20.6587 28.8919 21.0751 28.6233 21.4176 28.3077C21.5787 28.1532 21.7197 27.9921 21.8339 27.8376C21.8943 27.9585 21.9548 28.0727 22.0286 28.1801C22.1965 28.4487 22.5323 28.7442 22.9285 28.9792V28.9859C23.4052 29.2747 23.9559 29.4895 24.3924 29.4895C26.2054 29.4895 28.1394 28.3077 28.5759 25.9171C28.8915 24.1846 28.5289 21.3307 30.1271 19.3027Z" fill="#E3887B"/>
<path d="M9.25652 19.4934L8.92077 23.7616L5.026 21.8142L8.13174 18.9475C8.58031 18.5332 9.3042 18.8844 9.25652 19.4934ZM38.5344 21.8477L34.7068 23.7616L34.3737 19.5236C34.3254 18.9106 35.058 18.5607 35.5046 18.9831L38.5344 21.8477Z" fill="#89C4C1"/>
<path d="M30.5435 18.8394C30.3957 18.9871 30.2547 19.1415 30.1271 19.3027L30.1204 19.296C24.0903 21.7067 23.0226 28.3211 22.9285 28.9792C22.5323 28.7442 22.1966 28.4487 22.0287 28.1801C21.9548 28.0726 21.8944 27.9585 21.834 27.8376C21.4176 27.0184 21.3035 26.0648 21.4512 25.1516C21.5049 24.8225 21.5788 24.5136 21.6728 24.2182C23.2912 19.0072 30.5435 18.8394 30.5435 18.8394Z" fill="#33F297"/>
<path d="M30.1204 19.2959L30.1271 19.3026C28.5289 21.3306 28.8915 24.1845 28.5759 25.917C28.1394 28.3076 26.2054 29.4894 24.3924 29.4894C23.9559 29.4894 23.4052 29.2746 22.9285 28.9858V28.9791C23.0225 28.321 24.0902 21.7066 30.1204 19.2959Z" fill="white"/>
<path d="M30.5368 2.35377C30.3487 2.68281 27.0315 8.38394 21.8138 8.38394C16.5962 8.38394 13.2789 2.68281 13.0909 2.35377C14.5145 1.59496 15.7366 1.01746 15.7769 0.997314C16.3611 2.49479 17.637 3.58935 18.8525 4.34816C19.7435 4.89483 20.7685 5.18419 21.8138 5.18419C22.8592 5.18419 23.8841 4.89483 24.7752 4.34816C25.9906 3.58935 27.2665 2.49479 27.8507 0.997314C27.891 1.01746 29.1132 1.59496 30.5368 2.35377Z" fill="#33F297"/>
<path d="M21.6728 24.2181C21.5788 24.5136 21.505 24.8225 21.4512 25.1515C21.3035 26.0648 21.4177 27.0183 21.834 27.8376C21.7199 27.992 21.5788 28.1532 21.4177 28.3076C21.2431 27.8174 19.2823 22.5394 13.9169 21.5589L13.9102 21.5657C13.7826 21.4515 13.6416 21.3508 13.4938 21.25C13.4938 21.25 19.4904 20.1891 21.6728 24.2181Z" fill="white"/>
<path d="M21.4175 28.3075C21.0751 28.6231 20.6587 28.8917 20.3028 28.9656C18.8121 29.2611 17.0326 28.6164 16.2805 26.7295C15.7298 25.3663 15.562 22.969 13.91 21.5656L13.9167 21.5588C19.2821 22.5392 21.2429 27.8173 21.4175 28.3075Z" fill="#33F297"/>
<path d="M35.5101 5.06302C34.8661 3.76835 30.643 1.59332 28.1517 0.396689C28.0683 0.354491 27.9769 0.330258 27.8835 0.325554C27.7901 0.32085 27.6968 0.33578 27.6095 0.369381C27.5223 0.402981 27.443 0.454505 27.3769 0.520627C27.3108 0.586748 27.2593 0.665999 27.2257 0.753262C26.7899 1.86999 25.8457 2.888 24.4228 3.77641C23.6376 4.25581 22.7356 4.50962 21.8156 4.50998C20.8956 4.51034 19.9934 4.25722 19.2078 3.77842C17.7822 2.888 16.8381 1.86999 16.4023 0.753262C16.3344 0.578669 16.176 0.451082 16.002 0.382587C15.9117 0.350261 15.8159 0.336168 15.7201 0.341125C15.6243 0.346081 15.5305 0.369988 15.444 0.411462C12.9843 1.59265 8.7618 3.76768 8.11849 5.06101C7.45974 6.38053 0.47669 19.3501 0.406181 19.481C0.363504 19.5602 0.337161 19.6471 0.328714 19.7367C0.320267 19.8262 0.329888 19.9165 0.357006 20.0022C0.384125 20.088 0.428189 20.1674 0.486583 20.2358C0.544978 20.3042 0.616513 20.3601 0.696946 20.4003L8.21519 24.1595L6.93999 40.306C6.87955 41.0755 7.1448 41.8431 7.66925 42.4098C8.1937 42.9766 8.93706 43.3023 9.7093 43.3023H33.9186C34.6909 43.3023 35.4342 42.9772 35.9587 42.4098C36.4831 41.8424 36.7484 41.0755 36.688 40.306L35.4134 24.1595L42.9317 20.4003C43.012 20.3601 43.0835 20.3041 43.1418 20.2357C43.2002 20.1673 43.2442 20.0879 43.2713 20.0021C43.2984 19.9164 43.3081 19.8261 43.2997 19.7366C43.2913 19.6471 43.265 19.5602 43.2224 19.481C43.1512 19.3501 36.1682 6.38053 35.5101 5.06302ZM15.4574 1.89886C16.0699 3.02566 17.0899 4.03897 18.5001 4.91999C20.5126 6.16162 23.1147 6.16229 25.1312 4.91798C26.5394 4.03897 27.5588 3.02566 28.1705 1.89886C28.6701 2.14329 29.1388 2.38101 29.582 2.61066C28.6063 4.06784 25.7712 7.71415 21.814 7.71415C17.8682 7.71415 15.0263 4.06851 14.0473 2.61066C14.4891 2.38101 14.9578 2.14396 15.4574 1.89886ZM35.2993 22.7144L34.9058 17.7331C34.8988 17.6452 34.8746 17.5595 34.8345 17.4809C34.7944 17.4024 34.7393 17.3325 34.6722 17.2752C34.6051 17.218 34.5273 17.1745 34.4435 17.1473C34.3596 17.1201 34.2711 17.1097 34.1832 17.1167C34.0953 17.1236 34.0096 17.1478 33.931 17.1879C33.8525 17.228 33.7826 17.2832 33.7253 17.3503C33.6681 17.4174 33.6246 17.4951 33.5974 17.579C33.5702 17.6629 33.5598 17.7513 33.5668 17.8392L35.349 40.4121C35.3812 40.8156 35.2476 41.2018 34.9722 41.4992C34.6969 41.7967 34.3229 41.9592 33.9186 41.9592H9.7093C9.30438 41.9592 8.93035 41.7954 8.6557 41.4979C8.38105 41.2004 8.24742 40.8143 8.27898 40.4107L10.0612 17.8379C10.0749 17.6604 10.0177 17.4847 9.9022 17.3493C9.78666 17.2138 9.62216 17.1297 9.44473 17.1153C9.26724 17.1016 9.09155 17.1587 8.95612 17.2743C8.82069 17.3898 8.73657 17.5543 8.72218 17.7318L8.32868 22.713L1.91641 19.5066C3.32994 16.8816 8.72755 6.8479 9.32117 5.66067C9.50718 5.28731 10.7334 4.41166 12.854 3.24658C13.8767 4.81994 17.0684 9.05583 21.8146 9.05583C26.5616 9.05583 29.7533 4.81859 30.7753 3.24524C32.8885 4.40696 34.1214 5.28597 34.3081 5.66134C34.9011 6.84723 40.298 16.881 41.7115 19.5072L35.2993 22.7144Z" fill="black"/>
<path d="M30.5281 18.1698C30.4523 18.1718 23.8849 18.3819 21.5171 22.8408C18.7861 19.6921 13.6175 20.5482 13.3771 20.5912C13.2445 20.6147 13.1221 20.6775 13.0257 20.7715C12.9293 20.8654 12.8633 20.9862 12.8364 21.1181C12.8095 21.25 12.8228 21.3869 12.8747 21.5111C12.9265 21.6354 13.0145 21.7411 13.1273 21.8147C14.4367 22.6702 14.8564 24.2234 15.2271 25.594C15.3627 26.0963 15.491 26.5704 15.6555 26.9786C16.4291 28.9119 18.1213 29.7036 19.6335 29.7036C19.9122 29.7036 20.1842 29.6768 20.444 29.6257C20.894 29.5304 21.366 29.243 21.7595 28.9018C22.3773 29.5431 23.4927 30.1596 24.3919 30.1596C26.3607 30.1596 28.7177 28.8689 29.2388 26.0358C29.3328 25.5268 29.3698 24.9487 29.4094 24.3356C29.5209 22.6152 29.6464 20.6664 31.0156 19.3194C31.2117 19.126 31.2702 18.8325 31.1634 18.5787C31.0566 18.3249 30.7773 18.1436 30.5281 18.1698ZM27.3539 20.0869C24.2374 22.3936 22.983 25.8142 22.5157 27.6643C22.1221 26.9659 21.9717 26.1218 22.1121 25.2562C22.613 22.1793 25.1795 20.7517 27.3539 20.0869ZM20.9463 24.3134C20.8839 24.5478 20.8281 24.7882 20.7872 25.0413C20.7608 25.2053 20.742 25.3705 20.7308 25.5362C19.9149 24.3094 18.6894 22.9106 16.9374 21.9376C18.4141 22.178 20.0149 22.8092 20.9463 24.3134ZM20.1734 28.3089C19.0043 28.5392 17.5364 28.0658 16.9011 26.477C16.7662 26.1413 16.648 25.7048 16.5231 25.2428C16.3163 24.4786 16.0806 23.6211 15.6803 22.8126C18.6531 24.1516 20.121 26.9572 20.6086 28.0913C20.4501 28.1974 20.295 28.2834 20.1734 28.3089ZM27.9173 25.7927C27.5332 27.8818 25.8692 28.8166 24.3912 28.8166C24.1884 28.8166 23.9305 28.738 23.6727 28.6205C23.9507 27.2016 25.0291 23.2014 28.5781 20.8605C28.2141 22.0074 28.1355 23.2 28.0677 24.2489C28.0315 24.8211 27.9965 25.3616 27.9173 25.7927Z" fill="black"/>
</g>
<defs>
<clipPath id="clip0_14_2086">
<rect width="42.9767" height="42.9767" fill="white" transform="translate(0.325562 0.325684)"/>
</clipPath>
</defs>
</svg>
