<svg width="167" height="147" viewBox="0 0 167 147" fill="none" xmlns="http://www.w3.org/2000/svg">
<rect width="167" height="147" rx="10" fill="#ECE8EF" fill-opacity="0.46"/>
<path d="M30.2625 131V122.684H35.3385V123.68H31.4265V126.152H34.9065V127.124H31.4265V130.004H35.6385V131H30.2625ZM42.1099 131C41.9899 130.76 41.8459 130.496 41.6779 130.208C41.5099 129.912 41.3259 129.608 41.1259 129.296C40.9259 128.976 40.7179 128.66 40.5019 128.348C40.2859 128.028 40.0779 127.728 39.8779 127.448C39.6779 127.728 39.4699 128.028 39.2539 128.348C39.0379 128.66 38.8299 128.976 38.6299 129.296C38.4379 129.608 38.2539 129.912 38.0779 130.208C37.9099 130.496 37.7659 130.76 37.6459 131H36.3619C36.7219 130.296 37.1379 129.58 37.6099 128.852C38.0899 128.124 38.5979 127.376 39.1339 126.608L36.4699 122.684H37.8139L39.8659 125.78L41.8939 122.684H43.2259L40.6099 126.56C41.1539 127.336 41.6659 128.092 42.1459 128.828C42.6259 129.564 43.0499 130.288 43.4179 131H42.1099ZM46.8963 122.6C48.0643 122.6 48.9603 122.824 49.5843 123.272C50.2163 123.712 50.5323 124.372 50.5323 125.252C50.5323 125.732 50.4443 126.144 50.2682 126.488C50.1003 126.824 49.8523 127.1 49.5243 127.316C49.2043 127.524 48.8123 127.676 48.3483 127.772C47.8843 127.868 47.3603 127.916 46.7763 127.916H45.8523V131H44.6883V122.804C45.0163 122.724 45.3803 122.672 45.7803 122.648C46.1883 122.616 46.5603 122.6 46.8963 122.6ZM46.9923 123.62C46.4963 123.62 46.1163 123.632 45.8523 123.656V126.92H46.7283C47.1283 126.92 47.4883 126.896 47.8083 126.848C48.1283 126.792 48.3963 126.704 48.6123 126.584C48.8363 126.456 49.0083 126.284 49.1283 126.068C49.2483 125.852 49.3083 125.576 49.3083 125.24C49.3083 124.92 49.2443 124.656 49.1163 124.448C48.9963 124.24 48.8283 124.076 48.6123 123.956C48.4043 123.828 48.1603 123.74 47.8803 123.692C47.6003 123.644 47.3043 123.62 46.9923 123.62ZM56.057 127.52C56.185 127.68 56.345 127.892 56.537 128.156C56.737 128.412 56.941 128.7 57.149 129.02C57.357 129.332 57.561 129.66 57.761 130.004C57.969 130.348 58.145 130.68 58.289 131H57.017C56.857 130.696 56.681 130.388 56.489 130.076C56.305 129.764 56.117 129.468 55.925 129.188C55.733 128.9 55.541 128.632 55.349 128.384C55.165 128.136 54.997 127.92 54.845 127.736C54.741 127.744 54.633 127.748 54.521 127.748C54.417 127.748 54.309 127.748 54.197 127.748H53.153V131H51.989V122.804C52.317 122.724 52.681 122.672 53.081 122.648C53.489 122.616 53.861 122.6 54.197 122.6C55.365 122.6 56.253 122.82 56.861 123.26C57.477 123.7 57.785 124.356 57.785 125.228C57.785 125.78 57.637 126.252 57.341 126.644C57.053 127.036 56.625 127.328 56.057 127.52ZM54.293 123.62C53.797 123.62 53.417 123.632 53.153 123.656V126.788H53.981C54.381 126.788 54.741 126.768 55.061 126.728C55.381 126.688 55.649 126.612 55.865 126.5C56.089 126.388 56.261 126.232 56.381 126.032C56.501 125.824 56.561 125.552 56.561 125.216C56.561 124.904 56.501 124.644 56.381 124.436C56.261 124.228 56.097 124.064 55.889 123.944C55.689 123.824 55.449 123.74 55.169 123.692C54.897 123.644 54.605 123.62 54.293 123.62ZM59.5359 131V122.684H64.6119V123.68H60.6999V126.152H64.1799V127.124H60.6999V130.004H64.9119V131H59.5359ZM68.3234 130.172C69.5394 130.172 70.1474 129.756 70.1474 128.924C70.1474 128.668 70.0914 128.452 69.9794 128.276C69.8754 128.092 69.7314 127.936 69.5474 127.808C69.3634 127.672 69.1514 127.556 68.9114 127.46C68.6794 127.364 68.4314 127.268 68.1674 127.172C67.8634 127.068 67.5754 126.952 67.3034 126.824C67.0314 126.688 66.7954 126.532 66.5954 126.356C66.3954 126.172 66.2354 125.956 66.1154 125.708C66.0034 125.46 65.9474 125.16 65.9474 124.808C65.9474 124.08 66.1954 123.512 66.6914 123.104C67.1874 122.696 67.8714 122.492 68.7434 122.492C69.2474 122.492 69.7034 122.548 70.1114 122.66C70.5274 122.764 70.8314 122.88 71.0234 123.008L70.6514 123.956C70.4834 123.852 70.2314 123.752 69.8954 123.656C69.5674 123.552 69.1834 123.5 68.7434 123.5C68.5194 123.5 68.3114 123.524 68.1194 123.572C67.9274 123.62 67.7594 123.692 67.6154 123.788C67.4714 123.884 67.3554 124.008 67.2674 124.16C67.1874 124.304 67.1474 124.476 67.1474 124.676C67.1474 124.9 67.1914 125.088 67.2794 125.24C67.3674 125.392 67.4914 125.528 67.6514 125.648C67.8114 125.76 67.9954 125.864 68.2034 125.96C68.4194 126.056 68.6554 126.152 68.9114 126.248C69.2714 126.392 69.5994 126.536 69.8954 126.68C70.1994 126.824 70.4594 126.996 70.6754 127.196C70.8994 127.396 71.0714 127.636 71.1914 127.916C71.3114 128.188 71.3714 128.52 71.3714 128.912C71.3714 129.64 71.1034 130.2 70.5674 130.592C70.0394 130.984 69.2914 131.18 68.3234 131.18C67.9954 131.18 67.6914 131.156 67.4114 131.108C67.1394 131.068 66.8954 131.02 66.6794 130.964C66.4634 130.9 66.2754 130.836 66.1154 130.772C65.9634 130.7 65.8434 130.64 65.7554 130.592L66.1034 129.632C66.2874 129.736 66.5674 129.852 66.9434 129.98C67.3194 130.108 67.7794 130.172 68.3234 130.172ZM74.7101 130.172C75.9261 130.172 76.5341 129.756 76.5341 128.924C76.5341 128.668 76.4781 128.452 76.3661 128.276C76.2621 128.092 76.1181 127.936 75.9341 127.808C75.7501 127.672 75.5381 127.556 75.2981 127.46C75.0661 127.364 74.8181 127.268 74.5541 127.172C74.2501 127.068 73.9621 126.952 73.6901 126.824C73.4181 126.688 73.1821 126.532 72.9821 126.356C72.7821 126.172 72.6221 125.956 72.5021 125.708C72.3901 125.46 72.3341 125.16 72.3341 124.808C72.3341 124.08 72.5821 123.512 73.0781 123.104C73.5741 122.696 74.2581 122.492 75.1301 122.492C75.6341 122.492 76.0901 122.548 76.4981 122.66C76.9141 122.764 77.2181 122.88 77.4101 123.008L77.0381 123.956C76.8701 123.852 76.6181 123.752 76.2821 123.656C75.9541 123.552 75.5701 123.5 75.1301 123.5C74.9061 123.5 74.6981 123.524 74.5061 123.572C74.3141 123.62 74.1461 123.692 74.0021 123.788C73.8581 123.884 73.7421 124.008 73.6541 124.16C73.5741 124.304 73.5341 124.476 73.5341 124.676C73.5341 124.9 73.5781 125.088 73.6661 125.24C73.7541 125.392 73.8781 125.528 74.0381 125.648C74.1981 125.76 74.3821 125.864 74.5901 125.96C74.8061 126.056 75.0421 126.152 75.2981 126.248C75.6581 126.392 75.9861 126.536 76.2821 126.68C76.5861 126.824 76.8461 126.996 77.0621 127.196C77.2861 127.396 77.4581 127.636 77.5781 127.916C77.6981 128.188 77.7581 128.52 77.7581 128.912C77.7581 129.64 77.4901 130.2 76.9541 130.592C76.4261 130.984 75.6781 131.18 74.7101 131.18C74.3821 131.18 74.0781 131.156 73.7981 131.108C73.5261 131.068 73.2821 131.02 73.0661 130.964C72.8501 130.9 72.6621 130.836 72.5021 130.772C72.3501 130.7 72.2301 130.64 72.1421 130.592L72.4901 129.632C72.6741 129.736 72.9541 129.852 73.3301 129.98C73.7061 130.108 74.1661 130.172 74.7101 130.172ZM91.5475 126.836C91.5475 127.556 91.4355 128.184 91.2115 128.72C90.9875 129.248 90.6715 129.688 90.2635 130.04C89.8555 130.384 89.3675 130.644 88.7995 130.82C88.2315 130.988 87.6075 131.072 86.9275 131.072C86.5915 131.072 86.2195 131.056 85.8115 131.024C85.4115 131 85.0475 130.948 84.7195 130.868V122.804C85.0475 122.724 85.4115 122.672 85.8115 122.648C86.2195 122.616 86.5915 122.6 86.9275 122.6C87.6075 122.6 88.2315 122.688 88.7995 122.864C89.3675 123.032 89.8555 123.292 90.2635 123.644C90.6715 123.988 90.9875 124.428 91.2115 124.964C91.4355 125.492 91.5475 126.116 91.5475 126.836ZM87.0235 130.052C88.1275 130.052 88.9515 129.772 89.4955 129.212C90.0395 128.644 90.3115 127.852 90.3115 126.836C90.3115 125.82 90.0395 125.032 89.4955 124.472C88.9515 123.904 88.1275 123.62 87.0235 123.62C86.6955 123.62 86.4395 123.624 86.2555 123.632C86.0795 123.64 85.9555 123.648 85.8835 123.656V130.016C85.9555 130.024 86.0795 130.032 86.2555 130.04C86.4395 130.048 86.6955 130.052 87.0235 130.052ZM93.2742 131V122.684H98.3502V123.68H94.4382V126.152H97.9182V127.124H94.4382V130.004H98.6502V131H93.2742ZM105.134 129.992V131H100.13V122.684H101.294V129.992H105.134ZM106.352 122.684H107.516V131H106.352V122.684ZM116.295 122.684C115.991 123.564 115.699 124.38 115.419 125.132C115.147 125.876 114.879 126.584 114.615 127.256C114.351 127.928 114.087 128.572 113.823 129.188C113.567 129.796 113.303 130.4 113.031 131H111.939C111.667 130.4 111.399 129.796 111.135 129.188C110.879 128.572 110.615 127.928 110.343 127.256C110.079 126.584 109.807 125.876 109.527 125.132C109.247 124.38 108.959 123.564 108.663 122.684H109.947C110.379 123.948 110.803 125.164 111.219 126.332C111.635 127.5 112.063 128.596 112.503 129.62C112.943 128.604 113.371 127.512 113.787 126.344C114.203 125.168 114.623 123.948 115.047 122.684H116.295ZM117.45 131V122.684H122.526V123.68H118.614V126.152H122.094V127.124H118.614V130.004H122.826V131H117.45ZM128.373 127.52C128.501 127.68 128.661 127.892 128.853 128.156C129.053 128.412 129.257 128.7 129.465 129.02C129.673 129.332 129.877 129.66 130.077 130.004C130.285 130.348 130.461 130.68 130.605 131H129.333C129.173 130.696 128.997 130.388 128.805 130.076C128.621 129.764 128.433 129.468 128.241 129.188C128.049 128.9 127.857 128.632 127.665 128.384C127.481 128.136 127.313 127.92 127.161 127.736C127.057 127.744 126.949 127.748 126.837 127.748C126.733 127.748 126.625 127.748 126.513 127.748H125.469V131H124.305V122.804C124.633 122.724 124.997 122.672 125.397 122.648C125.805 122.616 126.177 122.6 126.513 122.6C127.681 122.6 128.569 122.82 129.177 123.26C129.793 123.7 130.101 124.356 130.101 125.228C130.101 125.78 129.953 126.252 129.657 126.644C129.369 127.036 128.941 127.328 128.373 127.52ZM126.609 123.62C126.113 123.62 125.733 123.632 125.469 123.656V126.788H126.297C126.697 126.788 127.057 126.768 127.377 126.728C127.697 126.688 127.965 126.612 128.181 126.5C128.405 126.388 128.577 126.232 128.697 126.032C128.817 125.824 128.877 125.552 128.877 125.216C128.877 124.904 128.817 124.644 128.697 124.436C128.577 124.228 128.413 124.064 128.205 123.944C128.005 123.824 127.765 123.74 127.485 123.692C127.213 123.644 126.921 123.62 126.609 123.62ZM133.61 131V127.664C133.058 126.808 132.538 125.964 132.05 125.132C131.562 124.3 131.102 123.484 130.67 122.684H132.038C132.342 123.34 132.682 124.008 133.058 124.688C133.434 125.36 133.822 126.008 134.222 126.632C134.614 126.008 134.998 125.36 135.374 124.688C135.75 124.008 136.094 123.34 136.406 122.684H137.702C137.27 123.484 136.81 124.3 136.322 125.132C135.834 125.956 135.318 126.792 134.774 127.64V131H133.61Z" fill="black"/>
<path d="M30.462 94.0226H139.48C139.48 94.0226 136.849 88.7628 133.43 87.052C130.011 85.3412 128.17 88.7628 123.961 86.3942C119.751 84.0256 120.674 78.5058 115.94 75.2142C111.205 71.9226 106.208 75.6094 101.868 75.3468C97.529 75.0842 96.2134 69.2966 91.4684 68.6388C86.7234 67.981 86.8638 73.4566 82.5244 75.0842C78.185 76.7118 75.1924 74.0624 72.1374 74.1638C69.0824 74.2652 69.6388 76.1346 66.745 77.4502C63.8512 78.7658 63.326 78.108 57.8036 78.6332C52.2812 79.1584 50.9656 84.8134 48.9922 86.3916C47.0188 87.9698 44.3902 85.4712 40.3134 86.3916C36.2366 87.312 30.462 94.0226 30.462 94.0226Z" fill="#E3887B"/>
<g opacity="0.8">
<path d="M30.462 94.0226H139.48C139.48 94.0226 136.849 88.7628 133.43 87.052C130.011 85.3412 128.17 88.7628 123.961 86.3942C119.751 84.0256 120.674 78.5058 115.94 75.2142C111.205 71.9226 106.208 75.6094 101.868 75.3468C97.529 75.0842 96.2134 69.2966 91.4684 68.6388C86.7234 67.981 86.8638 73.4566 82.5244 75.0842C78.185 76.7118 75.1924 74.0624 72.1374 74.1638C69.0824 74.2652 69.6388 76.1346 66.745 77.4502C63.8512 78.7658 63.326 78.108 57.8036 78.6332C52.2812 79.1584 50.9656 84.8134 48.9922 86.3916C47.0188 87.9698 44.3902 85.4712 40.3134 86.3916C36.2366 87.312 30.462 94.0226 30.462 94.0226Z" fill="white"/>
</g>
<path d="M121.803 74.018C122.008 75.1074 124.475 78.6564 125.385 80.6532C125.175 80.3932 124.93 80.0864 124.689 79.803C124.499 79.4728 124.33 79.1036 124.14 78.8202C123.846 78.3808 123.537 77.9518 123.201 77.5436C122.687 76.8957 122.099 76.3102 121.449 75.799C120.697 75.1855 119.783 74.805 118.818 74.7044C118.558 74.6862 117.073 74.5744 117.419 75.1724C117.482 75.2641 117.567 75.339 117.666 75.3908C118.579 75.9498 119.587 76.2488 120.549 76.6908C121.99 77.3642 123.893 79.1582 124.686 79.9382L125.089 80.4712C123.672 79.1504 121.358 78.3912 120.565 78.763C119.585 79.2102 121.693 79.6678 123.482 80.1306C124.283 80.3127 125.027 80.6865 125.651 81.22C125.994 81.6828 126.381 82.2028 126.769 82.7358C126.815 82.819 126.862 82.897 126.909 82.975C126.634 82.656 126.324 82.3699 125.983 82.1222C125.068 81.4956 122.549 81.116 122.284 81.9636C122.018 82.8112 123.805 82.4238 125.341 82.6682C126.173 82.822 126.937 83.2277 127.53 83.8304L127.632 83.9396C127.806 84.1996 127.972 84.4258 128.128 84.6546C128.495 85.1902 128.843 85.6946 129.168 86.1808C128.651 85.5034 128.038 84.9052 127.348 84.405C126.007 83.4846 124.215 83.2896 123.563 83.7836C122.91 84.2776 125.921 84.7248 127.4 85.2448C128.253 85.5692 129.008 86.1062 129.595 86.8048C130.081 87.4938 130.562 88.1646 131.079 88.8666C130.255 88.1366 129.372 87.4749 128.44 86.888C126.925 85.8948 125.354 86.03 124.936 86.628C124.517 87.226 125.799 87.265 128.183 87.7772C129.44 88.0439 130.606 88.6355 131.563 89.4932L132.247 90.4032C132.507 90.7594 132.832 91.1234 133.162 91.4822C132.759 91.3002 132.164 91.0402 131.503 90.7568C130.765 90.4536 130.051 90.0937 129.369 89.6804C128.589 89.1916 127.528 88.6742 126.594 89.0902C126.524 89.1132 126.458 89.1511 126.404 89.2014C126.349 89.2517 126.305 89.3131 126.276 89.3817C126.247 89.4502 126.233 89.5242 126.235 89.5986C126.237 89.673 126.255 89.7461 126.288 89.813C126.391 90.0013 126.552 90.1509 126.748 90.2394C127.788 90.8088 129.07 90.9596 130.206 91.2118C131.249 91.4451 132.306 91.6092 133.37 91.7032C133.679 92.0282 134.002 92.348 134.322 92.6496L133.843 92.738C133.279 92.8446 130.528 92.0828 129.163 91.9138C127.798 91.7448 126.693 92.6418 128.175 93.1618C129.657 93.6818 133.347 92.9382 133.347 92.9382L134.413 92.738C135.679 93.9314 136.851 94.844 136.851 94.844L137.345 94.5112C137.345 94.5112 136.324 94.2304 134.608 92.608C134.567 92.2871 134.562 91.9628 134.592 91.6408C134.701 89.8208 136.201 87.7668 135.05 86.0066C134.771 85.5802 134.171 85.3462 133.838 85.8142C133.599 86.1522 133.612 86.7216 133.687 87.1142C133.947 88.4012 134.35 89.5426 134.251 90.8842C134.251 90.944 134.251 91.8436 134.314 92.3324C134.08 92.101 133.838 91.8488 133.583 91.5706C133.373 91.0651 133.205 90.5434 133.079 90.0106C132.749 88.5936 133.079 87.0908 132.842 85.6478C132.767 85.2058 132.078 84.158 131.74 85.068C131.592 85.471 131.781 86.2354 131.807 86.6644C131.885 87.8786 132.005 89.1474 132.483 90.281L132.278 90.021C131.866 88.8898 131.546 87.7273 131.321 86.5448C130.955 84.5922 131.017 82.9308 130.388 82.4108C129.759 81.8908 129.792 84.0644 130.388 86.3498C130.661 87.3915 131.104 88.3808 131.701 89.2774C131.03 88.4194 130.362 87.538 129.725 86.6774C129.133 85.7402 128.764 84.6801 128.646 83.5782C128.534 81.844 128.43 80.427 127.629 79.5664C126.828 78.7058 126.792 79.3506 127.424 81.3084C127.858 82.65 128.378 84.4544 128.984 85.6686C128.487 84.9952 128.022 84.3556 127.603 83.7758C127.325 83.1752 126.649 81.623 126.438 80.2814C126.178 78.5758 125.846 77.6814 125.398 78.1338C125.089 78.451 125.658 80.5206 126.488 82.2054C126.137 81.7088 125.874 81.3266 125.708 81.1004C125.638 80.9964 125.56 80.8872 125.474 80.7728C125.071 79.3961 124.58 78.0466 124.005 76.7324C122.999 74.434 121.582 72.8298 121.803 74.018Z" fill="#E3887B"/>
<g opacity="0.6">
<path d="M121.803 74.018C122.008 75.1074 124.475 78.6564 125.385 80.6532C125.175 80.3932 124.93 80.0864 124.689 79.803C124.499 79.4728 124.33 79.1036 124.14 78.8202C123.846 78.3808 123.537 77.9518 123.201 77.5436C122.687 76.8957 122.099 76.3102 121.449 75.799C120.697 75.1855 119.783 74.805 118.818 74.7044C118.558 74.6862 117.073 74.5744 117.419 75.1724C117.482 75.2641 117.567 75.339 117.666 75.3908C118.579 75.9498 119.587 76.2488 120.549 76.6908C121.99 77.3642 123.893 79.1582 124.686 79.9382L125.089 80.4712C123.672 79.1504 121.358 78.3912 120.565 78.763C119.585 79.2102 121.693 79.6678 123.482 80.1306C124.283 80.3127 125.027 80.6865 125.651 81.22C125.994 81.6828 126.381 82.2028 126.769 82.7358C126.815 82.819 126.862 82.897 126.909 82.975C126.634 82.656 126.324 82.3699 125.983 82.1222C125.068 81.4956 122.549 81.116 122.284 81.9636C122.018 82.8112 123.805 82.4238 125.341 82.6682C126.173 82.822 126.937 83.2277 127.53 83.8304L127.632 83.9396C127.806 84.1996 127.972 84.4258 128.128 84.6546C128.495 85.1902 128.843 85.6946 129.168 86.1808C128.651 85.5034 128.038 84.9052 127.348 84.405C126.007 83.4846 124.215 83.2896 123.563 83.7836C122.91 84.2776 125.921 84.7248 127.4 85.2448C128.253 85.5692 129.008 86.1062 129.595 86.8048C130.081 87.4938 130.562 88.1646 131.079 88.8666C130.255 88.1366 129.372 87.4749 128.44 86.888C126.925 85.8948 125.354 86.03 124.936 86.628C124.517 87.226 125.799 87.265 128.183 87.7772C129.44 88.0439 130.606 88.6355 131.563 89.4932L132.247 90.4032C132.507 90.7594 132.832 91.1234 133.162 91.4822C132.759 91.3002 132.164 91.0402 131.503 90.7568C130.765 90.4536 130.051 90.0937 129.369 89.6804C128.589 89.1916 127.528 88.6742 126.594 89.0902C126.524 89.1132 126.458 89.1511 126.404 89.2014C126.349 89.2517 126.305 89.3131 126.276 89.3817C126.247 89.4502 126.233 89.5242 126.235 89.5986C126.237 89.673 126.255 89.7461 126.288 89.813C126.391 90.0013 126.552 90.1509 126.748 90.2394C127.788 90.8088 129.07 90.9596 130.206 91.2118C131.249 91.4451 132.306 91.6092 133.37 91.7032C133.679 92.0282 134.002 92.348 134.322 92.6496L133.843 92.738C133.279 92.8446 130.528 92.0828 129.163 91.9138C127.798 91.7448 126.693 92.6418 128.175 93.1618C129.657 93.6818 133.347 92.9382 133.347 92.9382L134.413 92.738C135.679 93.9314 136.851 94.844 136.851 94.844L137.345 94.5112C137.345 94.5112 136.324 94.2304 134.608 92.608C134.567 92.2871 134.562 91.9628 134.592 91.6408C134.701 89.8208 136.201 87.7668 135.05 86.0066C134.771 85.5802 134.171 85.3462 133.838 85.8142C133.599 86.1522 133.612 86.7216 133.687 87.1142C133.947 88.4012 134.35 89.5426 134.251 90.8842C134.251 90.944 134.251 91.8436 134.314 92.3324C134.08 92.101 133.838 91.8488 133.583 91.5706C133.373 91.0651 133.205 90.5434 133.079 90.0106C132.749 88.5936 133.079 87.0908 132.842 85.6478C132.767 85.2058 132.078 84.158 131.74 85.068C131.592 85.471 131.781 86.2354 131.807 86.6644C131.885 87.8786 132.005 89.1474 132.483 90.281L132.278 90.021C131.866 88.8898 131.546 87.7273 131.321 86.5448C130.955 84.5922 131.017 82.9308 130.388 82.4108C129.759 81.8908 129.792 84.0644 130.388 86.3498C130.661 87.3915 131.104 88.3808 131.701 89.2774C131.03 88.4194 130.362 87.538 129.725 86.6774C129.133 85.7402 128.764 84.6801 128.646 83.5782C128.534 81.844 128.43 80.427 127.629 79.5664C126.828 78.7058 126.792 79.3506 127.424 81.3084C127.858 82.65 128.378 84.4544 128.984 85.6686C128.487 84.9952 128.022 84.3556 127.603 83.7758C127.325 83.1752 126.649 81.623 126.438 80.2814C126.178 78.5758 125.846 77.6814 125.398 78.1338C125.089 78.451 125.658 80.5206 126.488 82.2054C126.137 81.7088 125.874 81.3266 125.708 81.1004C125.638 80.9964 125.56 80.8872 125.474 80.7728C125.071 79.3961 124.58 78.0466 124.005 76.7324C122.999 74.434 121.582 72.8298 121.803 74.018Z" fill="white"/>
</g>
<path d="M140.231 68.9507C139.628 69.8789 138.968 74.1507 138.25 76.2307C138.287 75.8875 138.313 75.5079 138.331 75.1361C138.422 74.7669 138.554 74.3847 138.614 74.0441C138.703 73.5241 138.773 73.0041 138.814 72.4841C138.889 71.6601 138.867 70.8302 138.747 70.0115C138.623 69.0515 138.223 68.1481 137.595 67.4115C137.431 67.2269 136.422 66.1115 136.261 66.7849C136.243 66.8948 136.253 67.0074 136.29 67.1125C136.563 68.1525 137.088 69.0599 137.475 70.0505C138.053 71.5325 138.193 74.1429 138.229 75.2505C138.209 75.4299 138.183 75.6561 138.154 75.9135C138.04 73.9817 136.88 71.8393 136.056 71.5559C135.037 71.2075 136.248 72.9911 137.226 74.5589C137.679 75.2426 137.96 76.0258 138.045 76.8417C137.975 77.4163 137.894 78.0585 137.808 78.7111C137.785 78.8047 137.764 78.8931 137.746 78.9841C137.766 78.5629 137.738 78.1406 137.663 77.7257C137.431 76.6415 135.869 74.6291 135.091 75.0607C134.314 75.4923 135.871 76.4439 136.82 77.6789C137.316 78.3642 137.589 79.186 137.6 80.0319C137.6 80.0813 137.6 80.1307 137.6 80.1801C137.556 80.4791 137.512 80.7677 137.468 81.0407C137.364 81.6803 137.27 82.2835 137.179 82.8607C137.272 82.015 137.242 81.1603 137.091 80.3231C136.75 78.7319 135.588 77.3539 134.774 77.2629C133.96 77.1719 135.832 79.5691 136.547 80.9679C136.944 81.7876 137.123 82.6955 137.067 83.6043C136.945 84.4363 136.831 85.2553 136.721 86.1211C136.626 85.0232 136.444 83.9347 136.175 82.8659C135.762 81.1031 134.53 80.1151 133.807 80.2659C133.084 80.4167 133.994 81.3215 135.367 83.3365C136.09 84.3954 136.524 85.6252 136.625 86.9037C136.581 87.2677 136.537 87.6421 136.493 88.0321C136.443 88.4767 136.417 88.9577 136.412 89.4465C136.243 89.0357 135.993 88.4351 135.71 87.7773C135.385 87.0485 135.116 86.2957 134.907 85.5257C134.673 84.6287 134.267 83.5263 133.305 83.1857C133.238 83.1536 133.165 83.1363 133.09 83.1349C133.016 83.1335 132.942 83.148 132.874 83.1776C132.805 83.2072 132.744 83.2511 132.695 83.3063C132.645 83.3615 132.607 83.4268 132.585 83.4977C132.529 83.7051 132.542 83.9248 132.621 84.1243C132.975 85.2475 133.807 86.2459 134.454 87.2131C135.05 88.1005 135.703 88.9481 136.409 89.7507C136.409 90.2005 136.422 90.6529 136.446 91.0923L136.038 90.8323C135.554 90.5203 134.09 88.0711 133.219 87.0103C132.348 85.9495 130.929 85.8325 131.641 87.2313C132.353 88.6301 135.541 90.6347 135.541 90.6347L136.451 91.2275C136.547 92.9643 136.766 94.4333 136.766 94.4333L137.353 94.5321C137.353 94.5321 136.807 93.6247 136.682 91.2691C136.875 91.008 137.095 90.7691 137.34 90.5567C138.671 89.3139 141.175 88.8615 141.555 86.7893C141.646 86.2901 141.375 85.7077 140.809 85.8169C140.403 85.8949 140.029 86.3187 139.81 86.6489C139.106 87.7539 138.614 88.8641 137.621 89.7689C137.577 89.8105 136.961 90.4657 136.667 90.8609C136.667 90.5333 136.654 90.1823 136.667 89.8053C136.865 89.2932 137.103 88.7976 137.379 88.3233C138.118 87.0701 139.394 86.2121 140.216 85.0005C140.476 84.6287 140.689 83.3963 139.818 83.8227C139.431 84.0125 139.038 84.6963 138.778 85.0239C137.998 85.9573 137.218 86.9609 136.771 88.1101C136.771 88.0009 136.792 87.8917 136.799 87.7825C137.282 86.6798 137.853 85.6173 138.505 84.6053C139.587 82.9387 140.775 81.7765 140.679 80.9653C140.582 80.1541 139.119 81.7453 137.956 83.8253C137.436 84.7684 137.076 85.791 136.89 86.8517C136.997 85.7649 137.119 84.6677 137.244 83.6121C137.461 82.5252 137.925 81.5029 138.601 80.6247C139.714 79.2909 140.616 78.1937 140.629 77.0185C140.642 75.8433 140.172 76.2827 139.28 78.1365C138.669 79.4079 137.803 81.0745 137.397 82.3667C137.504 81.5373 137.608 80.7521 137.707 80.0449C137.917 79.4183 138.487 77.8271 139.267 76.7117C140.25 75.2921 140.629 74.4159 139.992 74.4393C139.55 74.4549 138.526 76.3373 137.975 78.1365C138.063 77.5359 138.136 77.0783 138.183 76.8079C138.203 76.6866 138.222 76.554 138.237 76.4101C138.89 75.1267 139.462 73.8033 139.948 72.4477C140.811 70.0739 140.887 67.9419 140.231 68.9507Z" fill="#E3887B"/>
<g opacity="0.6">
<path d="M140.231 68.9507C139.628 69.8789 138.968 74.1507 138.25 76.2307C138.287 75.8875 138.313 75.5079 138.331 75.1361C138.422 74.7669 138.554 74.3847 138.614 74.0441C138.703 73.5241 138.773 73.0041 138.814 72.4841C138.889 71.6601 138.867 70.8302 138.747 70.0115C138.623 69.0515 138.223 68.1481 137.595 67.4115C137.431 67.2269 136.422 66.1115 136.261 66.7849C136.243 66.8948 136.253 67.0074 136.29 67.1125C136.563 68.1525 137.088 69.0599 137.475 70.0505C138.053 71.5325 138.193 74.1429 138.229 75.2505C138.209 75.4299 138.183 75.6561 138.154 75.9135C138.04 73.9817 136.88 71.8393 136.056 71.5559C135.037 71.2075 136.248 72.9911 137.226 74.5589C137.679 75.2426 137.96 76.0258 138.045 76.8417C137.975 77.4163 137.894 78.0585 137.808 78.7111C137.785 78.8047 137.764 78.8931 137.746 78.9841C137.766 78.5629 137.738 78.1406 137.663 77.7257C137.431 76.6415 135.869 74.6291 135.091 75.0607C134.314 75.4923 135.871 76.4439 136.82 77.6789C137.316 78.3642 137.589 79.186 137.6 80.0319C137.6 80.0813 137.6 80.1307 137.6 80.1801C137.556 80.4791 137.512 80.7677 137.468 81.0407C137.364 81.6803 137.27 82.2835 137.179 82.8607C137.272 82.015 137.242 81.1603 137.091 80.3231C136.75 78.7319 135.588 77.3539 134.774 77.2629C133.96 77.1719 135.832 79.5691 136.547 80.9679C136.944 81.7876 137.123 82.6955 137.067 83.6043C136.945 84.4363 136.831 85.2553 136.721 86.1211C136.626 85.0232 136.444 83.9347 136.175 82.8659C135.762 81.1031 134.53 80.1151 133.807 80.2659C133.084 80.4167 133.994 81.3215 135.367 83.3365C136.09 84.3954 136.524 85.6252 136.625 86.9037C136.581 87.2677 136.537 87.6421 136.493 88.0321C136.443 88.4767 136.417 88.9577 136.412 89.4465C136.243 89.0357 135.993 88.4351 135.71 87.7773C135.385 87.0485 135.116 86.2957 134.907 85.5257C134.673 84.6287 134.267 83.5263 133.305 83.1857C133.238 83.1536 133.165 83.1363 133.09 83.1349C133.016 83.1335 132.942 83.148 132.874 83.1776C132.805 83.2072 132.744 83.2511 132.695 83.3063C132.645 83.3615 132.607 83.4268 132.585 83.4977C132.529 83.7051 132.542 83.9248 132.621 84.1243C132.975 85.2475 133.807 86.2459 134.454 87.2131C135.05 88.1005 135.703 88.9481 136.409 89.7507C136.409 90.2005 136.422 90.6529 136.446 91.0923L136.038 90.8323C135.554 90.5203 134.09 88.0711 133.219 87.0103C132.348 85.9495 130.929 85.8325 131.641 87.2313C132.353 88.6301 135.541 90.6347 135.541 90.6347L136.451 91.2275C136.547 92.9643 136.766 94.4333 136.766 94.4333L137.353 94.5321C137.353 94.5321 136.807 93.6247 136.682 91.2691C136.875 91.008 137.095 90.7691 137.34 90.5567C138.671 89.3139 141.175 88.8615 141.555 86.7893C141.646 86.2901 141.375 85.7077 140.809 85.8169C140.403 85.8949 140.029 86.3187 139.81 86.6489C139.106 87.7539 138.614 88.8641 137.621 89.7689C137.577 89.8105 136.961 90.4657 136.667 90.8609C136.667 90.5333 136.654 90.1823 136.667 89.8053C136.865 89.2932 137.103 88.7976 137.379 88.3233C138.118 87.0701 139.394 86.2121 140.216 85.0005C140.476 84.6287 140.689 83.3963 139.818 83.8227C139.431 84.0125 139.038 84.6963 138.778 85.0239C137.998 85.9573 137.218 86.9609 136.771 88.1101C136.771 88.0009 136.792 87.8917 136.799 87.7825C137.282 86.6798 137.853 85.6173 138.505 84.6053C139.587 82.9387 140.775 81.7765 140.679 80.9653C140.582 80.1541 139.119 81.7453 137.956 83.8253C137.436 84.7684 137.076 85.791 136.89 86.8517C136.997 85.7649 137.119 84.6677 137.244 83.6121C137.461 82.5252 137.925 81.5029 138.601 80.6247C139.714 79.2909 140.616 78.1937 140.629 77.0185C140.642 75.8433 140.172 76.2827 139.28 78.1365C138.669 79.4079 137.803 81.0745 137.397 82.3667C137.504 81.5373 137.608 80.7521 137.707 80.0449C137.917 79.4183 138.487 77.8271 139.267 76.7117C140.25 75.2921 140.629 74.4159 139.992 74.4393C139.55 74.4549 138.526 76.3373 137.975 78.1365C138.063 77.5359 138.136 77.0783 138.183 76.8079C138.203 76.6866 138.222 76.554 138.237 76.4101C138.89 75.1267 139.462 73.8033 139.948 72.4477C140.811 70.0739 140.887 67.9419 140.231 68.9507Z" fill="white"/>
</g>
<path d="M29.3387 78.29C29.4609 79.1064 31.2003 81.8286 31.8191 83.3418C31.6709 83.1312 31.4993 82.9076 31.3251 82.6892C31.1925 82.4292 31.0781 82.1562 30.9429 81.9378C30.7375 81.6024 30.5191 81.2748 30.2825 80.9602C29.9168 80.4616 29.4935 80.0078 29.0215 79.6082C28.4792 79.1292 27.8086 78.8192 27.0923 78.7164C26.9077 78.6956 25.7923 78.5682 26.0341 79.0232C26.0778 79.0946 26.1397 79.1529 26.2135 79.1922C26.8791 79.6368 27.6201 79.889 28.3273 80.2556C29.3829 80.786 30.7479 82.19 31.3199 82.7854L31.6033 83.1936C30.5867 82.1666 28.8811 81.54 28.2779 81.787C27.5343 82.0938 29.0943 82.4968 30.4151 82.8946C31.0074 83.0516 31.552 83.3516 32.0011 83.7682C32.2455 84.1218 32.5211 84.5248 32.7811 84.933C32.8123 84.9954 32.8461 85.0552 32.8799 85.115C32.6848 84.8687 32.4614 84.6462 32.2143 84.452C31.5487 83.958 29.6793 83.6018 29.4557 84.2258C29.2321 84.8498 30.5789 84.6132 31.7177 84.8394C32.3343 84.9785 32.8933 85.3034 33.3193 85.7702C33.3427 85.8014 33.3661 85.8274 33.3921 85.856C33.5143 86.0432 33.6313 86.2278 33.7405 86.402C34.0005 86.8128 34.2423 87.1976 34.4841 87.5694C34.1178 87.052 33.6801 86.5889 33.1841 86.194C32.2091 85.4686 30.8753 85.271 30.3761 85.622C29.8769 85.973 32.1077 86.402 33.1971 86.8232C33.8236 87.0873 34.3722 87.507 34.7909 88.0426C35.1315 88.5626 35.4721 89.0826 35.8309 89.6234C35.2366 89.0522 34.5966 88.5305 33.9173 88.0634C32.8149 87.2834 31.6397 87.3328 31.3173 87.7748C30.9949 88.2168 31.9439 88.2766 33.7067 88.7264C34.6354 88.9624 35.4861 89.4375 36.1741 90.1044C36.3275 90.3306 36.4887 90.562 36.6577 90.8038C36.8604 91.091 37.0773 91.3678 37.3077 91.6332C37.0113 91.4876 36.5771 91.2744 36.0909 91.0456C35.5497 90.7971 35.0281 90.5077 34.5309 90.1798C33.9563 89.7924 33.1867 89.3764 32.4769 89.6598C32.4233 89.6731 32.3732 89.6979 32.33 89.7324C32.2869 89.767 32.2518 89.8104 32.227 89.8599C32.2023 89.9093 32.1886 89.9635 32.1869 90.0187C32.1851 90.074 32.1954 90.1289 32.2169 90.1798C32.2911 90.333 32.4148 90.4566 32.5679 90.5308C33.3219 90.9858 34.2787 91.134 35.1211 91.355C35.8903 91.5586 36.672 91.7115 37.4611 91.8126C37.6847 92.0726 37.9161 92.3118 38.1449 92.5458L37.7861 92.6004C37.3597 92.6628 35.3317 92.0154 34.3203 91.8464C33.3089 91.6774 32.4561 92.3196 33.5403 92.7512C34.6245 93.1828 37.4039 92.733 37.4039 92.733L38.2073 92.616C39.1173 93.5416 39.9649 94.2566 39.9649 94.2566L40.3419 94.0226C40.3419 94.0226 39.5905 93.7834 38.3555 92.525C38.3354 92.2841 38.3415 92.0418 38.3737 91.8022C38.5063 90.4476 39.6737 88.9578 38.8755 87.611C38.6805 87.286 38.2411 87.091 37.9759 87.4342C37.8116 87.7254 37.7589 88.0664 37.8277 88.3936C37.9785 89.3608 38.2515 90.2136 38.1423 91.2198C38.1423 91.2666 38.1163 91.9374 38.1423 92.3014C37.9759 92.1246 37.8017 91.9296 37.6223 91.7138C37.4806 91.3288 37.3694 90.9332 37.2895 90.5308C37.0867 89.4648 37.3779 88.352 37.2401 87.2704C37.1959 86.9376 36.7201 86.1368 36.4341 86.805C36.3119 87.1014 36.4341 87.6786 36.4341 87.9984C36.4155 88.9201 36.5508 89.8383 36.8345 90.7154C36.7851 90.6504 36.7357 90.5854 36.6889 90.5178C36.4189 89.666 36.2172 88.7939 36.0857 87.91C35.8699 86.4436 35.9635 85.206 35.5085 84.79C35.0535 84.374 35.0171 86.0094 35.3889 87.728C35.5641 88.514 35.8671 89.2659 36.2859 89.9536C35.8101 89.2906 35.3369 88.6172 34.8871 87.962C34.4724 87.2472 34.2277 86.4466 34.1721 85.622C34.1383 84.322 34.0993 83.2664 33.5273 82.6008C32.9553 81.9352 32.9085 82.4136 33.3245 83.9008C33.6105 84.9148 33.9459 86.2746 34.3645 87.2002C34.0161 86.6802 33.6859 86.1914 33.3921 85.7468C33.0217 84.9027 32.7596 84.0151 32.6121 83.1052C32.4639 81.826 32.2455 81.1474 31.8971 81.475C31.6579 81.7012 32.0141 83.2612 32.5939 84.543C32.3339 84.1608 32.1597 83.8696 32.0531 83.6954C32.0046 83.6174 31.95 83.5308 31.8893 83.4354C31.6277 82.3942 31.3012 81.3705 30.9117 80.37C30.2279 78.6202 29.2087 77.3878 29.3387 78.29Z" fill="#E3887B"/>
<path opacity="0.6" d="M29.3387 78.29C29.4609 79.1064 31.2003 81.8286 31.8191 83.3418C31.6709 83.1312 31.4993 82.9076 31.3251 82.6892C31.1925 82.4292 31.0781 82.1562 30.9429 81.9378C30.7375 81.6024 30.5191 81.2748 30.2825 80.9602C29.9168 80.4616 29.4935 80.0078 29.0215 79.6082C28.4792 79.1292 27.8086 78.8192 27.0923 78.7164C26.9077 78.6956 25.7923 78.5682 26.0341 79.0232C26.0778 79.0946 26.1397 79.1529 26.2135 79.1922C26.8791 79.6368 27.6201 79.889 28.3273 80.2556C29.3829 80.786 30.7479 82.19 31.3199 82.7854L31.6033 83.1936C30.5867 82.1666 28.8811 81.54 28.2779 81.787C27.5343 82.0938 29.0943 82.4968 30.4151 82.8946C31.0074 83.0516 31.552 83.3516 32.0011 83.7682C32.2455 84.1218 32.5211 84.5248 32.7811 84.933C32.8123 84.9954 32.8461 85.0552 32.8799 85.115C32.6848 84.8687 32.4614 84.6462 32.2143 84.452C31.5487 83.958 29.6793 83.6018 29.4557 84.2258C29.2321 84.8498 30.5789 84.6132 31.7177 84.8394C32.3343 84.9785 32.8933 85.3034 33.3193 85.7702C33.3427 85.8014 33.3661 85.8274 33.3921 85.856C33.5143 86.0432 33.6313 86.2278 33.7405 86.402C34.0005 86.8128 34.2423 87.1976 34.4841 87.5694C34.1178 87.052 33.6801 86.5889 33.1841 86.194C32.2091 85.4686 30.8753 85.271 30.3761 85.622C29.8769 85.973 32.1077 86.402 33.1971 86.8232C33.8236 87.0873 34.3722 87.507 34.7909 88.0426C35.1315 88.5626 35.4721 89.0826 35.8309 89.6234C35.2366 89.0522 34.5966 88.5305 33.9173 88.0634C32.8149 87.2834 31.6397 87.3328 31.3173 87.7748C30.9949 88.2168 31.9439 88.2766 33.7067 88.7264C34.6354 88.9624 35.4861 89.4375 36.1741 90.1044C36.3275 90.3306 36.4887 90.562 36.6577 90.8038C36.8604 91.091 37.0773 91.3678 37.3077 91.6332C37.0113 91.4876 36.5771 91.2744 36.0909 91.0456C35.5497 90.7971 35.0281 90.5077 34.5309 90.1798C33.9563 89.7924 33.1867 89.3764 32.4769 89.6598C32.4233 89.6731 32.3732 89.6979 32.33 89.7324C32.2869 89.767 32.2518 89.8104 32.227 89.8599C32.2023 89.9093 32.1886 89.9635 32.1869 90.0187C32.1851 90.074 32.1954 90.1289 32.2169 90.1798C32.2911 90.333 32.4148 90.4566 32.5679 90.5308C33.3219 90.9858 34.2787 91.134 35.1211 91.355C35.8903 91.5586 36.672 91.7115 37.4611 91.8126C37.6847 92.0726 37.9161 92.3118 38.1449 92.5458L37.7861 92.6004C37.3597 92.6628 35.3317 92.0154 34.3203 91.8464C33.3089 91.6774 32.4561 92.3196 33.5403 92.7512C34.6245 93.1828 37.4039 92.733 37.4039 92.733L38.2073 92.616C39.1173 93.5416 39.9649 94.2566 39.9649 94.2566L40.3419 94.0226C40.3419 94.0226 39.5905 93.7834 38.3555 92.525C38.3354 92.2841 38.3415 92.0418 38.3737 91.8022C38.5063 90.4476 39.6737 88.9578 38.8755 87.611C38.6805 87.286 38.2411 87.091 37.9759 87.4342C37.8116 87.7254 37.7589 88.0664 37.8277 88.3936C37.9785 89.3608 38.2515 90.2136 38.1423 91.2198C38.1423 91.2666 38.1163 91.9374 38.1423 92.3014C37.9759 92.1246 37.8017 91.9296 37.6223 91.7138C37.4806 91.3288 37.3694 90.9332 37.2895 90.5308C37.0867 89.4648 37.3779 88.352 37.2401 87.2704C37.1959 86.9376 36.7201 86.1368 36.4341 86.805C36.3119 87.1014 36.4341 87.6786 36.4341 87.9984C36.4155 88.9201 36.5508 89.8383 36.8345 90.7154C36.7851 90.6504 36.7357 90.5854 36.6889 90.5178C36.4189 89.666 36.2172 88.7939 36.0857 87.91C35.8699 86.4436 35.9635 85.206 35.5085 84.79C35.0535 84.374 35.0171 86.0094 35.3889 87.728C35.5641 88.514 35.8671 89.2659 36.2859 89.9536C35.8101 89.2906 35.3369 88.6172 34.8871 87.962C34.4724 87.2472 34.2277 86.4466 34.1721 85.622C34.1383 84.322 34.0993 83.2664 33.5273 82.6008C32.9553 81.9352 32.9085 82.4136 33.3245 83.9008C33.6105 84.9148 33.9459 86.2746 34.3645 87.2002C34.0161 86.6802 33.6859 86.1914 33.3921 85.7468C33.0217 84.9027 32.7596 84.0151 32.6121 83.1052C32.4639 81.826 32.2455 81.1474 31.8971 81.475C31.6579 81.7012 32.0141 83.2612 32.5939 84.543C32.3339 84.1608 32.1597 83.8696 32.0531 83.6954C32.0046 83.6174 31.95 83.5308 31.8893 83.4354C31.6277 82.3942 31.3012 81.3705 30.9117 80.37C30.2279 78.6202 29.2087 77.3878 29.3387 78.29Z" fill="white"/>
<path d="M48.1679 77.6451C47.4737 78.0923 45.7135 80.7989 44.5903 81.9897C44.7203 81.7661 44.8503 81.5165 44.9803 81.2695C45.1545 81.0433 45.3625 80.8249 45.5003 80.6117C45.7213 80.2841 45.9293 79.9487 46.1191 79.6029C46.4215 79.065 46.6598 78.4934 46.8289 77.8999C47.0432 77.2079 47.0487 76.4681 46.8445 75.7731C46.7899 75.5963 46.4441 74.5277 46.1295 74.9385C46.0829 75.0073 46.0551 75.0871 46.0489 75.1699C45.9163 75.9499 45.9943 76.7299 45.9527 77.5333C45.8929 78.7189 45.1883 80.5389 44.8711 81.3085C44.8035 81.4229 44.7177 81.5685 44.6111 81.7349C45.1311 80.3855 44.9933 78.5733 44.5201 78.1261C43.9325 77.5749 44.2107 79.1661 44.3953 80.5285C44.4943 81.1335 44.4452 81.7536 44.2523 82.3355C44.0287 82.7021 43.7765 83.1155 43.5191 83.5341L43.3917 83.7005C43.545 83.4219 43.6646 83.126 43.7479 82.8191C43.9221 82.0105 43.4879 80.1619 42.8145 80.2191C42.1411 80.2763 42.9263 81.3995 43.1889 82.5305C43.3187 83.1495 43.2533 83.7936 43.0017 84.3739L42.9549 84.4753C42.8327 84.6651 42.7157 84.8471 42.6013 85.0187C42.3413 85.4243 42.0813 85.7987 41.8421 86.1757C42.1643 85.6291 42.406 85.0389 42.5597 84.4233C42.8197 83.2351 42.4479 81.9403 41.9227 81.6283C41.3975 81.3163 41.9227 83.5237 41.9929 84.6937C42.0108 85.3736 41.8541 86.0467 41.5379 86.6489C41.1999 87.1689 40.8723 87.6889 40.5317 88.2557C40.801 87.478 41.0071 86.6798 41.1479 85.8689C41.4079 84.5429 40.8723 83.4925 40.3315 83.3755C39.7907 83.2585 40.1339 84.1555 40.4511 85.9443C40.6196 86.8875 40.538 87.8583 40.2145 88.7601C40.0715 88.9941 39.9285 89.2359 39.7777 89.4881C39.6269 89.7403 39.4449 90.0939 39.2889 90.4267C39.2889 90.0939 39.3149 89.6103 39.3227 89.0747C39.326 88.4783 39.3738 87.883 39.4657 87.2937C39.5827 86.6125 39.6451 85.7337 39.0939 85.2137C39.0583 85.1706 39.0136 85.136 38.9631 85.1122C38.9125 85.0884 38.8573 85.0761 38.8014 85.0761C38.7455 85.0761 38.6904 85.0884 38.6398 85.1122C38.5892 85.136 38.5445 85.1706 38.5089 85.2137C38.4071 85.3371 38.3487 85.4906 38.3425 85.6505C38.2385 86.5267 38.4985 87.4705 38.6415 88.3181C38.7754 89.1092 38.9603 89.8909 39.1953 90.6581C39.0575 90.9623 38.9353 91.2769 38.8079 91.5811L38.6103 91.2769C38.3789 90.9155 38.1319 88.7991 37.8667 87.8085C37.6015 86.8179 36.6655 86.3057 36.7227 87.4757C36.7799 88.6457 38.3347 90.9909 38.3347 90.9909L38.7741 91.6721C38.3061 92.8811 37.9941 93.9497 37.9941 93.9497L38.3607 94.1967C38.3607 94.1967 38.2697 93.4167 38.9067 91.7709C39.1208 91.6413 39.3495 91.5375 39.5879 91.4615C40.8879 91.0247 42.7079 91.4823 43.6127 90.1901C43.8285 89.8781 43.8233 89.4101 43.4047 89.2983C43.0714 89.2673 42.7383 89.3598 42.4687 89.5583C41.6497 90.0939 40.9763 90.6997 40.0221 91.0091C39.9779 91.0247 39.3591 91.2821 39.0367 91.4589C39.1303 91.2353 39.2369 90.9935 39.3591 90.7413C39.6498 90.4557 39.9637 90.1948 40.2977 89.9613C41.1843 89.3347 42.3179 89.1423 43.2487 88.5677C43.5321 88.3935 44.0625 87.6213 43.3397 87.6447C43.0173 87.6447 42.5415 88.0009 42.2555 88.1413C41.4078 88.5041 40.6266 89.0059 39.9441 89.6259C39.9831 89.5557 40.0221 89.4829 40.0637 89.4127C40.7266 88.8057 41.4369 88.2528 42.1879 87.7591C43.4359 86.9583 44.6007 86.5319 44.7879 85.9391C44.9751 85.3463 43.4879 85.9937 42.0631 87.0441C41.419 87.5266 40.8593 88.1127 40.4069 88.7783C40.8125 88.0711 41.2337 87.3613 41.6419 86.6827C42.1255 86.0116 42.7572 85.4609 43.4879 85.0733C44.6579 84.5065 45.6069 84.0333 45.9761 83.2533C46.3453 82.4733 45.8903 82.6137 44.7151 83.6017C43.9091 84.2803 42.8093 85.1461 42.1359 85.9027C42.4635 85.3827 42.7755 84.8627 43.0589 84.4181C43.6738 83.7355 44.3727 83.1336 45.1389 82.6267C46.2439 81.9637 46.7717 81.4827 46.3297 81.3033C46.0229 81.1785 44.7489 82.1457 43.8207 83.2013L44.3693 82.3615C44.4213 82.2835 44.4759 82.1977 44.5305 82.1015C45.3678 81.4335 46.1624 80.7136 46.9095 79.9461C48.2225 78.5863 48.9271 77.1589 48.1679 77.6451Z" fill="#E3887B"/>
<path opacity="0.6" d="M48.1679 77.6451C47.4737 78.0923 45.7135 80.7989 44.5903 81.9897C44.7203 81.7661 44.8503 81.5165 44.9803 81.2695C45.1545 81.0433 45.3625 80.8249 45.5003 80.6117C45.7213 80.2841 45.9293 79.9487 46.1191 79.6029C46.4215 79.065 46.6598 78.4934 46.8289 77.8999C47.0432 77.2079 47.0487 76.4681 46.8445 75.7731C46.7899 75.5963 46.4441 74.5277 46.1295 74.9385C46.0829 75.0073 46.0551 75.0871 46.0489 75.1699C45.9163 75.9499 45.9943 76.7299 45.9527 77.5333C45.8929 78.7189 45.1883 80.5389 44.8711 81.3085C44.8035 81.4229 44.7177 81.5685 44.6111 81.7349C45.1311 80.3855 44.9933 78.5733 44.5201 78.1261C43.9325 77.5749 44.2107 79.1661 44.3953 80.5285C44.4943 81.1335 44.4452 81.7536 44.2523 82.3355C44.0287 82.7021 43.7765 83.1155 43.5191 83.5341L43.3917 83.7005C43.545 83.4219 43.6646 83.126 43.7479 82.8191C43.9221 82.0105 43.4879 80.1619 42.8145 80.2191C42.1411 80.2763 42.9263 81.3995 43.1889 82.5305C43.3187 83.1495 43.2533 83.7936 43.0017 84.3739L42.9549 84.4753C42.8327 84.6651 42.7157 84.8471 42.6013 85.0187C42.3413 85.4243 42.0813 85.7987 41.8421 86.1757C42.1643 85.6291 42.406 85.0389 42.5597 84.4233C42.8197 83.2351 42.4479 81.9403 41.9227 81.6283C41.3975 81.3163 41.9227 83.5237 41.9929 84.6937C42.0108 85.3736 41.8541 86.0467 41.5379 86.6489C41.1999 87.1689 40.8723 87.6889 40.5317 88.2557C40.801 87.478 41.0071 86.6798 41.1479 85.8689C41.4079 84.5429 40.8723 83.4925 40.3315 83.3755C39.7907 83.2585 40.1339 84.1555 40.4511 85.9443C40.6196 86.8875 40.538 87.8583 40.2145 88.7601C40.0715 88.9941 39.9285 89.2359 39.7777 89.4881C39.6269 89.7403 39.4449 90.0939 39.2889 90.4267C39.2889 90.0939 39.3149 89.6103 39.3227 89.0747C39.326 88.4783 39.3738 87.883 39.4657 87.2937C39.5827 86.6125 39.6451 85.7337 39.0939 85.2137C39.0583 85.1706 39.0136 85.136 38.9631 85.1122C38.9125 85.0884 38.8573 85.0761 38.8014 85.0761C38.7455 85.0761 38.6904 85.0884 38.6398 85.1122C38.5892 85.136 38.5445 85.1706 38.5089 85.2137C38.4071 85.3371 38.3487 85.4906 38.3425 85.6505C38.2385 86.5267 38.4985 87.4705 38.6415 88.3181C38.7754 89.1092 38.9603 89.8909 39.1953 90.6581C39.0575 90.9623 38.9353 91.2769 38.8079 91.5811L38.6103 91.2769C38.3789 90.9155 38.1319 88.7991 37.8667 87.8085C37.6015 86.8179 36.6655 86.3057 36.7227 87.4757C36.7799 88.6457 38.3347 90.9909 38.3347 90.9909L38.7741 91.6721C38.3061 92.8811 37.9941 93.9497 37.9941 93.9497L38.3607 94.1967C38.3607 94.1967 38.2697 93.4167 38.9067 91.7709C39.1208 91.6413 39.3495 91.5375 39.5879 91.4615C40.8879 91.0247 42.7079 91.4823 43.6127 90.1901C43.8285 89.8781 43.8233 89.4101 43.4047 89.2983C43.0714 89.2673 42.7383 89.3598 42.4687 89.5583C41.6497 90.0939 40.9763 90.6997 40.0221 91.0091C39.9779 91.0247 39.3591 91.2821 39.0367 91.4589C39.1303 91.2353 39.2369 90.9935 39.3591 90.7413C39.6498 90.4557 39.9637 90.1948 40.2977 89.9613C41.1843 89.3347 42.3179 89.1423 43.2487 88.5677C43.5321 88.3935 44.0625 87.6213 43.3397 87.6447C43.0173 87.6447 42.5415 88.0009 42.2555 88.1413C41.4078 88.5041 40.6266 89.0059 39.9441 89.6259C39.9831 89.5557 40.0221 89.4829 40.0637 89.4127C40.7266 88.8057 41.4369 88.2528 42.1879 87.7591C43.4359 86.9583 44.6007 86.5319 44.7879 85.9391C44.9751 85.3463 43.4879 85.9937 42.0631 87.0441C41.419 87.5266 40.8593 88.1127 40.4069 88.7783C40.8125 88.0711 41.2337 87.3613 41.6419 86.6827C42.1255 86.0116 42.7572 85.4609 43.4879 85.0733C44.6579 84.5065 45.6069 84.0333 45.9761 83.2533C46.3453 82.4733 45.8903 82.6137 44.7151 83.6017C43.9091 84.2803 42.8093 85.1461 42.1359 85.9027C42.4635 85.3827 42.7755 84.8627 43.0589 84.4181C43.6738 83.7355 44.3727 83.1336 45.1389 82.6267C46.2439 81.9637 46.7717 81.4827 46.3297 81.3033C46.0229 81.1785 44.7489 82.1457 43.8207 83.2013L44.3693 82.3615C44.4213 82.2835 44.4759 82.1977 44.5305 82.1015C45.3678 81.4335 46.1624 80.7136 46.9095 79.9461C48.2225 78.5863 48.9271 77.1589 48.1679 77.6451Z" fill="white"/>
<path d="M55.7912 77.7153C55.0944 78.1651 53.3342 80.8717 52.211 82.0599C52.341 81.8389 52.471 81.5893 52.601 81.3397C52.7752 81.1161 52.9832 80.8951 53.121 80.6845C53.342 80.3569 53.55 80.0215 53.7398 79.6757C54.0417 79.1376 54.2799 78.5661 54.4496 77.9727C54.6635 77.2808 54.6698 76.5414 54.4678 75.8459C54.4106 75.6691 54.0648 74.6005 53.7502 75.0087C53.7039 75.0786 53.6761 75.1592 53.6696 75.2427C53.5396 76.0227 53.615 76.8027 53.5734 77.6035C53.5136 78.7917 52.809 80.6117 52.4918 81.3813C52.4242 81.4957 52.3384 81.6413 52.2318 81.8077C52.7518 80.4557 52.6166 78.6435 52.1408 78.1989C51.5532 77.6477 51.8314 79.2389 52.016 80.6013C52.1165 81.2055 52.0674 81.825 51.873 82.4057C51.6494 82.7749 51.3972 83.1857 51.1398 83.6069C51.0956 83.6615 51.054 83.7187 51.0124 83.7733C51.1567 83.4935 51.2675 83.1977 51.3426 82.8919C51.5194 82.0833 51.0826 80.2347 50.4092 80.2919C49.7358 80.3491 50.521 81.4723 50.7836 82.6033C50.9136 83.2215 50.8482 83.8648 50.5964 84.4441L50.5496 84.5481C50.4274 84.7353 50.3104 84.9199 50.196 85.0915C49.936 85.4945 49.676 85.8715 49.4368 86.2485C49.7594 85.7012 50.0011 85.1101 50.1544 84.4935C50.4144 83.3079 50.0426 82.0131 49.5174 81.7011C48.9922 81.3891 49.5304 83.5965 49.5876 84.7665C49.6054 85.4464 49.4488 86.1196 49.1326 86.7217C48.7946 87.2417 48.467 87.7617 48.1264 88.3285C48.3988 87.5519 48.6083 86.7546 48.753 85.9443C49.013 84.6183 48.4774 83.5679 47.9366 83.4509C47.3958 83.3339 47.739 84.2309 48.0588 86.0197C48.2251 86.9632 48.1426 87.9337 47.8196 88.8355C47.6766 89.0695 47.5336 89.3113 47.3828 89.5635C47.232 89.8157 47.05 90.1693 46.894 90.4995C46.894 90.1693 46.92 89.6857 46.9278 89.1475C46.9311 88.552 46.9789 87.9576 47.0708 87.3691C47.1878 86.6879 47.2502 85.8091 46.699 85.2891C46.6633 85.2461 46.6187 85.2114 46.5681 85.1876C46.5175 85.1638 46.4623 85.1515 46.4065 85.1515C46.3506 85.1515 46.2954 85.1638 46.2448 85.1876C46.1943 85.2114 46.1496 85.2461 46.114 85.2891C46.0122 85.4126 45.9537 85.566 45.9476 85.7259C45.8436 86.5995 46.1036 87.5459 46.2466 88.3935C46.3805 89.1795 46.5655 89.956 46.8004 90.7179C46.6626 91.0247 46.5404 91.3367 46.413 91.6435L46.2154 91.3367C45.984 90.9753 45.737 88.8615 45.4718 87.8709C45.2066 86.8803 44.2706 86.3681 44.3278 87.5381C44.385 88.7081 45.9398 91.0507 45.9398 91.0507L46.3792 91.7319C45.9112 92.9435 45.5992 94.0121 45.5992 94.0121L45.9658 94.2591C45.9658 94.2591 45.8748 93.4791 46.5118 91.8333C46.7224 91.7137 46.9456 91.6178 47.1774 91.5473C48.4774 91.1105 50.2974 91.5707 51.2022 90.2785C51.418 89.9639 51.4128 89.4855 50.9942 89.3867C50.6607 89.3544 50.3272 89.4471 50.0582 89.6467C49.2392 90.1823 48.5658 90.7881 47.6116 91.0975C47.5674 91.1105 46.9486 91.3705 46.6262 91.5473C46.7198 91.3211 46.8264 91.0819 46.9486 90.8271C47.2398 90.5422 47.5537 90.2813 47.8872 90.0471C48.7764 89.4205 49.9074 89.2281 50.8382 88.6535C51.1242 88.4793 51.652 87.7071 50.9292 87.7279C50.6068 87.7279 50.131 88.0867 49.845 88.2245C48.9977 88.5892 48.2166 89.0918 47.5336 89.7117L47.6532 89.4959C48.32 88.8933 49.0338 88.3447 49.7878 87.8553C51.0358 87.0519 52.2006 86.6281 52.3878 86.0353C52.575 85.4425 51.0878 86.0899 49.663 87.1403C49.0188 87.6229 48.4592 88.2089 48.0068 88.8745C48.4124 88.1673 48.8336 87.4575 49.2418 86.7763C49.723 86.104 50.3518 85.5507 51.08 85.1591C52.25 84.5923 53.199 84.1191 53.5682 83.3261C53.9374 82.5331 53.4824 82.6839 52.3072 83.6745C51.5012 84.3505 50.4014 85.2189 49.728 85.9755C50.0556 85.4425 50.3676 84.9355 50.651 84.4883C51.2667 83.8074 51.9655 83.2064 52.731 82.6995C53.836 82.0339 54.3638 81.5555 53.9218 81.3761C53.615 81.2513 52.341 82.2185 51.4128 83.2741C51.6728 82.8919 51.8496 82.6033 51.9614 82.4343C52.0134 82.3563 52.068 82.2705 52.1226 82.1743C52.9604 81.507 53.7558 80.788 54.5042 80.0215C55.8406 78.6591 56.5452 77.2317 55.7912 77.7153Z" fill="#E3887B"/>
<path opacity="0.6" d="M55.7912 77.7153C55.0944 78.1651 53.3342 80.8717 52.211 82.0599C52.341 81.8389 52.471 81.5893 52.601 81.3397C52.7752 81.1161 52.9832 80.8951 53.121 80.6845C53.342 80.3569 53.55 80.0215 53.7398 79.6757C54.0417 79.1376 54.2799 78.5661 54.4496 77.9727C54.6635 77.2808 54.6698 76.5414 54.4678 75.8459C54.4106 75.6691 54.0648 74.6005 53.7502 75.0087C53.7039 75.0786 53.6761 75.1592 53.6696 75.2427C53.5396 76.0227 53.615 76.8027 53.5734 77.6035C53.5136 78.7917 52.809 80.6117 52.4918 81.3813C52.4242 81.4957 52.3384 81.6413 52.2318 81.8077C52.7518 80.4557 52.6166 78.6435 52.1408 78.1989C51.5532 77.6477 51.8314 79.2389 52.016 80.6013C52.1165 81.2055 52.0674 81.825 51.873 82.4057C51.6494 82.7749 51.3972 83.1857 51.1398 83.6069C51.0956 83.6615 51.054 83.7187 51.0124 83.7733C51.1567 83.4935 51.2675 83.1977 51.3426 82.8919C51.5194 82.0833 51.0826 80.2347 50.4092 80.2919C49.7358 80.3491 50.521 81.4723 50.7836 82.6033C50.9136 83.2215 50.8482 83.8648 50.5964 84.4441L50.5496 84.5481C50.4274 84.7353 50.3104 84.9199 50.196 85.0915C49.936 85.4945 49.676 85.8715 49.4368 86.2485C49.7594 85.7012 50.0011 85.1101 50.1544 84.4935C50.4144 83.3079 50.0426 82.0131 49.5174 81.7011C48.9922 81.3891 49.5304 83.5965 49.5876 84.7665C49.6054 85.4464 49.4488 86.1196 49.1326 86.7217C48.7946 87.2417 48.467 87.7617 48.1264 88.3285C48.3988 87.5519 48.6083 86.7546 48.753 85.9443C49.013 84.6183 48.4774 83.5679 47.9366 83.4509C47.3958 83.3339 47.739 84.2309 48.0588 86.0197C48.2251 86.9632 48.1426 87.9337 47.8196 88.8355C47.6766 89.0695 47.5336 89.3113 47.3828 89.5635C47.232 89.8157 47.05 90.1693 46.894 90.4995C46.894 90.1693 46.92 89.6857 46.9278 89.1475C46.9311 88.552 46.9789 87.9576 47.0708 87.3691C47.1878 86.6879 47.2502 85.8091 46.699 85.2891C46.6633 85.2461 46.6187 85.2114 46.5681 85.1876C46.5175 85.1638 46.4623 85.1515 46.4065 85.1515C46.3506 85.1515 46.2954 85.1638 46.2448 85.1876C46.1943 85.2114 46.1496 85.2461 46.114 85.2891C46.0122 85.4126 45.9537 85.566 45.9476 85.7259C45.8436 86.5995 46.1036 87.5459 46.2466 88.3935C46.3805 89.1795 46.5655 89.956 46.8004 90.7179C46.6626 91.0247 46.5404 91.3367 46.413 91.6435L46.2154 91.3367C45.984 90.9753 45.737 88.8615 45.4718 87.8709C45.2066 86.8803 44.2706 86.3681 44.3278 87.5381C44.385 88.7081 45.9398 91.0507 45.9398 91.0507L46.3792 91.7319C45.9112 92.9435 45.5992 94.0121 45.5992 94.0121L45.9658 94.2591C45.9658 94.2591 45.8748 93.4791 46.5118 91.8333C46.7224 91.7137 46.9456 91.6178 47.1774 91.5473C48.4774 91.1105 50.2974 91.5707 51.2022 90.2785C51.418 89.9639 51.4128 89.4855 50.9942 89.3867C50.6607 89.3544 50.3272 89.4471 50.0582 89.6467C49.2392 90.1823 48.5658 90.7881 47.6116 91.0975C47.5674 91.1105 46.9486 91.3705 46.6262 91.5473C46.7198 91.3211 46.8264 91.0819 46.9486 90.8271C47.2398 90.5422 47.5537 90.2813 47.8872 90.0471C48.7764 89.4205 49.9074 89.2281 50.8382 88.6535C51.1242 88.4793 51.652 87.7071 50.9292 87.7279C50.6068 87.7279 50.131 88.0867 49.845 88.2245C48.9977 88.5892 48.2166 89.0918 47.5336 89.7117L47.6532 89.4959C48.32 88.8933 49.0338 88.3447 49.7878 87.8553C51.0358 87.0519 52.2006 86.6281 52.3878 86.0353C52.575 85.4425 51.0878 86.0899 49.663 87.1403C49.0188 87.6229 48.4592 88.2089 48.0068 88.8745C48.4124 88.1673 48.8336 87.4575 49.2418 86.7763C49.723 86.104 50.3518 85.5507 51.08 85.1591C52.25 84.5923 53.199 84.1191 53.5682 83.3261C53.9374 82.5331 53.4824 82.6839 52.3072 83.6745C51.5012 84.3505 50.4014 85.2189 49.728 85.9755C50.0556 85.4425 50.3676 84.9355 50.651 84.4883C51.2667 83.8074 51.9655 83.2064 52.731 82.6995C53.836 82.0339 54.3638 81.5555 53.9218 81.3761C53.615 81.2513 52.341 82.2185 51.4128 83.2741C51.6728 82.8919 51.8496 82.6033 51.9614 82.4343C52.0134 82.3563 52.068 82.2705 52.1226 82.1743C52.9604 81.507 53.7558 80.788 54.5042 80.0215C55.8406 78.6591 56.5452 77.2317 55.7912 77.7153Z" fill="white"/>
<path d="M136.685 28.4712C136.685 28.4712 135.689 25.6112 132.824 25.4838C129.959 25.3564 130.458 28.0994 128.466 28.8456C126.475 29.5918 125.726 27.4754 123.981 27.9746C122.237 28.4738 123.36 29.8414 121.865 30.3406C120.37 30.8398 120.495 29.4696 118.254 30.6006C116.012 31.7316 115.513 32.0956 115.014 32.2204C114.515 32.3452 110.032 33.0914 110.032 33.0914H141.045C141.045 33.0914 141.919 30.351 140.174 29.2304C138.43 28.1098 138.554 29.4696 136.685 28.4712Z" fill="#E3887B"/>
<path opacity="0.7" d="M136.685 28.4712C136.685 28.4712 135.689 25.6112 132.824 25.4838C129.959 25.3564 130.458 28.0994 128.466 28.8456C126.475 29.5918 125.726 27.4754 123.981 27.9746C122.237 28.4738 123.36 29.8414 121.865 30.3406C120.37 30.8398 120.495 29.4696 118.254 30.6006C116.012 31.7316 115.513 32.0956 115.014 32.2204C114.515 32.3452 110.032 33.0914 110.032 33.0914H141.045C141.045 33.0914 141.919 30.351 140.174 29.2304C138.43 28.1098 138.554 29.4696 136.685 28.4712Z" fill="white"/>
<path d="M79.6981 23.8433C79.6981 23.8433 79.0923 22.1065 77.3581 22.0233C75.6239 21.9401 75.9255 23.6067 74.7165 24.0617C73.5075 24.5167 73.0551 23.2297 71.9969 23.5417C70.9387 23.8537 71.6199 24.6753 70.7151 24.9769C69.8103 25.2785 69.8831 24.4569 68.5233 25.1277C67.1635 25.7985 66.8645 26.0351 66.5603 26.1105C66.2561 26.1859 63.5417 26.6305 63.5417 26.6305H82.3423C82.3423 26.6305 82.8623 24.9691 81.8223 24.2905C80.7823 23.6119 80.8291 24.4465 79.6981 23.8433Z" fill="#E3887B"/>
<path opacity="0.8" d="M79.6981 23.8433C79.6981 23.8433 79.0923 22.1065 77.3581 22.0233C75.6239 21.9401 75.9255 23.6067 74.7165 24.0617C73.5075 24.5167 73.0551 23.2297 71.9969 23.5417C70.9387 23.8537 71.6199 24.6753 70.7151 24.9769C69.8103 25.2785 69.8831 24.4569 68.5233 25.1277C67.1635 25.7985 66.8645 26.0351 66.5603 26.1105C66.2561 26.1859 63.5417 26.6305 63.5417 26.6305H82.3423C82.3423 26.6305 82.8623 24.9691 81.8223 24.2905C80.7823 23.6119 80.8291 24.4465 79.6981 23.8433Z" fill="white"/>
<path d="M48.0718 54.37C48.0718 54.37 47.258 52.03 44.9206 51.9312C42.5832 51.8324 42.9862 54.0658 41.3612 54.6768C39.7362 55.2878 39.1226 53.5562 37.7004 53.9644C36.2782 54.3726 37.1804 55.488 35.9714 55.8962C34.7624 56.3044 34.8534 55.1838 33.023 56.099C31.1926 57.0142 30.787 57.3184 30.3788 57.4224C29.9706 57.5264 26.3124 58.1322 26.3124 58.1322H51.6312C51.6312 58.1322 52.341 55.8962 50.9188 54.981C49.4966 54.0658 49.5954 55.189 48.0718 54.37Z" fill="#E3887B"/>
<g opacity="0.7">
<path d="M48.0718 54.37C48.0718 54.37 47.258 52.03 44.9206 51.9312C42.5832 51.8324 42.9862 54.0658 41.3612 54.6768C39.7362 55.2878 39.1226 53.5562 37.7004 53.9644C36.2782 54.3726 37.1804 55.488 35.9714 55.8962C34.7624 56.3044 34.8534 55.1838 33.023 56.099C31.1926 57.0142 30.787 57.3184 30.3788 57.4224C29.9706 57.5264 26.3124 58.1322 26.3124 58.1322H51.6312C51.6312 58.1322 52.341 55.8962 50.9188 54.981C49.4966 54.0658 49.5954 55.189 48.0718 54.37Z" fill="white"/>
</g>
<path d="M78.146 100.78C93.3756 100.78 105.722 99.9047 105.722 98.8248C105.722 97.745 93.3756 96.8696 78.146 96.8696C62.9164 96.8696 50.5704 97.745 50.5704 98.8248C50.5704 99.9047 62.9164 100.78 78.146 100.78Z" fill="#E3887B"/>
<path d="M103.985 97.5248C112.619 97.5248 119.619 97.0871 119.619 96.5472C119.619 96.0073 112.619 95.5696 103.985 95.5696C95.3504 95.5696 88.351 96.0073 88.351 96.5472C88.351 97.0871 95.3504 97.5248 103.985 97.5248Z" fill="#E3887B"/>
<g opacity="0.6">
<path d="M78.146 100.78C93.3756 100.78 105.722 99.9047 105.722 98.8248C105.722 97.745 93.3756 96.8696 78.146 96.8696C62.9164 96.8696 50.5704 97.745 50.5704 98.8248C50.5704 99.9047 62.9164 100.78 78.146 100.78Z" fill="white"/>
<path d="M103.985 97.5248C112.619 97.5248 119.619 97.0871 119.619 96.5472C119.619 96.0073 112.619 95.5696 103.985 95.5696C95.3504 95.5696 88.351 96.0073 88.351 96.5472C88.351 97.0871 95.3504 97.5248 103.985 97.5248Z" fill="white"/>
</g>
<path d="M77.9458 69.6711L82.7948 66.1975" stroke="#263238" stroke-width="0.835087" stroke-linecap="round" stroke-linejoin="round"/>
<path d="M93.2728 93.8016L92.9998 96.8826C92.9998 96.8826 91.6192 97.4884 91.6218 97.6912C91.6244 97.894 91.8818 98.1722 93.0076 98.1722C94.1334 98.1722 94.5 97.7458 94.5 97.426C94.5 97.1062 96.8972 94.4412 96.8972 94.4412C96.956 94.2812 96.9723 94.1088 96.9445 93.9406C96.9167 93.7724 96.8457 93.6144 96.7386 93.4818C96.3642 93.0554 95.085 93.0034 95.085 93.0034L93.2728 93.8016Z" fill="#E3887B"/>
<path d="M91.6244 97.8967C91.6244 97.8967 93.499 97.7745 94.0008 97.4885C94.5026 97.2025 96.2888 94.4829 96.4318 94.2671C96.5253 94.0909 96.5744 93.8945 96.5748 93.6951" stroke="#263238" stroke-width="0.417543" stroke-linecap="round" stroke-linejoin="round"/>
<path d="M95.6752 93.0476C95.6752 93.0476 97.1962 93.3362 97.0506 93.9888C96.905 94.6414 94.5182 97.5352 94.1568 97.8888C93.7954 98.2424 91.5568 98.2502 91.6244 97.8888C91.692 97.5274 92.9998 96.8748 92.9998 96.8748L93.434 94.2748" stroke="#263238" stroke-width="0.835087" stroke-linecap="round" stroke-linejoin="round"/>
<path d="M63.6432 96.3054L59.166 98.492C59.166 98.492 58.581 98.9184 59.7536 98.9184C60.9262 98.9184 67.1064 98.9704 67.1064 98.9704C67.1064 98.9704 67.8006 99.1316 67.9592 98.8118C68.2192 98.2918 68.3336 97.959 68.1724 97.7978C68.0112 97.6366 63.6432 96.3054 63.6432 96.3054Z" fill="#E3887B"/>
<path d="M59.5872 98.4165H67.5302" stroke="#263238" stroke-width="0.417543" stroke-linecap="round" stroke-linejoin="round"/>
<path d="M63.3416 96.5835C63.3416 96.5835 58.7812 98.5387 58.854 98.7545C58.9268 98.9703 63.4846 98.9729 65.2214 98.9729C66.9582 98.9729 68.1906 99.0457 68.1906 98.6115" stroke="#263238" stroke-width="0.835087" stroke-linecap="round" stroke-linejoin="round"/>
<path d="M95.6752 93.0476L80.6238 82.047L80.1038 70.9736C79.5491 71.4618 78.923 71.8625 78.2474 72.1618C77.3166 72.518 71.9242 75.2428 71.9242 75.2428C71.9242 75.2428 74.3136 83.711 74.7478 84.4364C75.182 85.1618 93.421 94.2774 93.421 94.2774L95.6752 93.0476Z" fill="#263238"/>
<path d="M68.188 98.1775C68.188 98.1775 67.6082 98.0319 66.9582 97.8863C66.3082 97.7407 63.339 96.5863 63.339 96.5863C63.2802 96.3501 63.2557 96.1066 63.2662 95.8635C63.2738 95.7067 63.3169 95.5537 63.3921 95.4159C63.4673 95.2781 63.5727 95.1591 63.7004 95.0679C63.7004 95.0679 52.4086 80.0139 52.12 79.5797C51.8314 79.1455 52.0472 78.4201 54.0024 76.9017C55.9576 75.3833 68.7496 67.5755 68.7496 67.5755C68.2582 66.9931 69.1838 66.6343 69.1838 66.6343L70.3434 66.9957L77.9432 69.6737L80.9826 67.6483C80.9826 67.6483 81.4896 69.5281 79.6072 70.9763C77.7248 72.4245 60.5154 80.0763 60.5154 80.0763L60.2294 80.0945L67.9722 97.0101C67.9722 97.0101 68.4922 97.9357 68.188 98.1775Z" fill="#263238"/>
<path d="M58.5862 78.1704L60.0162 79.9592L59.4442 77.5984" stroke="white" stroke-width="0.835087" stroke-linecap="round" stroke-linejoin="round"/>
<path d="M72.6808 75.3806C72.6808 75.3806 75.6136 79.9592 76.6874 80.89" stroke="white" stroke-width="0.835087" stroke-linecap="round" stroke-linejoin="round"/>
<path d="M73.1098 75.2375C73.9183 75.945 74.7787 76.5907 75.6838 77.1693" stroke="white" stroke-width="0.835087" stroke-linecap="round" stroke-linejoin="round"/>
<g style="mix-blend-mode:multiply">
<path d="M78.2526 50.9978L68.097 57.919L70.3174 67.071L77.8548 69.5982L87.9116 62.4326L86.6974 53.226L78.2526 50.9978Z" fill="#E3887B"/>
</g>
<path d="M68.1516 57.9189L68.7964 60.7789" stroke="#263238" stroke-width="0.835087" stroke-linecap="round" stroke-linejoin="round"/>
<path d="M69.332 62.8667L70.346 66.9929L77.9458 69.6709L77.0046 62.8667" stroke="#263238" stroke-width="0.835087" stroke-linecap="round" stroke-linejoin="round"/>
<path d="M76.9318 62.2895L76.6432 60.5527" stroke="#263238" stroke-width="0.835087" stroke-linecap="round" stroke-linejoin="round"/>
<path d="M85.907 64.0265L87.9324 62.5055L86.9184 53.8943" stroke="#263238" stroke-width="0.835087" stroke-linecap="round" stroke-linejoin="round"/>
<path d="M77.6546 60.0459L83.1562 55.9197" stroke="#263238" stroke-width="0.835087" stroke-linecap="round" stroke-linejoin="round"/>
<path d="M82.8676 52.2276L78.3072 50.9978L68.318 57.802" stroke="#263238" stroke-width="0.835087" stroke-linecap="round" stroke-linejoin="round"/>
<path d="M68.3908 58.0906L69.9118 58.5248" stroke="#263238" stroke-width="0.835087" stroke-linecap="round" stroke-linejoin="round"/>
<path d="M72.517 59.1045L76.6432 60.2615" stroke="#263238" stroke-width="0.835087" stroke-linecap="round" stroke-linejoin="round"/>
<path d="M82.1422 52.0847L75.9178 56.8609" stroke="#263238" stroke-width="0.417543" stroke-linecap="round" stroke-linejoin="round"/>
<path d="M75.4108 57.2949L73.167 59.0317" stroke="#263238" stroke-width="0.417543" stroke-linecap="round" stroke-linejoin="round"/>
<path d="M82.2982 48.0909C82.2982 48.0909 83.879 61.1299 83.879 61.7097C83.879 62.2895 82.4308 62.5781 82.4308 63.3009C82.3902 63.8936 82.2686 64.478 82.0694 65.0377C82.0694 65.0377 81.7808 65.3289 81.7808 65.5577C81.7808 65.7865 82.2878 65.7033 82.722 65.4875C83.1562 65.2717 83.2992 64.4735 83.2992 64.4735C83.1998 64.9518 83.1278 65.4353 83.0834 65.9217L82.7948 66.2103C82.7948 66.2103 81.9264 67.0059 82.5036 67.0787C83.0808 67.1515 85.7614 66.1375 85.907 65.4875C86.0526 64.8375 85.543 61.7227 85.543 61.7227C85.543 61.7227 87.6438 47.0301 87.6438 45.6547C87.6539 45.2703 87.5489 44.8917 87.3422 44.5674C87.1356 44.2431 86.8368 43.988 86.4842 43.8347" fill="white"/>
<mask id="mask0_14_2289" style="mask-type:luminance" maskUnits="userSpaceOnUse" x="81" y="43" width="7" height="25">
<path d="M82.2982 48.0909C82.2982 48.0909 83.879 61.1299 83.879 61.7097C83.879 62.2895 82.4308 62.5781 82.4308 63.3009C82.3902 63.8936 82.2686 64.478 82.0694 65.0377C82.0694 65.0377 81.7808 65.3289 81.7808 65.5577C81.7808 65.7865 82.2878 65.7033 82.722 65.4875C83.1562 65.2717 83.2992 64.4735 83.2992 64.4735C83.1998 64.9518 83.1278 65.4353 83.0834 65.9217L82.7948 66.2103C82.7948 66.2103 81.9264 67.0059 82.5036 67.0787C83.0808 67.1515 85.7614 66.1375 85.907 65.4875C86.0526 64.8375 85.543 61.7227 85.543 61.7227C85.543 61.7227 87.6438 47.0301 87.6438 45.6547C87.6539 45.2703 87.5489 44.8917 87.3422 44.5674C87.1356 44.2431 86.8368 43.988 86.4842 43.8347" fill="white"/>
</mask>
<g mask="url(#mask0_14_2289)">
<g style="mix-blend-mode:multiply" opacity="0.3">
<path d="M87.6334 47.4852C87.3292 46.3282 86.999 44.2274 86.999 44.2274L85.621 43.8088L83.801 45.9954L85.2388 45.1114V62.4612C85.2388 63.3452 84.1338 66.7694 84.1338 66.7694C84.1338 66.7694 86.4192 66.2884 86.05 64.2084C85.6808 62.1284 85.2388 62.4612 85.9018 58.2622C86.5648 54.0632 87.948 48.65 87.6334 47.4852Z" fill="#E3887B"/>
</g>
</g>
<path d="M82.2982 48.0909C82.2982 48.0909 83.879 61.1299 83.879 61.7097C83.879 62.2895 82.4308 62.5781 82.4308 63.3009C82.3902 63.8936 82.2686 64.478 82.0694 65.0377C82.0694 65.0377 81.7808 65.3289 81.7808 65.5577C81.7808 65.7865 82.2878 65.7033 82.722 65.4875C83.1562 65.2717 83.2992 64.4735 83.2992 64.4735C83.1998 64.9518 83.1278 65.4353 83.0834 65.9217L82.7948 66.2103C82.7948 66.2103 81.9264 67.0059 82.5036 67.0787C83.0808 67.1515 85.7614 66.1375 85.907 65.4875C86.0526 64.8375 85.543 61.7227 85.543 61.7227C85.543 61.7227 87.6438 47.0301 87.6438 45.6547C87.6539 45.2703 87.5489 44.8917 87.3422 44.5674C87.1356 44.2431 86.8368 43.988 86.4842 43.8347" stroke="#263238" stroke-width="0.835087" stroke-linecap="round" stroke-linejoin="round"/>
<path d="M84.048 65.3655C84.1267 65.6744 84.1011 66.0008 83.9752 66.2937C83.8329 66.5262 83.6655 66.7425 83.476 66.9385" stroke="#263238" stroke-width="0.417543" stroke-linecap="round" stroke-linejoin="round"/>
<path d="M84.9138 65.3655C84.8711 65.6581 84.7988 65.9455 84.698 66.2235" stroke="#263238" stroke-width="0.417543" stroke-linecap="round" stroke-linejoin="round"/>
<path d="M85.5586 65.1497C85.5148 65.442 85.4426 65.7294 85.3428 66.0077" stroke="#263238" stroke-width="0.417543" stroke-linecap="round" stroke-linejoin="round"/>
<path d="M62.1768 38.0523C62.0936 37.3035 60.596 35.8891 58.516 35.4731C56.436 35.0571 54.187 35.0571 53.355 35.7331C53.043 35.9801 52.835 36.5547 52.6998 37.1735C52.848 36.8563 53.147 36.2141 53.4564 35.9567C54.9878 34.6801 55.4142 35.4367 55.669 36.5521C55.9238 37.6675 55.5832 40.7121 55.5832 40.7121C55.5832 40.7121 52.094 41.7339 52.6036 39.9451C52.5287 39.6902 52.4765 39.4292 52.4476 39.1651C52.4476 39.2977 52.4476 39.3783 52.4476 39.3783L52.2812 40.4599L50.8668 40.7199L45.9528 40.5639C45.9528 40.5639 48.454 42.1239 49.8684 42.1239C50.7824 42.0863 51.6582 41.7471 52.3592 41.1593L61.4592 41.8535C61.4592 41.8535 62.26 38.8011 62.1768 38.0523Z" fill="#E3887B"/>
<path d="M51.5688 40.6473L45.9424 40.5615C45.9424 40.5615 47.5024 42.0331 49.5824 42.0331C51.6624 42.0331 52.354 41.1673 52.354 41.1673L61.454 41.8615C61.454 41.8615 62.6422 39.5969 62.0364 37.6079C61.4306 35.6189 55.9706 34.9507 54.4522 35.3173C52.575 35.7723 52.4502 37.3583 52.4502 38.2241C52.4365 38.8626 52.3783 39.4995 52.276 40.1299" stroke="#263238" stroke-width="0.835087" stroke-linecap="round" stroke-linejoin="round"/>
<mask id="mask1_14_2289" style="mask-type:luminance" maskUnits="userSpaceOnUse" x="51" y="41" width="11" height="12">
<path d="M52.003 41.4272C52.003 41.4272 51.0488 43.6788 51.483 44.0272C51.9172 44.3756 52.1746 44.5472 52.1746 44.5472C52.1746 44.5472 52.4346 47.5762 52.8662 48.0962C53.2978 48.6162 56.0694 47.7504 56.0694 47.7504C56.0694 47.7504 61.688 53.3742 61.87 52.3342C62.052 51.2942 61.35 47.3942 61.35 46.9678C61.35 46.5414 60.1384 45.4078 60.1384 45.4078" fill="white"/>
</mask>
<g mask="url(#mask1_14_2289)">
<g style="mix-blend-mode:multiply" opacity="0.3">
<path d="M56.8286 41.5547L53.1548 41.6197C53.1548 41.6197 52.1148 43.1667 52.3748 43.6191C52.576 43.9319 52.842 44.1979 53.1548 44.3991C53.1548 44.3991 52.8948 46.4635 53.2198 47.1733C53.5448 47.8831 56.1214 47.5581 56.1214 47.5581C55.5512 47.8953 54.9102 48.0947 54.2494 48.1405C53.0248 48.2679 52.64 48.0105 52.445 47.3007C52.25 46.5909 52.185 44.5525 52.185 44.5525L51.288 43.6191L51.9328 41.8771L52.6426 41.1699L56.8286 41.5547Z" fill="#E3887B"/>
</g>
</g>
<path d="M52.003 41.4272C52.003 41.4272 51.0488 43.6788 51.483 44.0272C51.9172 44.3756 52.1746 44.5472 52.1746 44.5472C52.1746 44.5472 52.4346 47.5762 52.8662 48.0962C53.2978 48.6162 56.0694 47.7504 56.0694 47.7504C56.0694 47.7504 61.688 53.3742 61.87 52.3342C62.052 51.2942 61.35 47.3942 61.35 46.9678C61.35 46.5414 60.1384 45.4078 60.1384 45.4078" stroke="#263238" stroke-width="0.835087" stroke-linecap="round" stroke-linejoin="round"/>
<path d="M57.0236 41.5129C57.0236 41.5129 57.1952 42.2929 57.7152 42.3787C58.2352 42.4645 58.6668 41.5987 58.6668 41.5987L57.0236 41.5129Z" fill="#263238"/>
<path d="M61.428 41.8613C61.428 41.8613 61.948 43.4213 61.3396 44.2845C60.7312 45.1477 60.4764 45.1503 60.4764 45.1503C59.9564 46.0161 58.5706 44.1103 58.5706 44.1103C58.5706 44.1103 59.6106 44.0635 59.8706 43.3719C60.1306 42.6803 59.7666 41.6689 59.7666 41.6689L61.428 41.8613Z" fill="#263238"/>
<path d="M59.868 41.8613C59.868 41.8613 60.128 43.0729 59.868 43.6813C59.608 44.2897 58.568 44.1129 58.568 44.1129L58.048 45.4129" stroke="#263238" stroke-width="0.835087" stroke-linecap="round" stroke-linejoin="round"/>
<path d="M52.7908 45.0463C52.7908 45.0463 53.7944 45.2621 54.4366 44.1155" stroke="#263238" stroke-width="0.626315" stroke-linecap="round" stroke-linejoin="round"/>
<path d="M70.6103 50.6781L68.4828 51.4617L69.6843 54.7236L71.8118 53.94L70.6103 50.6781Z" fill="#263238"/>
<path d="M70.238 51.4077L69.2206 51.7825L69.7778 53.2951L70.7952 52.9204L70.238 51.4077Z" fill="white"/>
<path d="M69.4881 50.1804L69.0392 50.3457L69.4049 51.3387L69.8538 51.1733L69.4881 50.1804Z" fill="white" stroke="#263238" stroke-width="0.417543" stroke-linecap="round" stroke-linejoin="round"/>
<path d="M67.2598 64.4346L69.1864 66.6316" stroke="#263238" stroke-width="0.835087" stroke-linecap="round" stroke-linejoin="round"/>
<mask id="mask2_14_2289" style="mask-type:luminance" maskUnits="userSpaceOnUse" x="78" y="22" width="54" height="71">
<path d="M78.6426 41.851L79.1288 42.0382L86.0656 43.307C86.0656 43.307 87.1966 43.9024 87.5944 44.5368C87.9922 45.1712 87.6334 47.4852 87.6334 47.4852L86.908 52.9296L88.0702 62.69L86.0422 64.211L86.1202 65.1756C86.1748 65.1912 86.1072 66.4626 83.099 66.9956C83.099 66.9956 82.475 67.3076 82.293 67.1698C81.8328 66.824 82.202 66.8526 82.202 66.8526L80.9852 67.6326C81.0499 68.246 80.9843 68.8662 80.7928 69.4526C80.4756 70.4926 80.2572 70.6954 80.2572 70.6954L80.811 80.37L82.1448 82.2706L99.5648 92.8448H131.68V22H78.25V41.7028L78.6426 41.851Z" fill="white"/>
</mask>
<g mask="url(#mask2_14_2289)">
<path d="M87.051 37.327L85.14 38.4294L84.061 36.5444L85.9694 35.4446L87.051 37.327Z" stroke="#263238" stroke-width="0.835087" stroke-linecap="round" stroke-linejoin="round"/>
<path d="M86.4062 35.1821L83.398 36.9189L81.6066 33.6013L84.6148 31.8645L86.4062 35.1821Z" stroke="#263238" stroke-width="0.835087" stroke-linecap="round" stroke-linejoin="round"/>
<path d="M115.369 77.3348C124.402 68.3022 124.402 53.6573 115.369 44.6246C106.336 35.592 91.6915 35.592 82.6589 44.6246C73.6262 53.6573 73.6262 68.3022 82.6589 77.3348C91.6915 86.3675 106.336 86.3675 115.369 77.3348Z" fill="white"/>
<path d="M99.2164 33.8821C93.9354 33.8805 88.7726 35.4451 84.3808 38.378C79.9891 41.3108 76.5658 45.4801 74.5438 50.3587C72.5218 55.2372 71.9919 60.6058 73.0212 65.7855C74.0506 70.9652 76.5928 75.7233 80.3265 79.458C84.0601 83.1928 88.8175 85.7365 93.9969 86.7673C99.1763 87.7981 104.545 87.2698 109.424 85.2493C114.303 83.2287 118.474 79.8065 121.408 75.4157C124.342 71.0248 125.908 65.8625 125.908 60.5815C125.908 53.5017 123.096 46.7118 118.091 41.7049C113.085 36.698 106.296 33.8841 99.2164 33.8821ZM99.2164 83.7111C94.6397 83.7111 90.1658 82.3539 86.3605 79.8113C82.5551 77.2686 79.5892 73.6547 77.8378 69.4264C76.0864 65.1981 75.6281 60.5454 76.521 56.0567C77.4139 51.568 79.6177 47.4448 82.8539 44.2086C86.0901 40.9724 90.2133 38.7686 94.702 37.8757C99.1907 36.9828 103.843 37.4411 108.072 39.1925C112.3 40.9439 115.914 43.9098 118.457 47.7152C120.999 51.5205 122.356 55.9944 122.356 60.5711C122.356 63.6099 121.758 66.6189 120.595 69.4264C119.432 72.2338 117.728 74.7848 115.579 76.9335C113.43 79.0823 110.879 80.7868 108.072 81.9497C105.264 83.1125 102.255 83.7111 99.2164 83.7111Z" fill="#263238" stroke="#263238" stroke-width="0.835087" stroke-linecap="round" stroke-linejoin="round"/>
<path d="M115.599 40.442C112.938 38.2739 109.873 36.6558 106.582 35.6814" stroke="white" stroke-width="1.67017" stroke-linecap="round" stroke-linejoin="round"/>
<path d="M104.12 35.0834C103.174 34.9039 102.22 34.7764 101.26 34.7012" stroke="white" stroke-width="1.67017" stroke-linecap="round" stroke-linejoin="round"/>
<path d="M118.69 74.8554C121.81 70.596 123.448 65.4319 123.354 60.1532C123.26 54.8746 121.439 49.772 118.17 45.6262" stroke="white" stroke-width="0.835087" stroke-linecap="round" stroke-linejoin="round"/>
<path d="M115.316 78.5709C116.074 77.8938 116.788 77.1686 117.453 76.3999" stroke="white" stroke-width="0.835087" stroke-linecap="round" stroke-linejoin="round"/>
<path d="M89.4014 82.645C93.4592 84.4471 97.9348 85.0971 102.338 84.5239C106.74 83.9506 110.9 82.1761 114.361 79.395" stroke="white" stroke-width="0.835087" stroke-linecap="round" stroke-linejoin="round"/>
<path d="M85.9564 80.76C86.6786 81.2334 87.4259 81.6674 88.195 82.06" stroke="white" stroke-width="0.835087" stroke-linecap="round" stroke-linejoin="round"/>
<path d="M83.3668 78.7944C83.9757 79.3244 84.6109 79.8233 85.27 80.2894" stroke="white" stroke-width="0.835087" stroke-linecap="round" stroke-linejoin="round"/>
<path d="M92.5396 37.3738C88.4368 38.5552 84.7206 40.8033 81.7697 43.8888C78.8188 46.9744 76.7387 50.7871 75.7414 54.9385C74.744 59.0898 74.8651 63.4314 76.0923 67.5207C77.3195 71.61 79.6089 75.3009 82.7272 78.2172" stroke="white" stroke-width="0.835087" stroke-linecap="round" stroke-linejoin="round"/>
<path d="M116.288 43.5099C113.464 40.6892 109.985 38.6116 106.162 37.4624C102.34 36.3133 98.2919 36.1283 94.3804 36.9241" stroke="white" stroke-width="0.835087" stroke-linecap="round" stroke-linejoin="round"/>
<path d="M102.677 69.1328H95.7298V71.0152H102.677V69.1328Z" fill="#E3887B"/>
<path d="M101.156 60.5815C101.156 60.1278 100.997 59.6884 100.706 59.3401C100.415 58.9918 100.011 58.7567 99.5648 58.6757L99.3594 45.9695H99.0708L98.868 58.6757C98.426 58.7551 98.0254 58.9856 97.7346 59.3278C97.4438 59.67 97.2809 60.1027 97.2739 60.5517C97.2668 61.0007 97.416 61.4382 97.6959 61.7894C97.9757 62.1406 98.3689 62.3836 98.8082 62.4769L98.7354 66.9853H99.6974L99.6246 62.4769C100.058 62.3831 100.446 62.144 100.725 61.7992C101.003 61.4544 101.155 61.0247 101.156 60.5815ZM99.2164 61.6215C99.0107 61.6215 98.8096 61.5605 98.6386 61.4462C98.4676 61.3319 98.3343 61.1695 98.2556 60.9795C98.1769 60.7894 98.1563 60.5803 98.1964 60.3786C98.2365 60.1768 98.3356 59.9915 98.481 59.8461C98.6265 59.7006 98.8118 59.6016 99.0135 59.5615C99.2153 59.5213 99.4244 59.5419 99.6144 59.6206C99.8044 59.6994 99.9669 59.8327 100.081 60.0037C100.195 60.1747 100.256 60.3758 100.256 60.5815C100.256 60.7181 100.23 60.8533 100.177 60.9795C100.125 61.1056 100.048 61.2203 99.9518 61.3169C99.8552 61.4134 99.7406 61.4901 99.6144 61.5423C99.4882 61.5946 99.353 61.6215 99.2164 61.6215Z" fill="#263238"/>
<path d="M99.2164 61.6501C99.8066 61.6501 100.285 61.1717 100.285 60.5815C100.285 59.9914 99.8066 59.5129 99.2164 59.5129C98.6263 59.5129 98.1478 59.9914 98.1478 60.5815C98.1478 61.1717 98.6263 61.6501 99.2164 61.6501Z" fill="#E3887B"/>
<path d="M99.2164 38.7493V42.5999" stroke="#263238" stroke-width="3.34035" stroke-linecap="round" stroke-linejoin="round"/>
<path d="M99.2164 78.6958V82.5464" stroke="#263238" stroke-width="3.34035" stroke-linecap="round" stroke-linejoin="round"/>
<path d="M88.2678 41.6848L90.1918 45.018" stroke="#263238" stroke-width="3.34035" stroke-linecap="round" stroke-linejoin="round"/>
<path d="M108.241 76.2776L110.165 79.6134" stroke="#263238" stroke-width="3.34035" stroke-linecap="round" stroke-linejoin="round"/>
<path d="M80.252 49.698L83.5852 51.6246" stroke="#263238" stroke-width="3.34035" stroke-linecap="round" stroke-linejoin="round"/>
<path d="M114.845 69.6711L118.181 71.5977" stroke="#263238" stroke-width="3.34035" stroke-linecap="round" stroke-linejoin="round"/>
<path d="M121.114 60.6492H117.263" stroke="#263238" stroke-width="3.34035" stroke-linecap="round" stroke-linejoin="round"/>
<path d="M81.1672 60.6492H77.3166" stroke="#263238" stroke-width="3.34035" stroke-linecap="round" stroke-linejoin="round"/>
<path d="M121.114 60.6492H117.263" stroke="#263238" stroke-width="3.34035" stroke-linecap="round" stroke-linejoin="round"/>
<path d="M81.1672 60.6492H77.3166" stroke="#263238" stroke-width="3.34035" stroke-linecap="round" stroke-linejoin="round"/>
<path d="M118.181 49.698L114.845 51.6246" stroke="#263238" stroke-width="3.34035" stroke-linecap="round" stroke-linejoin="round"/>
<path d="M83.5852 69.6711L80.252 71.5977" stroke="#263238" stroke-width="3.34035" stroke-linecap="round" stroke-linejoin="round"/>
<path d="M110.165 41.6848L108.241 45.018" stroke="#263238" stroke-width="3.34035" stroke-linecap="round" stroke-linejoin="round"/>
<path d="M90.1918 76.2776L88.2678 79.6134" stroke="#263238" stroke-width="3.34035" stroke-linecap="round" stroke-linejoin="round"/>
<path d="M100.319 33.0422H98.114V34.9922H100.319V33.0422Z" stroke="#263238" stroke-width="0.835087" stroke-linecap="round" stroke-linejoin="round"/>
<path d="M100.953 27.8318H97.4796V32.9304H100.953V27.8318Z" stroke="#263238" stroke-width="0.835087" stroke-linecap="round" stroke-linejoin="round"/>
<path d="M101.676 24.2439H96.6476V27.7175H101.676V24.2439Z" fill="#E3887B"/>
<path d="M101.731 24.2439H96.7022V27.7175H101.731V24.2439Z" stroke="#263238" stroke-width="0.835087" stroke-linecap="round" stroke-linejoin="round"/>
<path d="M97.2612 26.4044V24.3218" stroke="#263238" stroke-width="0.835087" stroke-linecap="round" stroke-linejoin="round"/>
<path d="M97.2612 27.7825V26.8855" stroke="#263238" stroke-width="0.835087" stroke-linecap="round" stroke-linejoin="round"/>
<path d="M97.9008 27.7824V24.3218" stroke="#263238" stroke-width="0.835087" stroke-linecap="round" stroke-linejoin="round"/>
<path d="M98.5404 25.1876V24.3218" stroke="#263238" stroke-width="0.835087" stroke-linecap="round" stroke-linejoin="round"/>
<path d="M98.5404 27.7826V25.6038" stroke="#263238" stroke-width="0.835087" stroke-linecap="round" stroke-linejoin="round"/>
<path d="M99.5986 27.7824V24.3218" stroke="#263238" stroke-width="0.835087" stroke-linecap="round" stroke-linejoin="round"/>
</g>
<g style="mix-blend-mode:multiply" opacity="0.3">
<path d="M62.5018 51.8064L64.3712 51.9364L64.3088 51.2266C64.3088 51.2266 62.6318 51.0966 62.5018 51.8064Z" fill="#E3887B"/>
</g>
<mask id="mask3_14_2289" style="mask-type:luminance" maskUnits="userSpaceOnUse" x="55" y="51" width="7" height="17">
<path d="M58.4042 51.4319C58.4042 51.4319 55.3648 53.8941 55.3648 54.5519C55.3648 55.2097 55.1464 67.4349 55.292 67.7235C55.4376 68.0121 61.168 64.0263 61.168 64.0263L60.5882 58.7431" fill="white"/>
</mask>
<g mask="url(#mask3_14_2289)">
<g style="mix-blend-mode:multiply" opacity="0.3">
<path d="M57.3512 66.5561L61.168 64.0263L56.293 65.8853C56.293 65.8853 55.851 55.9403 56.1838 55.1681C56.5166 54.3959 58.6148 52.9581 58.6148 52.9581C58.6148 52.9581 58.49 52.1573 59.166 51.8531C59.6296 51.6799 60.1402 51.6799 60.6038 51.8531L61.0848 52.0351C60.531 51.7231 59.6366 51.0913 58.2612 49.8069H58.23L58.5628 50.1267L58.4172 51.4267L56.956 52.6201C56.6258 52.9529 55.3778 54.5389 55.3778 54.5389L55.305 67.7105L57.2888 66.4339L57.3512 66.5561Z" fill="#E3887B"/>
</g>
</g>
<path d="M58.4042 51.4319C58.4042 51.4319 55.3648 53.8941 55.3648 54.5519C55.3648 55.2097 55.1464 67.4349 55.292 67.7235C55.4376 68.0121 61.168 64.0263 61.168 64.0263L60.5882 58.7431" stroke="#263238" stroke-width="0.835087" stroke-linecap="round" stroke-linejoin="round"/>
<path d="M58.984 57.4407L65.1356 62.3625" stroke="#263238" stroke-width="0.835087" stroke-linecap="round" stroke-linejoin="round"/>
<mask id="mask4_14_2289" style="mask-type:luminance" maskUnits="userSpaceOnUse" x="63" y="40" width="23" height="10">
<path d="M63.1492 46.31C63.1492 46.31 69.1162 40.6394 69.839 40.6394C70.5618 40.6394 82.5036 43.0262 83.372 43.1718C84.2404 43.3174 85.6886 43.606 85.6886 43.606C85.6886 43.606 83.1562 46.791 82.2878 47.8752C81.4194 48.9594 80.9878 49.612 80.9878 49.612L71.217 45.127" fill="white"/>
</mask>
<g mask="url(#mask4_14_2289)">
<g style="mix-blend-mode:multiply" opacity="0.3">
<path d="M85.6209 43.8088L81.9159 42.67L69.8389 40.6394L66.7787 43.996C66.7787 43.996 69.4307 42.3398 70.2029 42.3398C70.9751 42.3398 82.6231 45.6522 83.7229 45.9616L85.6209 43.8088Z" fill="#E3887B"/>
</g>
</g>
<path d="M63.1492 46.31C63.1492 46.31 69.1162 40.6394 69.839 40.6394C70.5618 40.6394 82.5036 43.0262 83.372 43.1718C84.2404 43.3174 85.6886 43.606 85.6886 43.606C85.6886 43.606 83.1562 46.791 82.2878 47.8752C81.4194 48.9594 80.9878 49.612 80.9878 49.612L71.217 45.127" stroke="#263238" stroke-width="0.835087" stroke-linecap="round" stroke-linejoin="round"/>
<path d="M72.8784 46.2217L75.3406 52.7347" stroke="#263238" stroke-width="0.835087" stroke-linecap="round" stroke-linejoin="round"/>
<path d="M65.3514 55.9923L64.7716 56.5721L61.9506 52.9529" stroke="#263238" stroke-width="0.835087" stroke-linecap="round" stroke-linejoin="round"/>
<path d="M70.1042 46.4791L72.9668 45.9773L70.5332 47.6933" stroke="#263238" stroke-width="0.417543" stroke-linecap="round" stroke-linejoin="round"/>
<path d="M60.5752 58.7432L56.9404 58.2102" stroke="#263238" stroke-width="0.417543" stroke-linecap="round" stroke-linejoin="round"/>
<path d="M58.5498 50.1294C58.2886 50.776 58.2628 51.4938 58.477 52.1574C58.8384 53.2416 60.0682 55.124 60.0682 55.124L61.6594 52.8802" stroke="#263238" stroke-width="0.835087" stroke-linecap="round" stroke-linejoin="round"/>
<path d="M62.1664 52.0117C62.1664 52.0117 62.9646 51.2889 63.6874 51.2889H64.9172C64.9172 51.2889 64.7014 48.4653 63.6874 46.9443C62.6734 45.4233 61.298 46.2215 61.298 46.2215" stroke="#263238" stroke-width="0.835087" stroke-linecap="round" stroke-linejoin="round"/>
<path d="M60.8638 64.4607L69.5504 60.4073L70.2732 57.8749L73.2398 57.2301C73.2398 57.2301 73.8196 56.6503 73.7468 57.2301C73.674 57.8099 72.8784 58.0257 72.5898 58.6055C72.3012 59.1853 72.2986 60.3423 71.9372 60.8493C71.5758 61.3563 70.2732 61.9361 70.2732 61.9361C70.2732 61.9361 60.5024 70.1131 59.7796 70.5473C59.0568 70.9815 57.6086 66.8553 57.6086 66.8553" fill="white"/>
<mask id="mask5_14_2289" style="mask-type:luminance" maskUnits="userSpaceOnUse" x="57" y="56" width="17" height="15">
<path d="M60.8638 64.4607L69.5504 60.4073L70.2732 57.8749L73.2398 57.2301C73.2398 57.2301 73.8196 56.6503 73.7468 57.2301C73.674 57.8099 72.8784 58.0257 72.5898 58.6055C72.3012 59.1853 72.2986 60.3423 71.9372 60.8493C71.5758 61.3563 70.2732 61.9361 70.2732 61.9361C70.2732 61.9361 60.5024 70.1131 59.7796 70.5473C59.0568 70.9815 57.6086 66.8553 57.6086 66.8553" fill="white"/>
</mask>
<g mask="url(#mask5_14_2289)">
<g style="mix-blend-mode:multiply" opacity="0.3">
<path d="M57.3512 66.5562C57.6866 67.0944 59.0568 69.3226 59.153 70.1962C59.2648 71.192 60.1488 70.1962 60.1488 70.1962L68.1048 63.5688C68.1048 63.5688 60.258 68.5374 59.608 68.3165C58.958 68.0954 58.828 66.4392 58.828 66.4392L61.168 64.0265L57.3512 66.5562Z" fill="#E3887B"/>
</g>
</g>
<path d="M60.8638 64.4607L69.5504 60.4073L70.2732 57.8749L73.2398 57.2301C73.2398 57.2301 73.8196 56.6503 73.7468 57.2301C73.674 57.8099 72.8784 58.0257 72.5898 58.6055C72.3012 59.1853 72.2986 60.3423 71.9372 60.8493C71.5758 61.3563 70.2732 61.9361 70.2732 61.9361C70.2732 61.9361 60.5024 70.1131 59.7796 70.5473C59.0568 70.9815 57.6086 66.8553 57.6086 66.8553" stroke="#263238" stroke-width="0.835087" stroke-linecap="round" stroke-linejoin="round"/>
<path d="M73.2398 57.23C73.2398 57.23 71.8228 58.075 71.9658 58.361" stroke="#263238" stroke-width="0.417543" stroke-linecap="round" stroke-linejoin="round"/>
<path d="M72.1088 57.4951L71.035 58.0671" stroke="#263238" stroke-width="0.417543" stroke-linecap="round" stroke-linejoin="round"/>
</svg>
