<svg width="147" height="147" viewBox="0 0 147 147" fill="none" xmlns="http://www.w3.org/2000/svg">
<path d="M136.178 63.1458C135.063 61.9357 133.919 60.7521 132.748 59.596C130.748 57.624 129.297 56.3565 128.266 55.5344C126.198 53.8967 125.843 54.0013 125.639 54.2201C125.424 54.4488 125.389 54.7787 127.059 56.7681L130.934 61.287C131.823 62.3291 132.884 63.5737 134.027 64.9707C134.571 65.6589 135.098 66.3906 135.447 67.1736C135.804 67.9608 135.937 68.7307 135.846 69.7216C135.759 70.6961 135.435 71.8264 135.012 73.0492C134.567 74.3266 134.032 75.5711 133.411 76.7732C131.966 79.5926 130.066 82.1546 127.787 84.3562C127.151 84.9823 126.52 85.5388 126.043 85.7533C125.853 85.8491 125.643 85.897 125.43 85.8926C123.285 85.8665 116.994 80.6115 112.472 79.551C111.72 79.3898 110.867 79.2929 109.936 79.4203C108.966 79.5529 108.047 79.9386 107.273 80.5386C105.74 81.7614 105.06 83.3152 104.561 84.7243C102.492 90.687 103.99 96.7837 105.789 102.8C106.243 104.335 106.734 105.859 107.262 107.371C107.789 108.894 108.333 110.421 108.838 111.964C109.823 115.04 110.804 118.25 110.972 121.458C111.123 123.072 110.913 124.623 110.538 126.096C110.139 127.567 109.294 128.82 108.253 129.965C107.138 131.03 105.662 132.007 104.05 132.824C102.399 133.601 100.65 134.311 98.7771 134.871C91.2791 137.175 82.6757 137.963 73.4594 139.146C68.2022 139.804 62.5291 140.3 56.7036 139.721C53.8017 139.417 50.8747 138.825 48.0567 137.802C47.3489 137.555 46.6684 137.236 45.9693 136.952L44.9577 136.443C44.6158 136.276 44.2674 136.106 44.0147 135.929C42.8921 135.252 41.9088 134.294 41.0856 133.122C39.4294 130.767 38.4331 127.673 37.7852 124.447C35.9864 115.385 36.8096 104.604 36.1954 96.4734C35.8709 92.3029 33.3676 90.7273 30.7684 91.6115C30.4309 91.7226 30.163 91.8445 30.0203 91.9022C27.3994 93.0673 22.9273 93.1784 18.2538 90.6239C17.2607 90.0337 16.2797 89.3978 15.4565 88.6094C15.0089 88.2479 14.6659 87.8015 14.2696 87.3986C13.9462 86.9489 13.564 86.5296 13.3103 86.0462C7.67961 77.6323 25.1312 50.8838 36.7649 43.5741C40.7219 41.0587 45.2278 39.592 49.592 40.0384C51.7644 40.2432 53.867 40.8878 55.8205 41.8318C57.6825 42.8151 59.7089 44.1566 61.7255 45.2237C65.7686 47.3961 70.0239 49.1971 74.5091 49.6316C76.738 49.8428 79.016 49.6555 81.1077 48.9619C82.1618 48.632 83.1331 48.1343 84.0717 47.6117C85.8194 46.5489 87.1968 45.2074 88.7724 44.0652C89.1318 43.7951 89.5009 43.5664 89.8755 43.3443C90.2403 43.1069 90.6268 42.9142 91.0134 42.7236C95.3177 40.6156 100.482 40.6656 105.123 41.9854C107.933 42.7912 110.426 44.014 112.613 45.1889C116.981 47.591 120.137 50.0344 122.287 51.6896C124.426 53.3686 125.556 54.3094 125.639 54.2201C125.709 54.1439 124.73 53.042 122.714 51.1843C120.685 49.3506 117.63 46.7112 113.255 44.0673C111.055 42.7716 108.562 41.4235 105.583 40.4588C102.624 39.5147 99.2171 38.9757 95.59 39.3873C94.8669 39.4722 94.1374 39.6127 93.4078 39.7858C93.2641 39.4374 92.8656 39.078 91.8584 38.673C90.1379 38.0196 86.6644 37.1376 79.7194 36.5649C78.0343 36.4343 76.3451 36.3638 74.655 36.3536C74.8575 36.1522 75.0219 35.9257 74.9969 35.5196C74.9729 35.0884 74.7203 34.4633 74.3349 33.3309C73.9973 32.2061 73.4278 30.478 73.7273 27.9801C73.8808 26.7431 74.2782 25.358 75.1885 24.0198C75.6568 23.3251 76.2959 22.5814 77.0691 21.7266C77.8313 20.8696 78.7459 19.9092 79.6301 18.62C80.1842 17.8256 80.6278 16.9596 80.9488 16.0459C81.3048 15.0386 81.4834 13.8365 81.4116 12.6703C81.2635 10.315 80.2138 8.0066 78.4759 6.2426C76.7391 4.48731 74.4688 3.42238 72.2148 2.94C70.0118 2.46371 67.7301 2.4879 65.5377 3.01078C63.4253 3.53018 61.5252 4.57334 60.1804 5.94751C58.8247 7.32278 58.0995 8.91474 57.8055 10.2835C57.505 11.6609 57.6335 12.813 57.8578 13.5425C58.0919 14.2775 58.3761 14.6096 58.51 14.5704C58.8421 14.4931 58.4991 12.9001 59.4497 10.8083C59.9827 9.62007 60.8034 8.58341 61.8377 7.79209C62.9723 6.92642 64.4837 6.31447 66.1486 6.08689C69.4566 5.61214 73.5029 6.70211 75.5065 9.04867C76.5028 10.1768 77.0484 11.6391 77.0712 12.875C77.1039 14.1055 76.6498 15.1225 75.9617 16.1286C74.7105 17.946 72.8398 19.5935 71.5549 21.6384C70.4055 23.4411 69.7502 25.5143 69.6548 27.6502C69.51 31.2435 70.6925 33.4953 71.5604 34.7911C72.1418 35.6012 72.6514 36.076 73.063 36.3536C70.3637 36.3711 67.4879 36.4963 64.8757 36.7631C59.8515 37.2498 55.8531 38.159 55.9032 38.759C55.9054 38.7677 55.9141 38.7764 55.9174 38.7851C54.0325 37.9576 52.0072 37.3554 49.8937 37.1224C47.3402 36.8306 44.7051 37.0723 42.2017 37.7583C39.6919 38.4421 37.3126 39.543 35.1 40.8889C22.9328 48.3031 2.78288 76.7721 10.0338 88.0192C10.3931 88.6911 10.8744 89.2562 11.3143 89.8595C11.8152 90.3974 12.2813 90.981 12.8377 91.4503C13.8917 92.4695 15.096 93.2764 16.3265 94.0168C22.2217 97.3151 26.0938 96.7325 29.9757 96.1728L31.0548 95.8092C31.8943 95.5043 32.0239 95.158 32.1328 96.8218C32.1644 97.6178 32.3027 98.1535 32.3288 103.538C32.3397 107.17 32.3255 110.817 32.4682 114.444C32.6228 118.074 32.9005 121.691 33.5875 125.268C34.2953 128.824 35.3461 132.424 37.5369 135.609C38.6302 137.186 40.0545 138.62 41.7477 139.649C42.1789 139.934 42.5687 140.124 42.9585 140.321L44.1345 140.914C44.9381 141.252 45.7297 141.62 46.5399 141.908C49.7739 143.097 53.0623 143.764 56.2484 144.107C62.6402 144.756 68.6073 144.218 74.0191 143.545C83.1287 142.362 91.9465 141.588 100.085 139.083C104.137 137.783 108.077 136.193 111.366 133.051C112.905 131.408 114.153 129.437 114.727 127.324C115.277 125.241 115.487 123.135 115.308 121.193C115.286 120.202 115.09 119.279 114.982 118.334C114.786 117.429 114.643 116.502 114.405 115.638C113.974 113.883 113.454 112.214 112.914 110.609C111.825 107.373 110.7 104.478 109.841 101.574C108.284 96.506 106.773 91.054 108.43 86.0364C108.766 84.9714 109.278 84.0884 109.753 83.7301C109.991 83.5439 110.205 83.4492 110.507 83.4002C110.805 83.3512 111.193 83.3708 111.626 83.4579C115.507 84.2909 121.655 89.7005 125.454 89.6569C126.229 89.6466 126.991 89.4596 127.683 89.1103C128.954 88.4483 129.692 87.6403 130.37 86.9739C132.881 84.4442 134.947 81.5082 136.479 78.29C137.132 76.9257 137.684 75.5155 138.132 74.0706C138.541 72.7215 138.901 71.3669 138.975 69.9306C139.071 68.5151 138.734 66.9895 138.131 65.8734C137.546 64.7355 136.831 63.884 136.178 63.1458ZM64.9323 39.898C69.865 40.192 75.6775 40.6776 79.3699 40.9869C83.5948 41.3353 86.5206 41.6097 88.5634 41.7317C88.2225 41.9277 87.8806 42.1248 87.5627 42.3523C85.9609 43.4554 84.4887 44.7936 82.9295 45.692C82.1237 46.1079 81.3005 46.5141 80.4098 46.7678C74.7171 48.51 68.2284 45.7987 63.0278 42.8696C61.0744 41.7916 59.3104 40.5502 57.0912 39.322C56.9932 39.273 56.8898 39.2327 56.7907 39.1848C58.2487 39.4973 61.3531 39.6671 64.9323 39.898Z" fill="#E3887B"/>
<path d="M73.6255 83.4118C64.2211 83.4118 56.5701 91.0628 56.5701 100.467C56.5701 109.872 64.2211 117.523 73.6255 117.523C83.0299 117.523 90.6808 109.872 90.6808 100.467C90.6808 91.0628 83.0299 83.4118 73.6255 83.4118ZM73.6255 115.516C65.3276 115.516 58.5767 108.765 58.5767 100.467C58.5767 92.1692 65.3276 85.4183 73.6255 85.4183C81.9234 85.4183 88.6743 92.1692 88.6743 100.467C88.6743 108.765 81.9234 115.516 73.6255 115.516ZM80.0463 75.7871C81.7797 75.7871 83.1899 74.3769 83.1899 72.6435C83.1899 70.9102 81.7797 69.5 80.0463 69.5C78.313 69.5 76.9028 70.9102 76.9028 72.6435C76.9028 74.3769 78.313 75.7871 80.0463 75.7871ZM80.0463 71.5065C80.6733 71.5065 81.1834 72.0166 81.1834 72.6435C81.1834 73.2705 80.6733 73.7806 80.0463 73.7806C79.4194 73.7806 78.9093 73.2705 78.9093 72.6435C78.9093 72.0166 79.4194 71.5065 80.0463 71.5065ZM88.6074 75.7871C90.3408 75.7871 91.751 74.3769 91.751 72.6435C91.751 70.9102 90.3408 69.5 88.6074 69.5C86.8741 69.5 85.4639 70.9102 85.4639 72.6435C85.4639 74.3769 86.8741 75.7871 88.6074 75.7871ZM88.6074 71.5065C89.2344 71.5065 89.7445 72.0166 89.7445 72.6435C89.7445 73.2705 89.2344 73.7806 88.6074 73.7806C87.9805 73.7806 87.4704 73.2705 87.4704 72.6435C87.4704 72.0166 87.9805 71.5065 88.6074 71.5065ZM57.5734 75.7871H71.4852C72.6285 75.7871 73.5586 74.857 73.5586 73.7137V71.5734C73.5586 70.4301 72.6285 69.5 71.4852 69.5L57.5734 69.5C56.4301 69.5 55.5 70.4301 55.5 71.5734V73.7137C55.5 74.857 56.4301 75.7871 57.5734 75.7871ZM57.5065 71.5734C57.5065 71.5557 57.5136 71.5386 57.5261 71.5261C57.5387 71.5136 57.5557 71.5065 57.5734 71.5065H71.4852C71.503 71.5065 71.52 71.5136 71.5325 71.5261C71.5451 71.5386 71.5521 71.5557 71.5521 71.5734V73.7137C71.5521 73.7314 71.5451 73.7484 71.5325 73.761C71.52 73.7735 71.503 73.7806 71.4852 73.7806H57.5734C57.5557 73.7806 57.5387 73.7735 57.5261 73.761C57.5136 73.7484 57.5065 73.7314 57.5065 73.7137V71.5734Z" fill="#E3887B"/>
<path d="M73.6335 87.7256C66.5894 87.7256 60.8587 93.4563 60.8587 100.5C60.8587 107.544 66.5894 113.275 73.6335 113.275C80.6776 113.275 86.4083 107.544 86.4083 100.5C86.4083 93.4563 80.6776 87.7256 73.6335 87.7256ZM73.6335 111.269C67.6958 111.269 62.8652 106.438 62.8652 100.5C62.8652 94.5627 67.6958 89.7321 73.6335 89.7321C79.5712 89.7321 84.4018 94.5627 84.4018 100.5C84.4018 106.438 79.5712 111.269 73.6335 111.269Z" fill="#E3887B"/>
<path d="M73.6335 92.0061C73.0793 92.0061 72.6302 92.4553 72.6302 93.0094C72.6302 93.5634 73.0793 94.0126 73.6335 94.0126C77.2108 94.0126 80.1212 96.923 80.1212 100.5C80.1212 101.054 80.5703 101.504 81.1245 101.504C81.6787 101.504 82.1277 101.054 82.1277 100.5C82.1277 95.8166 78.3172 92.0061 73.6335 92.0061Z" fill="#E3887B"/>
</svg>
