<svg width="167" height="147" viewBox="0 0 167 147" fill="none" xmlns="http://www.w3.org/2000/svg">
<rect width="167" height="147" rx="10" fill="#ECE8EF" fill-opacity="0.46"/>
<path d="M32.0551 127.52C32.1831 127.68 32.3431 127.892 32.5351 128.156C32.7351 128.412 32.9391 128.7 33.1471 129.02C33.3551 129.332 33.5591 129.66 33.7591 130.004C33.9671 130.348 34.1431 130.68 34.2871 131H33.0151C32.8551 130.696 32.6791 130.388 32.4871 130.076C32.3031 129.764 32.1151 129.468 31.9231 129.188C31.7311 128.9 31.5391 128.632 31.3471 128.384C31.1631 128.136 30.9951 127.92 30.8431 127.736C30.7391 127.744 30.6311 127.748 30.5191 127.748C30.4151 127.748 30.3071 127.748 30.1951 127.748H29.1511V131H27.9871V122.804C28.3151 122.724 28.6791 122.672 29.0791 122.648C29.4871 122.616 29.8591 122.6 30.1951 122.6C31.3631 122.6 32.2511 122.82 32.8591 123.26C33.4751 123.7 33.7831 124.356 33.7831 125.228C33.7831 125.78 33.6351 126.252 33.3391 126.644C33.0511 127.036 32.6231 127.328 32.0551 127.52ZM30.2911 123.62C29.7951 123.62 29.4151 123.632 29.1511 123.656V126.788H29.9791C30.3791 126.788 30.7391 126.768 31.0591 126.728C31.3791 126.688 31.6471 126.612 31.8631 126.5C32.0871 126.388 32.2591 126.232 32.3791 126.032C32.4991 125.824 32.5591 125.552 32.5591 125.216C32.5591 124.904 32.4991 124.644 32.3791 124.436C32.2591 124.228 32.0951 124.064 31.8871 123.944C31.6871 123.824 31.4471 123.74 31.1671 123.692C30.8951 123.644 30.6031 123.62 30.2911 123.62ZM35.534 131V122.684H40.61V123.68H36.698V126.152H40.178V127.124H36.698V130.004H40.91V131H35.534ZM47.1256 126.908H48.2896V130.796C48.1936 130.828 48.0536 130.864 47.8696 130.904C47.6936 130.944 47.4856 130.984 47.2456 131.024C47.0136 131.064 46.7576 131.096 46.4776 131.12C46.1976 131.152 45.9136 131.168 45.6256 131.168C45.0416 131.168 44.5096 131.072 44.0296 130.88C43.5496 130.688 43.1376 130.408 42.7936 130.04C42.4496 129.672 42.1816 129.22 41.9896 128.684C41.8056 128.148 41.7136 127.532 41.7136 126.836C41.7136 126.14 41.8176 125.524 42.0256 124.988C42.2416 124.444 42.5296 123.988 42.8896 123.62C43.2496 123.252 43.6696 122.972 44.1496 122.78C44.6376 122.588 45.1576 122.492 45.7096 122.492C46.0856 122.492 46.4176 122.516 46.7056 122.564C47.0016 122.612 47.2536 122.668 47.4616 122.732C47.6696 122.796 47.8376 122.86 47.9656 122.924C48.1016 122.988 48.1936 123.036 48.2416 123.068L47.8696 124.04C47.6376 123.888 47.3296 123.764 46.9456 123.668C46.5616 123.564 46.1696 123.512 45.7696 123.512C45.3456 123.512 44.9576 123.588 44.6056 123.74C44.2616 123.892 43.9656 124.112 43.7176 124.4C43.4776 124.688 43.2896 125.04 43.1536 125.456C43.0176 125.864 42.9496 126.324 42.9496 126.836C42.9496 127.332 43.0056 127.784 43.1176 128.192C43.2376 128.6 43.4136 128.952 43.6456 129.248C43.8856 129.536 44.1776 129.76 44.5216 129.92C44.8736 130.08 45.2856 130.16 45.7576 130.16C46.0936 130.16 46.3776 130.144 46.6096 130.112C46.8496 130.072 47.0216 130.036 47.1256 130.004V126.908ZM53.2081 131.18C52.6641 131.18 52.1921 131.096 51.7921 130.928C51.3921 130.76 51.0641 130.532 50.8081 130.244C50.5521 129.948 50.3601 129.6 50.2321 129.2C50.1121 128.8 50.0521 128.368 50.0521 127.904V122.684H51.2161V127.772C51.2161 128.604 51.4001 129.208 51.7681 129.584C52.1361 129.96 52.6161 130.148 53.2081 130.148C53.5041 130.148 53.7721 130.104 54.0121 130.016C54.2601 129.92 54.4721 129.776 54.6481 129.584C54.8241 129.392 54.9601 129.148 55.0561 128.852C55.1521 128.548 55.2001 128.188 55.2001 127.772V122.684H56.3641V127.904C56.3641 128.368 56.3001 128.8 56.1721 129.2C56.0521 129.6 55.8601 129.948 55.5961 130.244C55.3401 130.532 55.0121 130.76 54.6121 130.928C54.2201 131.096 53.7521 131.18 53.2081 131.18ZM63.3778 129.992V131H58.3738V122.684H59.5378V129.992H63.3778ZM70.4923 131C70.3563 130.64 70.2283 130.288 70.1083 129.944C69.9883 129.592 69.8643 129.236 69.7363 128.876H65.9683L65.2123 131H64.0003C64.3203 130.12 64.6203 129.308 64.9003 128.564C65.1803 127.812 65.4523 127.1 65.7163 126.428C65.9883 125.756 66.2563 125.116 66.5203 124.508C66.7843 123.892 67.0603 123.284 67.3483 122.684H68.4163C68.7043 123.284 68.9803 123.892 69.2443 124.508C69.5083 125.116 69.7723 125.756 70.0363 126.428C70.3083 127.1 70.5843 127.812 70.8643 128.564C71.1443 129.308 71.4443 130.12 71.7643 131H70.4923ZM69.4003 127.916C69.1443 127.22 68.8883 126.548 68.6323 125.9C68.3843 125.244 68.1243 124.616 67.8523 124.016C67.5723 124.616 67.3043 125.244 67.0483 125.9C66.8003 126.548 66.5523 127.22 66.3043 127.916H69.4003ZM76.9613 127.52C77.0893 127.68 77.2493 127.892 77.4413 128.156C77.6413 128.412 77.8453 128.7 78.0533 129.02C78.2613 129.332 78.4653 129.66 78.6653 130.004C78.8733 130.348 79.0493 130.68 79.1933 131H77.9213C77.7613 130.696 77.5853 130.388 77.3933 130.076C77.2093 129.764 77.0213 129.468 76.8293 129.188C76.6373 128.9 76.4453 128.632 76.2533 128.384C76.0693 128.136 75.9013 127.92 75.7493 127.736C75.6453 127.744 75.5373 127.748 75.4253 127.748C75.3213 127.748 75.2133 127.748 75.1013 127.748H74.0573V131H72.8933V122.804C73.2213 122.724 73.5853 122.672 73.9853 122.648C74.3933 122.616 74.7653 122.6 75.1013 122.6C76.2693 122.6 77.1573 122.82 77.7653 123.26C78.3813 123.7 78.6893 124.356 78.6893 125.228C78.6893 125.78 78.5413 126.252 78.2453 126.644C77.9573 127.036 77.5293 127.328 76.9613 127.52ZM75.1973 123.62C74.7013 123.62 74.3213 123.632 74.0573 123.656V126.788H74.8853C75.2853 126.788 75.6453 126.768 75.9653 126.728C76.2853 126.688 76.5533 126.612 76.7693 126.5C76.9933 126.388 77.1653 126.232 77.2853 126.032C77.4053 125.824 77.4653 125.552 77.4653 125.216C77.4653 124.904 77.4053 124.644 77.2853 124.436C77.1653 124.228 77.0013 124.064 76.7933 123.944C76.5933 123.824 76.3533 123.74 76.0733 123.692C75.8013 123.644 75.5093 123.62 75.1973 123.62ZM92.8229 126.836C92.8229 127.556 92.7109 128.184 92.4869 128.72C92.2629 129.248 91.9469 129.688 91.5389 130.04C91.1309 130.384 90.6429 130.644 90.0749 130.82C89.5069 130.988 88.8829 131.072 88.2029 131.072C87.8669 131.072 87.4949 131.056 87.0869 131.024C86.6869 131 86.3229 130.948 85.9949 130.868V122.804C86.3229 122.724 86.6869 122.672 87.0869 122.648C87.4949 122.616 87.8669 122.6 88.2029 122.6C88.8829 122.6 89.5069 122.688 90.0749 122.864C90.6429 123.032 91.1309 123.292 91.5389 123.644C91.9469 123.988 92.2629 124.428 92.4869 124.964C92.7109 125.492 92.8229 126.116 92.8229 126.836ZM88.2989 130.052C89.4029 130.052 90.2269 129.772 90.7709 129.212C91.3149 128.644 91.5869 127.852 91.5869 126.836C91.5869 125.82 91.3149 125.032 90.7709 124.472C90.2269 123.904 89.4029 123.62 88.2989 123.62C87.9709 123.62 87.7149 123.624 87.5309 123.632C87.3549 123.64 87.2309 123.648 87.1589 123.656V130.016C87.2309 130.024 87.3549 130.032 87.5309 130.04C87.7149 130.048 87.9709 130.052 88.2989 130.052ZM94.5496 131V122.684H99.6256V123.68H95.7136V126.152H99.1936V127.124H95.7136V130.004H99.9256V131H94.5496ZM106.409 129.992V131H101.405V122.684H102.569V129.992H106.409ZM107.628 122.684H108.792V131H107.628V122.684ZM117.57 122.684C117.266 123.564 116.974 124.38 116.694 125.132C116.422 125.876 116.154 126.584 115.89 127.256C115.626 127.928 115.362 128.572 115.098 129.188C114.842 129.796 114.578 130.4 114.306 131H113.214C112.942 130.4 112.674 129.796 112.41 129.188C112.154 128.572 111.89 127.928 111.618 127.256C111.354 126.584 111.082 125.876 110.802 125.132C110.522 124.38 110.234 123.564 109.938 122.684H111.222C111.654 123.948 112.078 125.164 112.494 126.332C112.91 127.5 113.338 128.596 113.778 129.62C114.218 128.604 114.646 127.512 115.062 126.344C115.478 125.168 115.898 123.948 116.322 122.684H117.57ZM118.725 131V122.684H123.801V123.68H119.889V126.152H123.369V127.124H119.889V130.004H124.101V131H118.725ZM129.649 127.52C129.777 127.68 129.937 127.892 130.129 128.156C130.329 128.412 130.533 128.7 130.741 129.02C130.949 129.332 131.153 129.66 131.353 130.004C131.561 130.348 131.737 130.68 131.881 131H130.609C130.449 130.696 130.273 130.388 130.081 130.076C129.897 129.764 129.709 129.468 129.517 129.188C129.325 128.9 129.133 128.632 128.941 128.384C128.757 128.136 128.589 127.92 128.437 127.736C128.333 127.744 128.225 127.748 128.113 127.748C128.009 127.748 127.901 127.748 127.789 127.748H126.745V131H125.581V122.804C125.909 122.724 126.273 122.672 126.673 122.648C127.081 122.616 127.453 122.6 127.789 122.6C128.957 122.6 129.845 122.82 130.453 123.26C131.069 123.7 131.377 124.356 131.377 125.228C131.377 125.78 131.229 126.252 130.933 126.644C130.645 127.036 130.217 127.328 129.649 127.52ZM127.885 123.62C127.389 123.62 127.009 123.632 126.745 123.656V126.788H127.573C127.973 126.788 128.333 126.768 128.653 126.728C128.973 126.688 129.241 126.612 129.457 126.5C129.681 126.388 129.853 126.232 129.973 126.032C130.093 125.824 130.153 125.552 130.153 125.216C130.153 124.904 130.093 124.644 129.973 124.436C129.853 124.228 129.689 124.064 129.481 123.944C129.281 123.824 129.041 123.74 128.761 123.692C128.489 123.644 128.197 123.62 127.885 123.62ZM134.885 131V127.664C134.333 126.808 133.813 125.964 133.325 125.132C132.837 124.3 132.377 123.484 131.945 122.684H133.313C133.617 123.34 133.957 124.008 134.333 124.688C134.709 125.36 135.097 126.008 135.497 126.632C135.889 126.008 136.273 125.36 136.649 124.688C137.025 124.008 137.369 123.34 137.681 122.684H138.977C138.545 123.484 138.085 124.3 137.597 125.132C137.109 125.956 136.593 126.792 136.049 127.64V131H134.885Z" fill="black"/>
<g clip-path="url(#clip0_14_2668)">
<path d="M113.379 8.05371H18.0406V68.8638H113.379V8.05371Z" fill="#E6E6E6"/>
<path d="M110.653 15.6809H20.7669V65.2664H110.653V15.6809Z" fill="white"/>
<path d="M113.338 8H18V12.0338H113.338V8Z" fill="#E3887B"/>
<path d="M21.01 10.8101C21.4246 10.8101 21.7607 10.4753 21.7607 10.0624C21.7607 9.64945 21.4246 9.3147 21.01 9.3147C20.5953 9.3147 20.2592 9.64945 20.2592 10.0624C20.2592 10.4753 20.5953 10.8101 21.01 10.8101Z" fill="white"/>
<path d="M23.8594 10.8101C24.274 10.8101 24.6102 10.4753 24.6102 10.0624C24.6102 9.64945 24.274 9.3147 23.8594 9.3147C23.4448 9.3147 23.1086 9.64945 23.1086 10.0624C23.1086 10.4753 23.4448 10.8101 23.8594 10.8101Z" fill="white"/>
<path d="M26.7088 10.8101C27.1234 10.8101 27.4595 10.4753 27.4595 10.0624C27.4595 9.64945 27.1234 9.3147 26.7088 9.3147C26.2941 9.3147 25.958 9.64945 25.958 10.0624C25.958 10.4753 26.2941 10.8101 26.7088 10.8101Z" fill="white"/>
<path d="M49.4066 19.7593H31.8262V38.7547H49.4066V19.7593Z" fill="#E6E6E6"/>
<path d="M74.4998 19.7593H56.9195V38.7547H74.4998V19.7593Z" fill="#E6E6E6"/>
<path d="M99.5929 19.7593H82.0126V38.7547H99.5929V19.7593Z" fill="#E6E6E6"/>
<path d="M49.4066 42.1931H31.8262V61.1886H49.4066V42.1931Z" fill="#E6E6E6"/>
<path d="M74.4998 42.1931H56.9195V61.1886H74.4998V42.1931Z" fill="#E6E6E6"/>
<path d="M99.5929 42.1931H82.0126V61.1886H99.5929V42.1931Z" fill="#E6E6E6"/>
<path d="M61.1686 47.0748L64.3808 45.8101L64.7543 52.1338C64.7543 52.1338 65.4265 54.068 65.2025 54.8121C65.2025 54.8121 65.3519 56.0768 64.9783 56.1512C64.6048 56.2256 63.5587 56.3745 63.4848 56.2999C63.4109 56.2254 63.4101 56.0023 63.4101 56.0023C63.4101 56.0023 62.663 56.5231 62.5884 57.1182C62.5884 57.1182 59.4509 58.0853 59.3762 57.1926C59.3016 56.2998 60.9449 55.5558 60.9449 55.5558L62.2148 53.6215L61.1686 47.0748Z" fill="white"/>
<path d="M67.9667 47.0748L71.1784 45.8101L71.552 52.1338C71.552 52.1338 72.2242 54.068 72.0002 54.8121C72.0002 54.8121 72.1495 56.0768 71.776 56.1512C71.4025 56.2256 70.3564 56.3745 70.2825 56.2999C70.2085 56.2254 70.2078 56.0023 70.2078 56.0023C70.2078 56.0023 69.4607 56.5231 69.386 57.1182C69.386 57.1182 66.2486 58.0853 66.1739 57.1926C66.0992 56.2998 67.7426 55.5558 67.7426 55.5558L69.0125 53.6215L67.9667 47.0748Z" fill="white"/>
<path d="M68.2805 22.6551C68.2805 22.6551 67.5966 24.5584 68.389 25.4167L67.7283 27.6778C67.7283 27.6778 70.0757 34.6912 69.4051 35.6708C69.4051 35.6708 66.9013 36.9176 61.8931 35.2255L63.9274 27.366L63.6368 24.0486L64.0392 22.49L64.9334 22.4016C64.9334 22.4016 64.3969 24.4054 65.3805 24.7172C66.3642 25.0289 67.3238 22.4517 67.3238 22.4517L68.2805 22.6551Z" fill="#3F3D56"/>
<path d="M36.6944 34.9414L37.5575 35.2931L41.677 29.901L42.9717 36.2308L43.8348 36.0745C44.3884 30.6173 44.8403 25.0512 44.286 22.4186L41.0885 22.2817L39.6369 26.893L38.9307 30.0188L36.6944 34.9414Z" fill="white"/>
<path d="M89.0799 22.3755C89.0799 22.3755 87.902 24.0064 87.9595 24.6645C88.017 25.3227 88.7639 36.0526 88.7639 36.0526L90.5165 36.1385L89.999 28.4129L90.4299 26.3241L91.493 36.0526L93.6478 36.1099L91.7229 23.4915L91.3494 22.3756L89.0799 22.3755Z" fill="white"/>
<path d="M95.7375 48.6497C95.4248 48.276 94.8871 48.0739 94.3709 47.9646C94.3856 47.9179 92.8007 47.5917 92.7738 47.6589L92.1762 47.1848L90.3401 48.1343L89.3084 47.4347L88.8291 47.6041C88.8486 47.5199 87.3414 47.7799 87.3414 47.7799C87.0534 47.7903 86.6857 47.8082 86.274 47.8397C84.8324 47.9502 84.7213 51.6688 84.7213 51.6688C85.3846 51.3986 86.0918 51.2511 86.8083 51.2336L87.1979 55.6812C89.2021 55.5101 91.3039 55.7092 93.4826 56.1967L94.5042 52.7004L96.8834 51.779C96.8834 51.779 96.4769 49.5332 95.7375 48.6497Z" fill="#3F3D56"/>
<path d="M44.6826 46.5318C44.4248 46.2239 43.9819 46.0573 43.5565 45.9674C43.5692 45.9288 42.2628 45.6601 42.2404 45.7155L41.748 45.325L40.2354 46.1073L39.3853 45.531L38.9904 45.6706C39.0066 45.6012 37.7646 45.8154 37.7646 45.8154C37.528 45.8239 37.2242 45.8386 36.8852 45.8647C35.6973 45.9557 35.6059 49.0194 35.6059 49.0194C36.1524 48.7967 36.7352 48.6752 37.3255 48.6608L37.6466 57.6317C39.2979 57.4907 41.0298 57.6549 42.8244 58.0565L43.6661 49.8696L45.6265 49.1104C45.6265 49.1104 45.2917 47.2601 44.6826 46.5318Z" fill="white"/>
<path d="M128.824 48.9198H137.253V44.428C137.253 43.3148 136.809 42.2472 136.019 41.4601C135.229 40.6729 134.157 40.2307 133.039 40.2307C131.921 40.2307 130.849 40.6729 130.059 41.4601C129.268 42.2472 128.824 43.3148 128.824 44.428V48.9198Z" fill="#2F2E41"/>
<path d="M125.062 98.8955H123.249L122.386 91.9307H125.062L125.062 98.8955Z" fill="#FFB6B6"/>
<path d="M125.524 98.3059H121.954C121.35 98.3059 120.772 98.5447 120.345 98.9696C119.918 99.3945 119.679 99.9708 119.679 100.572V100.645H125.524V98.3059Z" fill="#2F2E41"/>
<path d="M146.733 96.4861L145.155 97.3738L140.966 91.7316L143.296 90.4216L146.733 96.4861Z" fill="#FFB6B6"/>
<path d="M146.845 95.7463L143.736 97.4939C143.21 97.7894 142.824 98.2806 142.663 98.8596C142.501 99.4385 142.577 100.058 142.873 100.581L142.91 100.645L148 97.7833L146.845 95.7463Z" fill="#2F2E41"/>
<path d="M135.147 67.575L135.287 68.2716C135.287 68.2716 135.706 68.6895 135.496 68.8985C135.287 69.1075 135.357 70.0829 135.357 70.0829C135.474 71.8613 137.807 81.8552 138.225 83.807C138.225 83.807 141.442 85.8969 143.96 90.0071C146.479 94.1174 146.548 95.1624 146.548 95.1624L143.751 96.3469L136.756 87.9174C136.756 87.9174 134.798 86.733 134.098 85.6881C133.399 84.6432 129.061 73.8448 129.061 73.8448L126.612 85.1307C126.612 85.1307 126.752 89.2409 126.123 91.8883C125.736 93.5589 125.501 95.2611 125.423 96.9739L122.135 96.6256C122.135 96.6256 122.345 86.733 122.695 85.688C122.695 85.688 121.226 73.6358 124.164 68.8289L126.532 62.5423L128.851 61.6533L135.147 67.575Z" fill="#2F2E41"/>
<path d="M133.082 41.3286C128.669 41.4037 128.669 47.9422 133.082 48.0165C137.496 47.9414 137.495 41.403 133.082 41.3286Z" fill="#FFB8B8"/>
<path d="M129.685 44.4991H130.436L130.64 43.9904L130.538 44.4991H134.64L134.507 43.4347L135.505 44.4991H136.499V43.9224C136.5 43.4768 136.412 43.0355 136.241 42.6238C136.07 42.212 135.819 41.8378 135.503 41.5225C135.187 41.2073 134.812 40.9571 134.399 40.7863C133.985 40.6155 133.542 40.5274 133.095 40.5271C132.648 40.5268 132.205 40.6142 131.791 40.7844C131.378 40.9547 131.002 41.2043 130.685 41.5191C130.369 41.834 130.118 42.2078 129.946 42.6193C129.775 43.0309 129.686 43.472 129.686 43.9176V43.9224L129.685 44.4991Z" fill="#2F2E41"/>
<path d="M128.531 49.9692L136.871 50.0365L135.109 67.8442C135.109 67.8442 125.355 67.3316 125.349 64.3666L126.263 61.7317L128.531 49.9692Z" fill="#3F3D56"/>
<path d="M137.23 69.5656C137.101 69.4092 137.009 69.2267 136.959 69.031C136.91 68.8353 136.904 68.6312 136.942 68.4329C136.98 68.2346 137.061 68.047 137.18 67.8834C137.298 67.7198 137.452 67.5841 137.629 67.4858L137.266 64.3508L139.126 63.6667L139.575 68.1013C139.72 68.4084 139.747 68.7578 139.651 69.0835C139.555 69.4091 139.343 69.6885 139.054 69.8688C138.765 70.049 138.42 70.1177 138.084 70.0619C137.748 70.006 137.444 69.8295 137.23 69.5656Z" fill="#FFB6B6"/>
<path d="M135.774 51.5705L136.872 50.0428C136.872 50.0428 137.623 49.8768 138.51 50.9077C139.397 51.9386 139.915 64.8249 139.915 64.8249L136.662 65.5613L134.739 56.4304L135.774 51.5705Z" fill="#3F3D56"/>
<path d="M117.391 65.5448L117.633 76.9933L125.075 80.91L138.628 78.4998L138.96 66.5993L130.369 63.5864L117.391 65.5448Z" fill="white"/>
<path d="M125.056 81.0337L117.516 77.0655L117.27 65.4434L130.381 63.4651L130.409 63.4749L139.082 66.5163L138.744 78.5994L125.056 81.0337ZM117.751 76.9212L125.095 80.7863L138.512 78.4002L138.839 66.6823L130.358 63.7079L117.512 65.6462L117.751 76.9212Z" fill="#CACACA"/>
<path d="M124.909 68.6489L124.88 68.6374L117.348 65.6547L117.435 65.4348L124.939 68.4059L138.944 66.4821L138.977 66.7165L124.909 68.6489Z" fill="#CACACA"/>
<path d="M125.043 68.5259L124.805 68.5288L124.956 80.9114L125.194 80.9085L125.043 68.5259Z" fill="#CACACA"/>
<path d="M123.957 68.0564L121.242 66.9601L134.313 64.8857L137.029 65.9819L123.957 68.0564Z" fill="#CACACA"/>
<path d="M117.438 68.8661L117.344 69.0835L120.494 70.4339L120.588 70.2165L117.438 68.8661Z" fill="#CACACA"/>
<path d="M118.864 72.7716L118.77 72.989L121.92 74.3394L122.014 74.122L118.864 72.7716Z" fill="#E3887B"/>
<path d="M75.9867 81.4504L76.2286 92.8989L83.6704 96.8155L97.2228 94.4053L97.5556 82.5048L88.9643 79.4919L75.9867 81.4504Z" fill="white"/>
<path d="M83.651 96.9392L76.1113 92.971L75.8656 81.3489L88.9758 79.3706L89.0038 79.3804L97.6768 82.4219L97.339 94.5049L83.651 96.9392ZM76.3459 92.8268L83.6898 96.6919L97.1067 94.3057L97.4344 82.5878L88.9528 79.6134L76.1076 81.5518L76.3459 92.8268Z" fill="#CACACA"/>
<path d="M83.5043 84.5544L83.4752 84.5429L75.9427 81.5602L76.0304 81.3403L83.5339 84.3114L97.5393 82.3876L97.5719 82.622L83.5043 84.5544Z" fill="#CACACA"/>
<path d="M83.6379 84.4314L83.4003 84.4343L83.5515 96.8169L83.7892 96.814L83.6379 84.4314Z" fill="#CACACA"/>
<path d="M81.8947 83.6921L79.8372 82.8653L92.9086 80.791L94.9659 81.6178L81.8947 83.6921Z" fill="#CACACA"/>
<path d="M76.0336 84.7714L75.9396 84.9888L79.0888 86.3391L79.1828 86.1217L76.0336 84.7714Z" fill="#CACACA"/>
<path d="M77.4596 88.6771L77.3657 88.8945L80.5149 90.2449L80.6088 90.0275L77.4596 88.6771Z" fill="#E3887B"/>
<path d="M88.915 83.0199L89.196 96.3098L97.8347 100.856L113.567 98.0586L113.953 84.244L103.98 80.7466L88.915 83.0199Z" fill="#E3887B"/>
<path d="M97.8121 101L89.0597 96.3936L88.7745 82.9022L103.993 80.6057L104.026 80.6171L114.094 84.1477L113.702 98.1741L97.8121 101ZM89.3321 96.2262L97.8571 100.713L113.432 97.943L113.812 84.3404L103.967 80.8876L89.0555 83.1377L89.3321 96.2262Z" fill="#3F3D56"/>
<path d="M97.6418 86.6235L97.6081 86.6101L88.864 83.1477L88.9659 82.8923L97.6761 86.3413L113.934 84.1081L113.972 84.3802L97.6418 86.6235Z" fill="#3F3D56"/>
<path d="M97.797 86.4805L97.5211 86.4839L97.6967 100.858L97.9726 100.855L97.797 86.4805Z" fill="#3F3D56"/>
<path d="M95.9132 85.6289L93.3848 84.6629L108.558 82.2549L111.087 83.2208L95.9132 85.6289Z" fill="#3F3D56"/>
<path d="M88.9696 86.8753L88.8605 87.1277L92.5162 88.6952L92.6253 88.4429L88.9696 86.8753Z" fill="#3F3D56"/>
<path d="M90.625 91.409L90.5159 91.6614L94.1716 93.2289L94.2807 92.9766L90.625 91.409Z" fill="white"/>
<path d="M121.611 67.438C121.794 67.3523 121.957 67.2275 122.086 67.0724C122.216 66.9174 122.31 66.7359 122.362 66.5408C122.414 66.3456 122.422 66.1415 122.386 65.9429C122.35 65.7442 122.271 65.5558 122.154 65.391L123.843 62.7209L122.464 61.303L120.132 65.1069C119.867 65.321 119.69 65.6245 119.635 65.9599C119.58 66.2953 119.65 66.6392 119.832 66.9265C120.014 67.2138 120.296 67.4246 120.624 67.5189C120.952 67.6132 121.303 67.5845 121.611 67.4382V67.438Z" fill="#FFB6B6"/>
<path d="M129.813 50.671L128.603 49.877C128.603 49.877 127.669 50.0855 126.676 51.9879C125.683 53.8904 121.677 62.396 121.677 62.396L123.324 64.0601L127.716 57.3874L129.813 50.671Z" fill="#3F3D56"/>
</g>
<defs>
<clipPath id="clip0_14_2668">
<rect width="130" height="93" fill="white" transform="translate(18 8)"/>
</clipPath>
</defs>
</svg>
