<svg width="44" height="44" viewBox="0 0 44 44" fill="none" xmlns="http://www.w3.org/2000/svg">
<g clip-path="url(#clip0_14_2142)">
<path d="M8.92085 23.7616L0.997009 19.7996C0.997009 19.7996 8.04788 6.70516 8.71939 5.36213C9.09544 4.61004 11.2577 3.33417 13.0909 2.35376C13.279 2.6828 16.5962 8.38393 21.8139 8.38393C27.0315 8.38393 30.3488 2.6828 30.5368 2.35376C32.37 3.33417 34.5323 4.61004 34.9083 5.36213C35.5799 6.70516 42.6307 19.7996 42.6307 19.7996L34.7069 23.7616L36.0163 40.3613C36.0398 40.6506 36.0031 40.9417 35.9084 41.216C35.8138 41.4904 35.6632 41.7422 35.4664 41.9555C35.2695 42.1688 35.0305 42.3389 34.7646 42.4552C34.4986 42.5715 34.2115 42.6313 33.9212 42.631H9.70651C8.47765 42.631 7.51067 41.5835 7.6114 40.3613L8.92085 23.7616ZM30.1272 19.3027C30.2548 19.1416 30.3958 18.9871 30.5435 18.8394C30.5435 18.8394 23.2912 19.0072 21.6729 24.2182C19.4904 20.1891 13.4938 21.2501 13.4938 21.2501C13.6416 21.3508 13.7826 21.4515 13.9102 21.5657C15.5621 22.9692 15.73 25.3665 16.2806 26.7296C17.0327 28.6166 18.8122 29.2612 20.303 28.9658C20.6589 28.8919 21.0752 28.6233 21.4177 28.3077C21.5788 28.1532 21.7199 27.9921 21.834 27.8376C21.8944 27.9585 21.9549 28.0727 22.0288 28.1801C22.1966 28.4487 22.5324 28.7442 22.9286 28.9792V28.9859C23.4054 29.2747 23.956 29.4895 24.3925 29.4895C26.2056 29.4895 28.1395 28.3077 28.576 25.9171C28.8916 24.1846 28.529 21.3307 30.1272 19.3027Z" fill="#E3887B"/>
<path d="M9.25659 19.4934L8.92083 23.7616L5.02606 21.8142L8.1318 18.9475C8.58037 18.5332 9.30426 18.8844 9.25659 19.4934ZM38.5345 21.8477L34.7069 23.7616L34.3738 19.5236C34.3255 18.9106 35.0581 18.5607 35.5046 18.9831L38.5345 21.8477Z" fill="#89C4C1"/>
<path d="M30.5435 18.8394C30.3958 18.9871 30.2548 19.1415 30.1272 19.3027L30.1205 19.296C24.0903 21.7067 23.0226 28.3211 22.9286 28.9792C22.5324 28.7442 22.1967 28.4487 22.0288 28.1801C21.9549 28.0726 21.8945 27.9585 21.834 27.8376C21.4177 27.0184 21.3035 26.0648 21.4513 25.1516C21.505 24.8225 21.5789 24.5136 21.6729 24.2182C23.2912 19.0072 30.5435 18.8394 30.5435 18.8394Z" fill="#33F297"/>
<path d="M30.1204 19.2959L30.1271 19.3026C28.5289 21.3306 28.8916 24.1845 28.5759 25.917C28.1395 28.3076 26.2055 29.4894 24.3924 29.4894C23.9559 29.4894 23.4053 29.2746 22.9285 28.9858V28.9791C23.0225 28.321 24.0902 21.7066 30.1204 19.2959Z" fill="white"/>
<path d="M30.5368 2.35377C30.3488 2.68281 27.0315 8.38394 21.8139 8.38394C16.5962 8.38394 13.279 2.68281 13.0909 2.35377C14.5145 1.59496 15.7367 1.01746 15.777 0.997314C16.3612 2.49479 17.6371 3.58935 18.8525 4.34816C19.7435 4.89483 20.7685 5.18419 21.8139 5.18419C22.8592 5.18419 23.8842 4.89483 24.7752 4.34816C25.9907 3.58935 27.2666 2.49479 27.8508 0.997314C27.8911 1.01746 29.1132 1.59496 30.5368 2.35377Z" fill="#33F297"/>
<path d="M21.6729 24.2181C21.5789 24.5136 21.505 24.8225 21.4513 25.1515C21.3036 26.0648 21.4177 27.0183 21.8341 27.8376C21.7199 27.992 21.5789 28.1532 21.4177 28.3076C21.2431 27.8174 19.2823 22.5394 13.9169 21.5589L13.9102 21.5657C13.7826 21.4515 13.6416 21.3508 13.4939 21.25C13.4939 21.25 19.4905 20.1891 21.6729 24.2181Z" fill="white"/>
<path d="M21.4176 28.3075C21.0751 28.6231 20.6588 28.8917 20.3029 28.9656C18.8121 29.2611 17.0326 28.6164 16.2805 26.7295C15.7299 25.3663 15.562 22.969 13.9101 21.5656L13.9168 21.5588C19.2822 22.5392 21.243 27.8173 21.4176 28.3075Z" fill="#33F297"/>
<path d="M35.5102 5.06302C34.8662 3.76835 30.6431 1.59332 28.1518 0.396689C28.0683 0.354491 27.977 0.330258 27.8836 0.325554C27.7902 0.32085 27.6968 0.33578 27.6096 0.369381C27.5223 0.402981 27.4431 0.454505 27.377 0.520627C27.3108 0.586748 27.2593 0.665999 27.2257 0.753262C26.7899 1.86999 25.8458 2.888 24.4229 3.77641C23.6377 4.25581 22.7356 4.50962 21.8157 4.50998C20.8957 4.51034 19.9934 4.25722 19.2079 3.77842C17.7823 2.888 16.8381 1.86999 16.4023 0.753262C16.3345 0.578669 16.176 0.451082 16.0021 0.382587C15.9118 0.350261 15.816 0.336168 15.7202 0.341125C15.6244 0.346081 15.5306 0.369988 15.4441 0.411462C12.9843 1.59265 8.76186 3.76768 8.11855 5.06101C7.4598 6.38053 0.476751 19.3501 0.406242 19.481C0.363566 19.5602 0.337222 19.6471 0.328775 19.7367C0.320328 19.8262 0.329949 19.9165 0.357067 20.0022C0.384186 20.088 0.42825 20.1674 0.486644 20.2358C0.545039 20.3042 0.616574 20.3601 0.697007 20.4003L8.21525 24.1595L6.94005 40.306C6.87961 41.0755 7.14486 41.8431 7.66931 42.4098C8.19376 42.9766 8.93713 43.3023 9.70936 43.3023H33.9187C34.6909 43.3023 35.4343 42.9772 35.9588 42.4098C36.4832 41.8424 36.7485 41.0755 36.688 40.306L35.4135 24.1595L42.9317 20.4003C43.0121 20.3601 43.0836 20.3041 43.1419 20.2357C43.2002 20.1673 43.2443 20.0879 43.2714 20.0021C43.2985 19.9164 43.3081 19.8261 43.2997 19.7366C43.2913 19.6471 43.2651 19.5602 43.2225 19.481C43.1513 19.3501 36.1683 6.38053 35.5102 5.06302ZM15.4575 1.89886C16.0699 3.02566 17.0899 4.03897 18.5001 4.91999C20.5126 6.16162 23.1147 6.16229 25.1313 4.91798C26.5395 4.03897 27.5588 3.02566 28.1706 1.89886C28.6702 2.14329 29.1389 2.38101 29.5821 2.61066C28.6064 4.06784 25.7712 7.71415 21.814 7.71415C17.8682 7.71415 15.0264 4.06851 14.0473 2.61066C14.4892 2.38101 14.9579 2.14396 15.4575 1.89886ZM35.2993 22.7144L34.9058 17.7331C34.8989 17.6452 34.8746 17.5595 34.8346 17.4809C34.7945 17.4024 34.7393 17.3325 34.6722 17.2752C34.6051 17.218 34.5274 17.1745 34.4435 17.1473C34.3596 17.1201 34.2712 17.1097 34.1833 17.1167C34.0954 17.1236 34.0097 17.1478 33.9311 17.1879C33.8525 17.228 33.7826 17.2832 33.7254 17.3503C33.6682 17.4174 33.6247 17.4951 33.5975 17.579C33.5703 17.6629 33.5599 17.7513 33.5668 17.8392L35.349 40.4121C35.3812 40.8156 35.2476 41.2018 34.9723 41.4992C34.697 41.7967 34.3229 41.9592 33.9187 41.9592H9.70936C9.30444 41.9592 8.93041 41.7954 8.65576 41.4979C8.38111 41.2004 8.24748 40.8143 8.27904 40.4107L10.0612 17.8379C10.075 17.6604 10.0178 17.4847 9.90226 17.3493C9.78672 17.2138 9.62222 17.1297 9.44479 17.1153C9.2673 17.1016 9.09161 17.1587 8.95618 17.2743C8.82076 17.3898 8.73664 17.5543 8.72224 17.7318L8.32874 22.713L1.91647 19.5066C3.33 16.8816 8.72761 6.8479 9.32123 5.66067C9.50724 5.28731 10.7334 4.41166 12.8541 3.24658C13.8768 4.81994 17.0685 9.05583 21.8147 9.05583C26.5616 9.05583 29.7533 4.81859 30.7754 3.24524C32.8886 4.40696 34.1215 5.28597 34.3082 5.66134C34.9011 6.84723 40.2981 16.881 41.7116 19.5072L35.2993 22.7144Z" fill="black"/>
<path d="M30.5282 18.1698C30.4523 18.1718 23.8849 18.3819 21.5172 22.8408C18.7861 19.6921 13.6175 20.5482 13.3771 20.5912C13.2446 20.6147 13.1221 20.6775 13.0257 20.7715C12.9293 20.8654 12.8634 20.9862 12.8364 21.1181C12.8095 21.25 12.8229 21.3869 12.8747 21.5111C12.9266 21.6354 13.0146 21.7411 13.1273 21.8147C14.4368 22.6702 14.8565 24.2234 15.2271 25.594C15.3628 26.0963 15.491 26.5704 15.6556 26.9786C16.4291 28.9119 18.1213 29.7036 19.6336 29.7036C19.9123 29.7036 20.1842 29.6768 20.4441 29.6257C20.894 29.5304 21.3661 29.243 21.7596 28.9018C22.3774 29.5431 23.4928 30.1596 24.3919 30.1596C26.3608 30.1596 28.7178 28.8689 29.2389 26.0358C29.3329 25.5268 29.3698 24.9487 29.4095 24.3356C29.5209 22.6152 29.6465 20.6664 31.0157 19.3194C31.2118 19.126 31.2702 18.8325 31.1634 18.5787C31.0567 18.3249 30.7773 18.1436 30.5282 18.1698ZM27.354 20.0869C24.2375 22.3936 22.9831 25.8142 22.5157 27.6643C22.1222 26.9659 21.9718 26.1218 22.1121 25.2562C22.6131 22.1793 25.1796 20.7517 27.354 20.0869ZM20.9464 24.3134C20.8839 24.5478 20.8282 24.7882 20.7872 25.0413C20.7609 25.2053 20.742 25.3705 20.7308 25.5362C19.915 24.3094 18.6894 22.9106 16.9375 21.9376C18.4141 22.178 20.015 22.8092 20.9464 24.3134ZM20.1735 28.3089C19.0044 28.5392 17.5365 28.0658 16.9012 26.477C16.7662 26.1413 16.648 25.7048 16.5231 25.2428C16.3163 24.4786 16.0806 23.6211 15.6804 22.8126C18.6532 24.1516 20.1211 26.9572 20.6086 28.0913C20.4501 28.1974 20.295 28.2834 20.1735 28.3089ZM27.9174 25.7927C27.5333 27.8818 25.8692 28.8166 24.3912 28.8166C24.1885 28.8166 23.9306 28.738 23.6727 28.6205C23.9507 27.2016 25.0292 23.2014 28.5781 20.8605C28.2142 22.0074 28.1356 23.2 28.0678 24.2489C28.0315 24.8211 27.9966 25.3616 27.9174 25.7927Z" fill="black"/>
</g>
<defs>
<clipPath id="clip0_14_2142">
<rect width="42.9767" height="42.9767" fill="white" transform="translate(0.325623 0.325684)"/>
</clipPath>
</defs>
</svg>
