<svg width="43" height="43" viewBox="0 0 43 43" fill="none" xmlns="http://www.w3.org/2000/svg">
<path d="M36.6693 9.74805V39.5566C36.6693 40.2248 36.4038 40.8657 35.9313 41.3382C35.4588 41.8107 34.818 42.0762 34.1497 42.0762H8.85028C8.18206 42.0762 7.54121 41.8107 7.0687 41.3382C6.5962 40.8657 6.33075 40.2248 6.33075 39.5566V9.74805H36.6693Z" fill="#E3887B"/>
<path d="M36.6693 3.44336V9.74807H6.33075V3.44336C6.33075 2.77514 6.5962 2.13429 7.0687 1.66178C7.54121 1.18928 8.18206 0.923828 8.85028 0.923828H34.1497C34.818 0.923828 35.4588 1.18928 35.9313 1.66178C36.4038 2.13429 36.6693 2.77514 36.6693 3.44336Z" fill="#E3887B"/>
<path d="M21.5 16.8179C23.5887 16.8178 25.6306 17.4371 27.3673 18.5975C29.1041 19.7579 30.4577 21.4072 31.2571 23.3369C32.0565 25.2666 32.2656 27.3901 31.8582 29.4387C31.4507 31.4873 30.4449 33.369 28.9679 34.846C27.491 36.3229 25.6092 37.3287 23.5606 37.7362C21.512 38.1437 19.3886 37.9345 17.4589 37.1351C15.5292 36.3358 13.8798 34.9821 12.7194 33.2454C11.559 31.5086 10.9397 29.4668 10.9398 27.3781C10.9398 25.9913 11.2129 24.6181 11.7436 23.3368C12.2743 22.0556 13.0522 20.8915 14.0328 19.9109C15.0134 18.9302 16.1776 18.1524 17.4588 17.6217C18.74 17.091 20.1132 16.8179 21.5 16.8179Z" fill="#83E8E4"/>
<path d="M28.2364 25.1501C27.6432 25.1697 27.0804 25.4175 26.6655 25.8419C26.2505 26.2663 26.0153 26.8344 26.0089 27.4279C26.0025 28.0214 26.2254 28.5945 26.6312 29.0277C27.0369 29.4609 27.5942 29.7208 28.1869 29.7532C27.6251 31.333 26.5212 32.6623 25.0716 33.5048C23.622 34.3473 21.9205 34.6483 20.2698 34.3544C18.6191 34.0605 17.1262 33.1906 16.0564 31.8996C14.9867 30.6085 14.4095 28.9798 14.4276 27.3033C14.4456 25.6267 15.0577 24.0109 16.155 22.7431C17.2523 21.4754 18.7636 20.6378 20.4203 20.3795C22.0769 20.1212 23.7715 20.4588 25.2026 21.3323C26.6338 22.2058 27.7088 23.5586 28.2364 25.1501Z" fill="#A5E2FB"/>
<path d="M27.735 4.29077C27.9978 4.29085 28.2547 4.36886 28.4732 4.51493C28.6917 4.661 28.862 4.86858 28.9625 5.11141C29.0631 5.35425 29.0894 5.62144 29.0381 5.87921C28.9868 6.13698 28.8602 6.37376 28.6744 6.55961C28.4885 6.74545 28.2517 6.87202 27.994 6.92332C27.7362 6.97461 27.469 6.94833 27.2262 6.84779C26.9833 6.74725 26.7757 6.57697 26.6297 6.35847C26.4836 6.13997 26.4056 5.88307 26.4055 5.62024C26.4055 5.44564 26.4398 5.27274 26.5066 5.11141C26.5734 4.95009 26.6713 4.80351 26.7948 4.68004C26.9183 4.55658 27.0648 4.45865 27.2262 4.39186C27.3875 4.32507 27.5604 4.29072 27.735 4.29077Z" fill="#1EEDE6"/>
<path d="M31.9309 4.29077C32.1937 4.29085 32.4506 4.36886 32.6691 4.51493C32.8876 4.661 33.0579 4.86858 33.1584 5.11141C33.2589 5.35425 33.2852 5.62144 33.2339 5.87921C33.1826 6.13698 33.0561 6.37376 32.8702 6.55961C32.6844 6.74545 32.4476 6.87202 32.1898 6.92332C31.932 6.97461 31.6649 6.94833 31.422 6.84779C31.1792 6.74725 30.9716 6.57697 30.8255 6.35847C30.6795 6.13997 30.6015 5.88307 30.6014 5.62024C30.6014 5.26767 30.7415 4.92955 30.9908 4.68024C31.2402 4.43093 31.5783 4.29084 31.9309 4.29077Z" fill="#E87187"/>
<path d="M23.5383 4.29077C23.8011 4.29085 24.058 4.36886 24.2765 4.51493C24.495 4.661 24.6653 4.86858 24.7658 5.11141C24.8664 5.35425 24.8926 5.62144 24.8413 5.87921C24.7901 6.13698 24.6635 6.37376 24.4776 6.55961C24.2918 6.74545 24.055 6.87202 23.7972 6.92332C23.5395 6.97461 23.2723 6.94833 23.0294 6.84779C22.7866 6.74725 22.579 6.57697 22.433 6.35847C22.2869 6.13997 22.2089 5.88307 22.2088 5.62024C22.2089 5.26767 22.349 4.92955 22.5983 4.68024C22.8476 4.43093 23.1857 4.29084 23.5383 4.29077Z" fill="#6994FE"/>
<path d="M9.73969 4.13208H17.5393V7.10765H9.73969V4.13208Z" fill="#12FFF7"/>
<path d="M8.85028 39.5566V9.74805H6.33075V39.5566C6.33075 40.2248 6.5962 40.8657 7.0687 41.3382C7.54121 41.8107 8.18206 42.0762 8.85028 42.0762H11.3698C10.7016 42.0762 10.0607 41.8107 9.58823 41.3382C9.11573 40.8657 8.85028 40.2248 8.85028 39.5566Z" fill="#86D2D0"/>
<path d="M11.3698 0.923828H8.85028C8.18206 0.923828 7.54121 1.18928 7.0687 1.66178C6.5962 2.13429 6.33075 2.77514 6.33075 3.44336V9.74807H8.85028V3.44336C8.85028 2.77514 9.11573 2.13429 9.58823 1.66178C10.0607 1.18928 10.7016 0.923828 11.3698 0.923828Z" fill="#86D2D0"/>
<path d="M16.948 27.3781C16.9485 25.7177 17.5321 24.1102 18.5971 22.8363C19.662 21.5624 21.1406 20.703 22.7746 20.4082C21.754 20.2233 20.7053 20.2647 19.7024 20.5296C18.6996 20.7944 17.7672 21.2763 16.971 21.9411C16.1749 22.606 15.5345 23.4375 15.095 24.377C14.6555 25.3165 14.4277 26.3411 14.4277 27.3783C14.4277 28.4156 14.6555 29.4401 15.095 30.3797C15.5345 31.3192 16.1749 32.1507 16.971 32.8156C17.7672 33.4804 18.6996 33.9623 19.7024 34.2271C20.7053 34.492 21.754 34.5334 22.7746 34.3485C21.1406 34.0535 19.6621 33.194 18.5971 31.92C17.5322 30.646 16.9486 29.0385 16.948 27.3781Z" fill="#8ABCCE"/>
<path d="M21.5 38.4426C27.6009 38.4426 32.5644 33.4791 32.5644 27.3782C32.5644 21.2772 27.6009 16.3137 21.5 16.3137C15.399 16.3137 10.4355 21.2772 10.4355 27.3782C10.4355 33.4791 15.399 38.4426 21.5 38.4426ZM21.5 17.3215C23.489 17.3215 25.4333 17.9113 27.0871 19.0164C28.741 20.1214 30.0299 21.692 30.7911 23.5297C31.5523 25.3673 31.7514 27.3893 31.3634 29.3401C30.9753 31.2909 30.0175 33.0828 28.6111 34.4893C27.2046 35.8957 25.4127 36.8535 23.4619 37.2415C21.5111 37.6296 19.4891 37.4304 17.6515 36.6693C15.8139 35.9081 14.2432 34.6191 13.1382 32.9653C12.0332 31.3115 11.4434 29.3672 11.4434 27.3782C11.4464 24.7119 12.5069 22.1557 14.3922 20.2704C16.2775 18.3851 18.8337 17.3246 21.5 17.3215Z" fill="black"/>
<path d="M21.5123 34.9658C23.0783 34.9637 24.6054 34.4781 25.885 33.5754C27.1646 32.6727 28.1342 31.3968 28.6613 29.9222C28.6876 29.8484 28.6962 29.7694 28.6866 29.6917C28.677 29.6139 28.6494 29.5394 28.6059 29.4742C28.5625 29.409 28.5045 29.3548 28.4364 29.3159C28.3684 29.2771 28.2922 29.2546 28.2139 29.2503C27.7511 29.2247 27.316 29.0215 26.9993 28.6831C26.6826 28.3446 26.5086 27.8971 26.5136 27.4336C26.5186 26.9701 26.7023 26.5264 27.0263 26.1949C27.3503 25.8634 27.7896 25.6697 28.2529 25.654C28.3312 25.6515 28.4079 25.6307 28.4768 25.5933C28.5457 25.5559 28.6049 25.503 28.6497 25.4387C28.6946 25.3745 28.7238 25.3006 28.7351 25.2231C28.7464 25.1455 28.7395 25.0664 28.7148 24.992C28.2753 23.6655 27.4779 22.4862 26.4107 21.5841C25.3435 20.682 24.0479 20.0921 22.6667 19.8796C21.2856 19.667 19.8726 19.84 18.5835 20.3794C17.2944 20.9189 16.1793 21.8039 15.3613 22.9368C14.5432 24.0697 14.0539 25.4066 13.9473 26.7999C13.8407 28.1932 14.121 29.589 14.7572 30.8331C15.3934 32.0773 16.3609 33.1216 17.5529 33.8509C18.7449 34.5801 20.1152 34.9661 21.5126 34.9661L21.5123 34.9658ZM21.5123 20.7987C22.7937 20.797 24.0475 21.1703 25.1194 21.8725C26.1912 22.5746 27.0343 23.575 27.5447 24.7503C26.9622 24.9163 26.449 25.2662 26.0816 25.7476C25.7141 26.229 25.512 26.8163 25.5055 27.4219C25.4989 28.0275 25.6882 28.6191 26.0452 29.1083C26.4022 29.5976 26.9077 29.9584 27.4864 30.137C26.9915 31.2087 26.2175 32.1275 25.2455 32.7971C24.2734 33.4668 23.1391 33.8626 21.9615 33.9431C20.7839 34.0236 19.6063 33.7859 18.5521 33.2548C17.498 32.7236 16.6061 31.9188 15.97 30.9244C15.3339 29.9301 14.977 28.783 14.9367 27.6033C14.8964 26.4236 15.1741 25.2548 15.7409 24.2194C16.3076 23.1839 17.1425 22.32 18.1579 21.7182C19.1733 21.1164 20.3319 20.7988 21.5123 20.7987V20.7987Z" fill="black"/>
<path d="M8.81836 42.5801H34.0977C34.8995 42.5801 35.6685 42.2615 36.2355 41.6945C36.8026 41.1275 37.1211 40.3585 37.1211 39.5566V3.44336C37.1211 2.64149 36.8026 1.87247 36.2355 1.30547C35.6685 0.738462 34.8995 0.419922 34.0977 0.419922H8.81836C8.01649 0.419922 7.24747 0.738462 6.68047 1.30547C6.11346 1.87247 5.79492 2.64149 5.79492 3.44336V39.5566C5.79492 40.3585 6.11346 41.1275 6.68047 41.6945C7.24747 42.2615 8.01649 42.5801 8.81836 42.5801ZM6.80273 3.44336C6.80273 2.33199 7.73916 1.42773 8.85061 1.42773H34.1494C35.2608 1.42773 36.1973 2.33199 36.1973 3.44336V9.23828H6.80273V3.44336ZM6.80273 10.2461H36.1973V39.5566C36.1973 40.668 35.2608 41.5723 34.1494 41.5723H8.85061C7.73916 41.5723 6.80273 40.668 6.80273 39.5566V10.2461Z" fill="black"/>
<path d="M17.5527 3.61133H9.74219C9.60854 3.61133 9.48037 3.66442 9.38587 3.75892C9.29137 3.85342 9.23828 3.98159 9.23828 4.11523V7.05469C9.23828 7.18833 9.29137 7.3165 9.38587 7.411C9.48037 7.5055 9.60854 7.55859 9.74219 7.55859H17.5527C17.6864 7.55859 17.8145 7.5055 17.909 7.411C18.0036 7.3165 18.0566 7.18833 18.0566 7.05469V4.11523C18.0566 3.98159 18.0036 3.85342 17.909 3.75892C17.8145 3.66442 17.6864 3.61133 17.5527 3.61133ZM17.0488 6.63477H10.2461V4.61914H17.0488V6.63477ZM23.5384 3.78669C23.1758 3.78669 22.8213 3.89421 22.5199 4.09565C22.2184 4.2971 21.9834 4.58342 21.8446 4.91841C21.7059 5.2534 21.6696 5.62202 21.7403 5.97764C21.8111 6.33327 21.9857 6.65993 22.2421 6.91632C22.4984 7.17271 22.8251 7.34731 23.1807 7.41805C23.5364 7.48879 23.905 7.45248 24.24 7.31373C24.5749 7.17497 24.8613 6.93999 25.0627 6.63851C25.2642 6.33702 25.3717 5.98257 25.3717 5.61998C25.3711 5.13393 25.1778 4.66793 24.8341 4.32424C24.4904 3.98054 24.0244 3.78722 23.5384 3.78669ZM23.5384 6.44538C23.3751 6.4454 23.2155 6.397 23.0797 6.3063C22.944 6.2156 22.8382 6.08668 22.7757 5.93584C22.7132 5.785 22.6968 5.61901 22.7287 5.45888C22.7605 5.29874 22.8391 5.15165 22.9546 5.03619C23.07 4.92074 23.2171 4.84212 23.3773 4.81027C23.5374 4.77842 23.7034 4.79478 23.8542 4.85727C24.0051 4.91976 24.134 5.02557 24.2247 5.16134C24.3154 5.2971 24.3638 5.45671 24.3638 5.61998C24.3635 5.83881 24.2765 6.0486 24.1217 6.20333C23.967 6.35807 23.7572 6.44511 23.5384 6.44538ZM27.7346 3.78669C27.372 3.78667 27.0175 3.89418 26.716 4.09561C26.4145 4.29705 26.1795 4.58336 26.0408 4.91835C25.902 5.25334 25.8657 5.62196 25.9364 5.97759C26.0071 6.33322 26.1817 6.65989 26.4381 6.91629C26.6945 7.17269 27.0212 7.3473 27.3768 7.41805C27.7324 7.48879 28.1011 7.45249 28.436 7.31373C28.771 7.17498 29.0574 6.94 29.2588 6.63852C29.4603 6.33703 29.5678 5.98258 29.5678 5.61998C29.5673 5.13394 29.3739 4.66796 29.0303 4.32427C28.6866 3.98057 28.2206 3.78724 27.7346 3.78669ZM27.7346 6.44538C27.5713 6.4454 27.4117 6.397 27.2759 6.3063C27.1402 6.2156 27.0344 6.08668 26.9719 5.93584C26.9094 5.785 26.893 5.61901 26.9249 5.45888C26.9567 5.29874 27.0353 5.15165 27.1508 5.03619C27.2662 4.92074 27.4133 4.84212 27.5735 4.81027C27.7336 4.77842 27.8996 4.79478 28.0504 4.85727C28.2013 4.91976 28.3302 5.02557 28.4209 5.16134C28.5116 5.2971 28.56 5.45671 28.56 5.61998C28.5597 5.83882 28.4727 6.04862 28.318 6.20336C28.1632 6.3581 27.9534 6.44514 27.7346 6.44538ZM31.9309 3.78669C31.5683 3.78667 31.2138 3.89418 30.9123 4.09561C30.6108 4.29705 30.3758 4.58336 30.2371 4.91835C30.0983 5.25334 30.062 5.62196 30.1327 5.97759C30.2034 6.33322 30.378 6.65989 30.6344 6.91629C30.8908 7.17269 31.2175 7.3473 31.5731 7.41805C31.9287 7.48879 32.2973 7.45249 32.6323 7.31373C32.9673 7.17498 33.2537 6.94 33.4551 6.63852C33.6565 6.33703 33.7641 5.98258 33.7641 5.61998C33.7635 5.13394 33.5702 4.66796 33.2266 4.32427C32.8829 3.98057 32.4169 3.78724 31.9309 3.78669ZM31.9309 6.44538C31.7676 6.4454 31.608 6.397 31.4722 6.3063C31.3365 6.2156 31.2306 6.08668 31.1681 5.93584C31.1057 5.785 31.0893 5.61901 31.1211 5.45888C31.153 5.29874 31.2316 5.15165 31.3471 5.03619C31.4625 4.92074 31.6096 4.84212 31.7698 4.81027C31.9299 4.77842 32.0959 4.79478 32.2467 4.85727C32.3976 4.91976 32.5265 5.02557 32.6172 5.16134C32.7079 5.2971 32.7563 5.45671 32.7563 5.61998C32.756 5.83882 32.669 6.04862 32.5142 6.20336C32.3595 6.3581 32.1497 6.44514 31.9309 6.44538ZM8.98633 13.9763C9.11997 13.9763 9.24814 13.9232 9.34264 13.8287C9.43714 13.7342 9.49023 13.606 9.49023 13.4724V13.2456C9.49023 13.112 9.43714 12.9838 9.34264 12.8893C9.24814 12.7948 9.11997 12.7417 8.98633 12.7417C8.85268 12.7417 8.72451 12.7948 8.63001 12.8893C8.53551 12.9838 8.48242 13.112 8.48242 13.2456V13.4724C8.48242 13.606 8.53551 13.7342 8.63001 13.8287C8.72451 13.9232 8.85268 13.9763 8.98633 13.9763ZM8.98633 22.8847C9.11997 22.8847 9.24814 22.8316 9.34264 22.7371C9.43714 22.6426 9.49023 22.5145 9.49023 22.3808V15.0985C9.49023 14.9648 9.43714 14.8366 9.34264 14.7421C9.24814 14.6476 9.11997 14.5946 8.98633 14.5946C8.85268 14.5946 8.72451 14.6476 8.63001 14.7421C8.53551 14.8366 8.48242 14.9648 8.48242 15.0985V22.3808C8.48242 22.5145 8.53551 22.6426 8.63001 22.7371C8.72451 22.8316 8.85268 22.8847 8.98633 22.8847Z" fill="black"/>
</svg>
