<svg width="69" height="69" viewBox="0 0 69 69" fill="none" xmlns="http://www.w3.org/2000/svg">
<g clip-path="url(#clip0_14_3847)">
<path d="M8.93022 60.0946H3.45658C3.19305 60.0946 2.94032 59.9899 2.75398 59.8036C2.56764 59.6172 2.46295 59.3645 2.46295 59.101V55.0112H9.92398V59.101C9.92391 59.3645 9.81918 59.6172 9.63283 59.8035C9.44647 59.9899 9.19375 60.0946 8.93022 60.0946ZM65.5434 60.0946H60.0697C59.8062 60.0946 59.5535 59.9899 59.3671 59.8036C59.1808 59.6172 59.0761 59.3645 59.0761 59.101V55.0112H66.5371V59.101C66.5371 59.3645 66.4324 59.6172 66.246 59.8036C66.0597 59.9899 65.8069 60.0946 65.5434 60.0946ZM46.7007 63.869H22.2992C21.485 63.869 20.825 63.2089 20.825 62.3948V55.969H48.175V62.3948C48.175 63.2089 47.515 63.869 46.7007 63.869Z" fill="#FC8086"/>
<path d="M67.9861 54.4013L67.5135 46.5336C66.8661 35.7569 62.4356 24.4461 54.9364 16.1494C54.0783 15.2001 53.0165 14.4289 51.8141 13.8955L45.1166 10.9242L45.0674 7.6716C45.0461 6.26262 43.815 5.13086 42.3036 5.13086H26.6964C25.1851 5.13086 23.954 6.26262 23.9326 7.6716L23.8834 10.9242L17.1858 13.8955C15.9835 14.4289 14.9216 15.2001 14.0636 16.1494C6.56442 24.4463 2.13387 35.757 1.48645 46.5337L1.01383 54.4014C0.951702 55.4367 1.83523 56.308 2.94731 56.308H9.69193C10.6718 56.308 11.4972 55.6255 11.6145 54.7185L12.2482 49.8177C12.8639 45.0553 14.5806 39.3336 17.2288 35.3126C17.2288 35.3126 16.0735 50.0476 18.2238 57.7116C18.5336 58.8156 19.6054 59.5836 20.8294 59.5836H48.1706C49.3946 59.5836 50.4663 58.8156 50.7762 57.7116C52.9266 50.0476 51.7711 35.3126 51.7711 35.3126C54.4194 39.3336 56.1361 45.0553 56.7518 49.8177L57.3855 54.7185C57.5027 55.6255 58.3282 56.308 59.308 56.308H66.0527C67.1646 56.3078 68.0483 55.4366 67.9861 54.4013Z" fill="#FC8086"/>
<path d="M14.0636 16.1494C6.56442 24.4463 2.13387 35.757 1.48645 46.5337L1.01383 54.4014C0.951702 55.4367 1.83523 56.3079 2.94731 56.3079H9.69193C10.6718 56.3079 11.4972 55.6255 11.6145 54.7185L12.2482 49.8176C12.8639 45.0553 14.5806 39.3335 17.2288 35.3125C17.2288 35.3125 19.3556 21.0835 14.0636 16.1494ZM67.9861 54.4013L67.5135 46.5335C66.8661 35.7569 62.4356 24.4461 54.9364 16.1494C49.6444 21.0835 51.7713 35.3124 51.7713 35.3124C54.4196 39.3334 56.1362 45.0552 56.7519 49.8175L57.3856 54.7184C57.5029 55.6254 58.3283 56.3078 59.3082 56.3078H66.0528C67.1646 56.3078 68.0483 55.4366 67.9861 54.4013Z" fill="#FA4954"/>
<path d="M67.9861 54.4012L67.5135 46.5335C66.8661 35.7568 62.4355 24.4461 54.9364 16.1494C54.0783 15.2001 53.0165 14.4288 51.8141 13.8954L49.2719 12.7675C47.4768 11.9714 45.4663 11.8009 43.5628 12.2835L47.1961 13.8953C48.3985 14.4287 49.4603 15.1999 50.3183 16.1492C57.8175 24.4461 62.2481 35.7567 62.8955 46.5333L63.3681 54.4011C63.4302 55.4364 62.5467 56.3076 61.4346 56.3076H66.0526C67.1646 56.3078 68.0482 55.4365 67.9861 54.4012Z" fill="#FA4954"/>
<path d="M61.4346 56.3078H66.0527C67.1647 56.3078 68.0483 55.4366 67.9861 54.4013L67.5135 46.5335C66.8661 35.7569 62.4355 24.4461 54.9364 16.1494C54.0613 16.9653 53.3901 18.0364 52.8776 19.2541C58.823 27.148 62.3257 37.0471 62.8955 46.5335L63.3681 54.4013C63.4304 55.4366 62.5467 56.3078 61.4346 56.3078Z" fill="#FA2A3B"/>
<path d="M50.7762 57.7115C52.9266 50.0475 51.7711 35.3125 51.7711 35.3125C49.2921 35.3125 47.3042 37.3654 47.3883 39.8431C47.557 44.8146 47.5512 52.7467 46.1583 57.7115C45.8485 58.8155 44.7767 59.5835 43.5527 59.5835H48.1706C49.3946 59.5835 50.4665 58.8155 50.7762 57.7115Z" fill="#FA4954"/>
<path d="M45.1166 10.9242L45.0674 7.6716C45.0461 6.26262 43.815 5.13086 42.3036 5.13086H26.6964C25.1851 5.13086 23.954 6.26262 23.9326 7.6716L23.8834 10.9242C27.3876 11.6253 30.9438 15.786 34.5 15.786C38.0562 15.786 41.6125 11.6253 45.1166 10.9242Z" fill="#FC8086"/>
<path d="M32.3278 15.7859H36.6721V59.5834H32.3278V15.7859ZM34.5 15.7859H36.6721L41.2153 13.2576C42.4208 12.5366 43.7819 12.1157 45.1839 12.0304C46.586 11.9451 47.988 12.198 49.272 12.7676L48.7618 9.34344C48.6837 8.81929 48.4776 8.32248 48.1616 7.89702C47.8457 7.47155 47.4298 7.13055 46.9506 6.90421C46.4714 6.67787 45.9438 6.57318 45.4145 6.59941C44.8853 6.62564 44.3706 6.78198 43.9162 7.05458L41.4551 8.5308C38.5306 10.2849 36.1291 12.79 34.5 15.7859ZM34.5 15.7859H32.3278L27.7846 13.2576C26.5791 12.5366 25.2181 12.1157 23.816 12.0304C22.414 11.9452 21.012 12.198 19.728 12.7676L20.2382 9.34344C20.3163 8.81929 20.5225 8.32248 20.8384 7.89702C21.1543 7.47155 21.5703 7.13055 22.0495 6.90421C22.5286 6.67787 23.0562 6.57318 23.5855 6.59941C24.1148 6.62564 24.6294 6.78198 25.0839 7.05458L27.545 8.5308C30.4694 10.2849 32.8709 12.79 34.5 15.7859Z" fill="#FA2A3B"/>
<path d="M68.995 54.3408C68.4119 49.0883 69.2369 41.0784 64.7302 30.0299C62.4846 24.525 59.4419 19.6269 55.6862 15.4717C53.667 13.2378 51.5792 12.785 50.1898 12.0691L49.7615 9.19458C49.5007 7.44452 48.1612 6.0288 46.4284 5.67181C46.0743 5.59911 45.7125 5.57198 45.3516 5.59108C44.6501 4.67953 43.5233 4.12012 42.3037 4.12012H26.6965C25.477 4.12012 24.3501 4.67953 23.6487 5.59108C23.2878 5.57198 22.9259 5.59911 22.5719 5.67181C20.8389 6.0288 19.4995 7.44438 19.2387 9.19445L18.8104 12.069C17.4395 12.7754 15.3367 13.2338 13.314 15.4717C12.1796 16.7269 11.0911 18.0767 10.0787 19.4835C9.92215 19.7011 9.85846 19.972 9.90162 20.2366C9.94479 20.5011 10.0913 20.7377 10.3089 20.8943C10.7643 21.222 11.3955 21.1147 11.7196 20.6641C12.4619 19.6323 13.2477 18.6326 14.0748 17.6674C15.6005 19.67 16.4758 23.064 16.6197 27.5827C16.7305 31.0606 16.3651 34.1412 16.2581 34.9531C15.8527 35.5834 15.463 36.2601 15.0918 36.9764C11.6889 35.3825 8.00142 32.4563 7.75763 27.2346C8.20332 26.3421 8.67626 25.4634 9.17577 24.5999C9.24229 24.485 9.28553 24.3582 9.30303 24.2266C9.32053 24.095 9.31194 23.9613 9.27775 23.833C9.24356 23.7048 9.18444 23.5845 9.10377 23.4791C9.0231 23.3737 8.92246 23.2852 8.80759 23.2187C8.69272 23.1522 8.56588 23.1089 8.4343 23.0914C8.30272 23.0739 8.16899 23.0825 8.04073 23.1167C7.91247 23.1509 7.7922 23.21 7.68679 23.2907C7.58138 23.3714 7.49289 23.472 7.42638 23.5869C-0.714815 37.647 0.634189 49.9473 0.00523761 54.3405C-0.0607975 55.4391 0.533788 56.4121 1.45235 56.9283V59.1007C1.45235 60.2059 2.35151 61.1051 3.45685 61.1051H8.9305C10.0357 61.1051 10.935 60.2059 10.935 59.1007V57.0531C11.8301 56.6535 12.4895 55.837 12.6173 54.8478C13.1058 52.0188 13.1873 46.3904 15.9782 39.8499C15.8061 44.8808 15.8178 52.8767 17.2509 57.9845C17.592 59.2 18.5852 60.1231 19.8146 60.4567V62.3947C19.8146 63.7648 20.9294 64.8796 22.2995 64.8796H46.701C48.0711 64.8796 49.1859 63.7648 49.1859 62.3947V60.4567C50.4153 60.1231 51.4085 59.2 51.7496 57.9845C53.1827 52.8768 53.1945 44.8809 53.0223 39.85C55.8173 46.4003 55.8846 51.9604 56.3832 54.8479C56.5111 55.8371 57.1704 56.6536 58.0655 57.0532V59.1009C58.0655 60.2061 58.9647 61.1052 60.07 61.1052H65.5436C66.6489 61.1052 67.5481 60.2061 67.5481 59.1009V56.9284C68.4663 56.4124 69.061 55.4394 68.995 54.3408ZM52.742 34.9531C52.6351 34.1447 52.2715 31.086 52.3796 27.6127C52.5206 23.0795 53.396 19.6756 54.9249 17.6684C57.3463 20.4949 59.488 23.7447 61.2423 27.2401C60.9963 32.4588 57.3099 35.3834 53.9084 36.9767C53.5371 36.2602 53.1474 35.5834 52.742 34.9531ZM33.3386 58.5728V16.7968H35.6614V58.5728H33.3386ZM31.3171 36.4232C26.5169 36.3244 21.9851 36.0031 18.2289 35.4921L18.2339 35.4244C18.32 34.8337 19.018 29.7633 18.4383 24.6471C22.1823 25.1322 26.6294 25.4379 31.3171 25.5334V36.4232ZM18.1068 37.5149C21.9193 38.0257 26.4888 38.3465 31.3171 38.4448V49.3345C26.4252 49.234 21.8157 48.903 18.0188 48.3751C17.8369 44.1506 17.9819 39.9496 18.1068 37.5149ZM37.6829 25.5333C42.3704 25.4379 46.8176 25.1322 50.5615 24.6469C49.9819 29.7632 50.6798 34.8336 50.7659 35.4243L50.7709 35.4919C47.0149 36.003 42.4831 36.3242 37.6827 36.423V25.5333H37.6829ZM53.5281 16.1784C52.1509 17.853 51.336 20.1455 50.8741 22.5666C47.0989 23.0856 42.525 23.4117 37.6827 23.5115V16.3803L39.5143 15.3609V18.9346C39.5143 19.2027 39.6208 19.4598 39.8104 19.6493C39.9999 19.8389 40.257 19.9454 40.5251 19.9454C40.7931 19.9454 41.0502 19.8389 41.2398 19.6493C41.4293 19.4598 41.5358 19.2027 41.5358 18.9346V14.2359C41.7086 14.1395 41.7112 14.1387 41.7339 14.1251C43.8952 12.8324 46.5599 12.6705 48.8618 13.6916C50.8979 14.6658 52.0967 14.9154 53.5281 16.1784ZM47.762 9.49241L48.0286 11.2813C45.5619 10.6823 42.9271 11.061 40.7104 12.3819L36.4099 14.7752H36.298C37.7759 12.5905 39.7134 10.7551 41.9749 9.39754L44.4361 7.92132C45.7753 7.11784 47.5283 7.92415 47.762 9.49241ZM42.3036 6.1416C42.6065 6.1416 42.8956 6.21114 43.1491 6.33593L40.935 7.66405C38.3512 9.21385 36.1537 11.3267 34.5 13.8302C32.8463 11.3267 30.6488 9.21385 28.0649 7.66405L25.8509 6.33593C26.1141 6.20733 26.4034 6.14084 26.6964 6.1416H42.3036ZM21.238 9.49241C21.3742 8.57789 22.0742 7.8383 22.9797 7.65165C24.3199 7.37498 24.9997 8.32885 27.0251 9.39754C29.2865 10.7551 31.224 12.5905 32.7019 14.7752H32.5901L28.2896 12.3819C26.073 11.0611 23.438 10.6825 20.9714 11.2813L21.238 9.49241ZM15.4719 16.1784C16.9012 14.9171 18.092 14.6705 20.138 13.6914C22.4401 12.6702 25.1048 12.8323 27.2659 14.125C27.2891 14.1389 27.2922 14.1399 27.479 14.2441V18.9345C27.479 19.2026 27.5854 19.4597 27.775 19.6492C27.9646 19.8388 28.2216 19.9452 28.4897 19.9452C28.7578 19.9452 29.0149 19.8388 29.2044 19.6492C29.394 19.4597 29.5004 19.2026 29.5004 18.9345V15.3691L31.3171 16.3802V23.5114C26.4747 23.4117 21.9007 23.0854 18.1257 22.5664C17.664 20.1455 16.8491 17.8531 15.4719 16.1784ZM3.47357 59.0839V57.3186H8.91311V59.0839H3.47357ZM10.6121 54.5889C10.5567 55.0173 10.1318 55.2971 9.69192 55.2971C2.2034 55.2839 3.01954 55.3298 2.6643 55.2581C2.29464 55.1555 1.99963 54.8459 2.02268 54.4621C2.53614 45.9496 2.47967 46.7887 2.5298 46.0873C5.07835 48.0016 8.1781 48.7165 11.4013 48.6037C11.2517 49.5559 11.2293 49.8496 10.6121 54.5889ZM11.7745 46.5635C8.01328 46.7978 4.98968 45.814 2.77063 43.6345C3.32627 39.1861 4.52393 34.704 6.27615 30.4789C7.1807 33.4129 9.38237 36.5462 14.221 38.8029C13.1877 41.1627 12.3464 43.8242 11.7745 46.5635ZM19.1969 57.4384C18.6447 55.4699 18.3173 52.9992 18.1347 50.43C21.9423 50.9388 26.4981 51.2584 31.3171 51.3564V58.5728H20.8294C20.0557 58.5728 19.3844 58.1063 19.1969 57.4384ZM46.7007 62.8583H22.2992C22.1764 62.8581 22.0586 62.8092 21.9717 62.7224C21.8848 62.6355 21.8359 62.5177 21.8358 62.3948V60.5943H47.1643V62.3948C47.1642 62.5177 47.1153 62.6355 47.0284 62.7224C46.9414 62.8093 46.8236 62.8581 46.7007 62.8583ZM48.1706 58.5728H37.6829V51.3551C38.8902 51.3311 40.0851 51.2944 41.2555 51.2424C41.521 51.2272 41.7697 51.1081 41.948 50.9108C42.1262 50.7135 42.2195 50.4539 42.2077 50.1883C42.1959 49.9227 42.0799 49.6724 41.8849 49.4917C41.6899 49.311 41.4315 49.2144 41.1658 49.2228C40.0247 49.2735 38.8601 49.3095 37.6829 49.3332V38.4449C42.5114 38.3467 47.0809 38.0257 50.8933 37.5149C51.0183 39.9493 51.1636 44.15 50.9815 48.3747C49.4049 48.594 47.6783 48.7812 45.833 48.9318C45.7001 48.942 45.5707 48.9782 45.4519 49.0386C45.3332 49.0989 45.2275 49.1821 45.141 49.2834C45.0546 49.3847 44.9889 49.5021 44.948 49.6289C44.907 49.7556 44.8915 49.8892 44.9024 50.0219C44.9132 50.1547 44.9502 50.284 45.0112 50.4024C45.0721 50.5208 45.1559 50.626 45.2577 50.712C45.3595 50.7979 45.4772 50.8628 45.6042 50.9031C45.7311 50.9434 45.8648 50.9582 45.9975 50.9466C47.7286 50.8052 49.3591 50.6319 50.8656 50.4306C50.6829 52.9991 50.3556 55.4695 49.803 57.4384C49.6156 58.1063 48.9443 58.5728 48.1706 58.5728ZM54.7788 38.8029C59.6199 36.545 61.821 33.4095 62.7248 30.4752C62.769 30.5813 62.815 30.6867 62.8584 30.7933C64.5418 34.9204 65.69 39.3066 66.23 43.6339C64.011 45.8139 60.987 46.7978 57.2255 46.5635C56.6536 43.8241 55.8122 41.1627 54.7788 38.8029ZM57.5985 48.6036C60.8211 48.7164 63.9205 48.0014 66.4685 46.0883C66.5362 47.0373 66.4365 45.5279 66.9771 54.462C67.0059 54.9408 66.545 55.2971 66.0525 55.2971C62.7653 55.2929 59.3962 55.3081 59.1692 55.2874C58.7602 55.2344 58.4346 54.9524 58.3877 54.5889C57.7506 49.6953 57.7469 49.5477 57.5985 48.6036ZM60.0869 59.0839V57.3186H65.5264V59.0839H60.0869Z" fill="black"/>
</g>
<defs>
<clipPath id="clip0_14_3847">
<rect width="69" height="69" fill="white"/>
</clipPath>
</defs>
</svg>
