<svg width="69" height="69" viewBox="0 0 69 69" fill="none" xmlns="http://www.w3.org/2000/svg">
<g clip-path="url(#clip0_14_3808)">
<path d="M55.6801 14.5709C55.6801 14.5709 54.6329 10.0682 51.8305 9.12598C49.0281 8.18372 45.9681 7.15441 44.1682 5.96729H24.8317C23.0318 7.15454 19.9718 8.18372 17.1694 9.12598C15.9264 9.54397 14.8038 10.2581 13.8984 11.2066C12.9929 12.1552 12.3319 13.3099 11.9721 14.5709L2.31293 48.4203L7.29077 52.7104L17.8819 30.0248V57.1036C18.8026 60.61 29.26 66.6409 34.4999 66.6409C41.9245 66.6409 49.7704 59.8014 49.7704 59.0101V26.0526L58.1821 50.8473L64.9705 51.8502L55.6801 14.5709Z" fill="#EAACDE"/>
<path d="M52.3135 14.3122C51.5948 15.9216 51.1191 18.9733 51.1191 23.0597L51.118 59.0489C51.118 60.61 43.198 67.9885 34.4999 67.9885C25.8018 67.9885 17.8819 60.61 17.8819 59.0489V57.1035C19.8125 59.5758 27.8699 65.2931 34.4999 65.2931C41.13 65.2931 48.4228 59.2622 48.4228 58.4709V30.0078C48.4228 23.9834 48.8206 19.6544 51.3906 13.8998C51.4177 13.8392 51.4564 13.7845 51.5046 13.7389C51.5528 13.6932 51.6095 13.6575 51.6715 13.6338C51.7334 13.6101 51.7995 13.5988 51.8658 13.6007C51.9322 13.6025 51.9975 13.6173 52.0581 13.6444C52.1805 13.6992 52.2761 13.8002 52.324 13.9254C52.3719 14.0506 52.3681 14.1897 52.3135 14.3122ZM57.0276 14.5709C56.6679 13.3098 56.0068 12.1552 55.1014 11.2066C54.1959 10.258 53.0733 9.54395 51.8303 9.12598C52.9161 10.2105 53.791 12.6735 54.3323 14.5709L64.9703 51.8502L66.6868 48.4203L57.0276 14.5709ZM7.29077 52.7102L10.8178 50.8471L17.882 30.0246V23.0597C17.882 22.5422 17.8743 22.0415 17.8595 21.5581L7.29077 52.7102Z" fill="#DA8BC1"/>
<path d="M58.1821 50.8472L59.4167 54.4861L66.948 53.5259L64.1947 49.1316L58.1821 50.8472Z" fill="#DA8BC1"/>
<path d="M67.9101 52.7071L66.6868 48.4202L64.1946 49.1313L64.9704 51.85C65.044 52.1078 65.0121 52.3842 64.8819 52.6185C64.7516 52.8527 64.5336 53.0257 64.2759 53.0992L59.4166 54.4859L59.648 55.168C59.9944 56.1887 61.0805 56.7582 62.117 56.4624L66.521 55.2056C67.5945 54.8993 68.2165 53.7806 67.9101 52.7071Z" fill="#D273B3"/>
<path d="M1.29211 51.9978L7.8832 55.2288L8.17846 50.0939L2.31307 48.4202L1.29211 51.9978Z" fill="#DA8BC1"/>
<path d="M7.29078 52.71C7.20743 52.9557 7.03278 53.16 6.80299 53.2805C6.5732 53.401 6.30587 53.4285 6.05636 53.3573L1.29211 51.9977L1.0897 52.7069C0.783384 53.7804 1.40531 54.8991 2.47883 55.2054L6.88286 56.4622C7.91931 56.758 9.0055 56.1885 9.35183 55.1678L10.8178 50.8469L8.17846 50.0938L7.29078 52.71Z" fill="#D273B3"/>
<path d="M42.7865 4.59662L41.3348 3.11963H25.838L24.8659 5.94425C24.1392 8.23534 25.6637 11.3252 28.2244 14.2731L34.5001 9.89062L37.4173 14.0855C42.6676 10.5043 43.6095 7.1908 42.7865 4.59662Z" fill="#DA8BC1"/>
<path d="M28.2242 14.2731C28.548 14.6459 28.8817 15.01 29.2249 15.3651C29.6667 15.8224 30.418 15.7605 30.7811 15.2383L34.5 9.89049L32.7956 7.69925L28.2242 14.2731ZM44.1341 5.94424L43.1621 3.11963H41.3349L41.8432 4.59662C42.6662 7.19079 40.603 10.8088 37.4172 14.0855L38.2189 15.2384C38.5821 15.7606 39.3332 15.8227 39.7751 15.3652C42.9233 12.1065 44.9515 8.52036 44.1341 5.94424Z" fill="#D273B3"/>
<path d="M41.4608 1.88756C39.9233 1.33814 37.4704 1.01147 34.4999 1.01147C30.9866 1.01147 28.1977 1.46872 26.7911 2.21086C26.7911 4.70975 34.4999 8.40817 34.4999 8.40817C34.4999 8.40817 44.0569 4.70975 41.4608 1.88756Z" fill="#DA8BC1"/>
<path d="M43.1621 3.11969C42.9975 2.64155 42.3996 2.22312 41.4608 1.8877C41.3357 4.09173 34.5 7.06068 34.5 7.06068C34.5 7.06068 29.0769 4.44521 26.7912 2.21099C26.2826 2.47944 25.9531 2.78467 25.8379 3.11969C25.0723 5.34448 34.5 9.89068 34.5 9.89068C34.5 9.89068 43.9278 5.34448 43.1621 3.11969Z" fill="#D273B3"/>
<path d="M34.5 68.999C29.249 68.999 24.6459 66.4593 22.3695 64.9455C19.7213 63.1845 16.8712 60.5879 16.8712 59.0487V56.8386C16.8712 56.2803 17.3237 55.8279 17.8819 55.8279C18.4401 55.8279 18.8926 56.2803 18.8926 56.8386V58.9887C19.0724 59.5094 20.6681 61.4464 23.792 63.4609C25.8288 64.7743 29.9283 66.9777 34.5 66.9777C39.0716 66.9777 43.1711 64.7743 45.2079 63.4609C48.332 61.4465 49.9275 59.5096 50.1073 58.9887V45.3985C50.1073 44.8402 50.5598 44.3878 51.118 44.3878C51.6762 44.3878 52.1287 44.8402 52.1287 45.3985V59.0487C52.1287 59.3055 52.1287 60.0872 50.4723 61.8055C49.459 62.8567 48.0946 63.9717 46.6303 64.9455C44.354 66.4594 39.7511 68.999 34.5 68.999ZM34.5 60.0005C33.9055 60.0005 33.4219 59.5168 33.4219 58.9224C33.4219 58.328 33.9055 57.8443 34.5 57.8443C35.0944 57.8443 35.5781 58.328 35.5781 58.9224C35.5781 59.5168 35.0945 60.0005 34.5 60.0005ZM7.44065 57.5516C7.15817 57.5515 6.87709 57.512 6.60553 57.4342L2.20137 56.1774C1.42258 55.9554 0.776929 55.4431 0.383289 54.7352C-0.0103514 54.0273 -0.104685 53.2086 0.117673 52.4298L9.93335 18.0322C10.008 17.7757 10.1812 17.5593 10.415 17.4302C10.6488 17.301 10.9242 17.2696 11.1811 17.3429C11.4379 17.4162 11.6553 17.5882 11.7857 17.8213C11.9162 18.0544 11.949 18.3296 11.8772 18.5869L3.56233 47.7256L10.1699 49.611L16.8713 29.8577V23.0596C16.8713 19.3384 16.4676 16.3004 15.7637 14.7242C15.6544 14.4794 15.6468 14.2013 15.7426 13.9509C15.8384 13.7006 16.0297 13.4985 16.2745 13.3892C16.7841 13.1609 17.3818 13.3903 17.6094 13.8998C18.437 15.7528 18.8926 19.0058 18.8926 23.0596V30.0008C18.893 30.0165 18.893 30.0321 18.8926 30.048V52.7958C18.8926 53.3542 18.4401 53.8066 17.8819 53.8066C17.3237 53.8066 16.8712 53.3542 16.8712 52.7958V36.1497L10.3091 55.4926C9.882 56.7514 8.70863 57.5516 7.44065 57.5516ZM3.00751 49.6694L2.06148 52.9844C1.98736 53.2441 2.0189 53.517 2.15002 53.7529C2.28115 53.9889 2.49636 54.1596 2.75605 54.2336L7.16021 55.4904C7.40972 55.5619 7.67719 55.5345 7.90705 55.414C8.13692 55.2935 8.31154 55.0891 8.39463 54.8432L9.51949 51.5275L3.00751 49.6694ZM61.5594 57.5516C60.2913 57.5516 59.1181 56.7514 58.691 55.4926L52.1287 36.1497V41.7851C52.1287 42.3434 51.6762 42.7958 51.118 42.7958C50.5598 42.7958 50.1073 42.3434 50.1073 41.7851V30.0479C50.1069 30.0321 50.1069 30.0164 50.1073 30.0007V23.0595C50.1073 19.0057 50.5631 15.7527 51.3905 13.8997C51.6181 13.3902 52.2161 13.1611 52.7255 13.3891C52.9702 13.4984 53.1615 13.7004 53.2573 13.9508C53.3531 14.2011 53.3455 14.4793 53.2362 14.724C52.5324 16.3001 52.1286 19.3382 52.1286 23.0595V29.8576L58.8302 49.611L65.4376 47.7254L56.0559 14.848C55.7412 13.7446 55.1627 12.7342 54.3705 11.9042C53.5782 11.0742 52.5959 10.4493 51.5083 10.0836C51.2559 9.99691 51.048 9.81384 50.93 9.57439C50.8121 9.33493 50.7936 9.05854 50.8787 8.80554C50.9638 8.55254 51.1455 8.34348 51.3842 8.22398C51.6229 8.10449 51.8992 8.08426 52.1527 8.16773C53.5511 8.63784 54.8141 9.44114 55.8328 10.5083C56.8514 11.5755 57.5951 12.8745 57.9997 14.2932L68.8822 52.4296C69.1045 53.2084 69.0101 54.027 68.6166 54.7349C68.2231 55.4428 67.5773 55.9551 66.7984 56.1772L62.3945 57.434C62.123 57.5119 61.8419 57.5515 61.5594 57.5516ZM59.4806 51.5277L60.6054 54.8433C60.6887 55.0891 60.8633 55.2935 61.0932 55.414C61.323 55.5345 61.5905 55.5619 61.84 55.4906L66.244 54.2338C66.3718 54.1977 66.4912 54.1367 66.5952 54.0541C66.6992 53.9716 66.7858 53.8693 66.85 53.7531C66.9149 53.6372 66.9561 53.5096 66.9713 53.3777C66.9865 53.2458 66.9754 53.1122 66.9386 52.9846L65.9925 49.6695L59.4806 51.5277ZM34.5 49.8933C33.9055 49.8933 33.4219 49.4097 33.4219 48.8152C33.4219 48.2208 33.9055 47.7371 34.5 47.7371C35.0944 47.7371 35.5781 48.2208 35.5781 48.8152C35.5781 49.4097 35.0945 49.8933 34.5 49.8933ZM34.5 39.7862C33.9055 39.7862 33.4219 39.3025 33.4219 38.7081C33.4219 38.1136 33.9055 37.63 34.5 37.63C35.0944 37.63 35.5781 38.1136 35.5781 38.7081C35.5781 39.3025 35.0945 39.7862 34.5 39.7862ZM34.5 29.679C33.9055 29.679 33.4219 29.1953 33.4219 28.6009C33.4219 28.0065 33.9055 27.5228 34.5 27.5228C35.0944 27.5228 35.5781 28.0065 35.5781 28.6009C35.5781 29.1953 35.0945 29.679 34.5 29.679ZM34.5 19.5718C33.9055 19.5718 33.4219 19.0882 33.4219 18.4937C33.4219 17.8993 33.9055 17.4156 34.5 17.4156C35.0944 17.4156 35.5781 17.8993 35.5781 18.4937C35.5781 19.0882 35.0945 19.5718 34.5 19.5718ZM29.9481 16.6832C29.6774 16.6835 29.4095 16.6291 29.1603 16.5233C28.9111 16.4175 28.6859 16.2625 28.4981 16.0676C26.685 14.1909 23.9869 10.9074 23.6946 7.7443C21.8702 8.61177 19.5773 9.38247 17.4915 10.0838C16.4039 10.4495 15.4216 11.0743 14.6293 11.9043C13.8371 12.7344 13.2587 13.7447 12.9441 14.8482C12.8705 15.1059 12.6975 15.3239 12.4632 15.4541C12.2289 15.5844 11.9525 15.6162 11.6947 15.5426C11.5671 15.5062 11.4479 15.4449 11.3439 15.3624C11.2399 15.2799 11.1532 15.1777 11.0887 15.0617C10.9585 14.8274 10.9267 14.551 11.0003 14.2932C11.4048 12.8745 12.1485 11.5755 13.1672 10.5083C14.1858 9.44116 15.4488 8.63786 16.8472 8.16773C19.4082 7.3066 22.2944 6.33631 24.0246 5.28193L24.882 2.79071C25.7486 0.272548 31.8966 0.000732422 34.4998 0.000732422C37.103 0.000732422 43.2528 0.277534 44.1193 2.79557L44.9749 5.28193C45.7548 5.75697 46.8424 6.25909 48.2867 6.81108C48.5371 6.90679 48.7392 7.09806 48.8486 7.3428C48.958 7.58754 48.9656 7.86571 48.8699 8.11611C48.7742 8.36652 48.5829 8.56864 48.3382 8.67802C48.0935 8.7874 47.8153 8.79508 47.5649 8.69936C46.6947 8.36677 45.9488 8.05264 45.3048 7.74633C45.0116 10.9089 42.3143 14.1913 40.5017 16.0675C40.2948 16.2825 40.0425 16.4488 39.7633 16.5542C39.4841 16.6596 39.1848 16.7014 38.8874 16.6767C38.5894 16.6533 38.3002 16.5639 38.041 16.4149C37.7818 16.2659 37.559 16.0611 37.3887 15.8153L34.4997 11.661L31.6107 15.8155C31.4246 16.084 31.176 16.3033 30.8864 16.4544C30.5968 16.6056 30.2748 16.6841 29.9481 16.6832ZM25.8259 6.26071C25.215 8.21584 26.7564 11.3555 29.9519 14.6631L33.0059 10.2696C32.093 9.7966 30.71 9.04975 29.346 8.1963C27.8724 7.27439 26.7715 6.45059 26.02 5.69673L25.8259 6.26071ZM35.9945 10.2695L39.0486 14.6614C42.2437 11.3555 43.7851 8.21584 43.1742 6.26071L42.9801 5.69673C42.2288 6.45059 41.1278 7.27439 39.6542 8.1963C38.2901 9.04961 36.9074 9.79646 35.9945 10.2695ZM26.8127 3.41951C26.8721 3.60886 27.3326 4.59815 30.7466 6.68588C32.2585 7.61049 33.7753 8.39723 34.5 8.76243C35.2246 8.39723 36.7415 7.61049 38.2534 6.68588C41.6804 4.59019 42.1313 3.60131 42.1879 3.41736C41.8525 2.91793 39.336 2.02217 34.5 2.02217C29.6809 2.02217 27.1651 2.91173 26.8127 3.41951Z" fill="black"/>
</g>
<defs>
<clipPath id="clip0_14_3808">
<rect width="69" height="69" fill="white"/>
</clipPath>
</defs>
</svg>
