<svg width="43" height="43" viewBox="0 0 43 43" fill="none" xmlns="http://www.w3.org/2000/svg">
<path d="M11.3711 18.142H9.28784V16.2422C9.28784 15.9477 9.35403 15.6571 9.48152 15.3916C9.60901 15.1262 9.79454 14.8929 10.0244 14.7088L10.6595 14.2007C10.9462 13.971 11.3711 14.1753 11.3711 14.5425V18.142Z" fill="#C7CFE2"/>
<path d="M38.3528 13.0333L35.1538 13.5336C34.5899 13.6218 34.0614 13.2363 33.9732 12.6725L33.9676 12.6357C33.8794 12.0717 34.2651 11.5433 34.8287 11.455L38.0277 10.9547C38.5917 10.8664 39.1205 11.2523 39.2085 11.8159L39.2143 11.8526C39.3023 12.4166 38.9168 12.9451 38.3528 13.0333ZM31.9513 33.1142H2.64622C1.53275 33.1142 0.630249 32.2117 0.630249 31.0982V31.0618H33.9672V31.0982C33.9672 32.2117 33.0647 33.1142 31.9513 33.1142Z" fill="#AFB9D2"/>
<path d="M28.0397 31.062C28.0397 32.1955 27.1212 33.1143 25.988 33.1143H31.9155C33.0486 33.1143 33.9672 32.1955 33.9672 31.062H28.0397Z" fill="#A1A8C6"/>
<path d="M41.765 25.8735L36.7794 13.8414L36.5606 13.3139C35.8983 11.7155 34.2697 10.7379 32.549 10.9056L23.9969 11.7369C15.7419 12.54 8.3962 17.3186 4.31438 24.5423L3.64317 25.7301L0.629883 31.0619H33.9672C34.6014 30.3326 35.6922 29.2602 37.3266 28.4111C38.6848 27.7055 39.9731 27.384 40.9898 27.2387C41.6315 27.1468 42.0136 26.4729 41.765 25.8735ZM33.4545 20.4007C33.4545 22.0539 32.1147 23.394 30.4625 23.394H22.1102C20.4578 23.394 19.1184 22.0539 19.1184 20.4008C19.1184 18.748 20.4578 17.4078 22.1103 17.4078H30.4625C32.1147 17.4078 33.4545 18.7476 33.4545 20.4007Z" fill="#E3887B"/>
<path d="M41.765 25.8734L36.7794 13.8414L36.5605 13.3139C35.8982 11.7155 34.2697 10.7379 32.549 10.9056L28.7582 11.2739C29.6108 11.6831 30.3102 12.3956 30.6909 13.3139L30.9096 13.8413L32.9211 18.6958C33.1647 19.0465 33.33 19.4455 33.4059 19.8657L35.8949 25.8734C36.1439 26.4728 35.7617 27.1466 35.1197 27.2382C34.1033 27.3839 32.8151 27.7051 31.4565 28.4107C29.8221 29.2601 28.7312 30.3323 28.0972 31.0618H33.9668C34.6013 30.3322 35.6921 29.2601 37.3265 28.4107C38.6847 27.7054 39.9731 27.3839 40.9894 27.2383C41.6314 27.1467 42.0136 26.4728 41.765 25.8734Z" fill="#63D7D3"/>
<path d="M36.7794 13.8414C33.9508 13.8047 31.4736 13.9027 29.4192 14.0442C25.8614 14.2869 23.2319 14.6793 21.135 15.2498C19.0382 15.8194 17.4721 16.5667 16.0411 17.522C11.1437 20.7869 11.1112 24.851 6.35325 25.6744C5.37534 25.8437 4.45705 25.8309 3.64307 25.7298L4.31436 24.5423C8.39618 17.3186 15.7418 12.5396 23.997 11.7369L32.549 10.9056C34.2697 10.7379 35.8981 11.7152 36.5605 13.3136L36.7794 13.8414Z" fill="#3AD8D2"/>
<path d="M32.549 10.9056L28.7582 11.274C29.6108 11.6832 30.3102 12.3957 30.6908 13.3136L30.9096 13.8415L30.9555 13.952C32.8951 13.8526 34.8374 13.8157 36.7794 13.8415L36.6701 13.5778L36.5605 13.314C36.3386 12.7775 36.0004 12.2969 35.5704 11.9069C35.3033 11.6646 35.0041 11.4601 34.6813 11.2993C34.0217 10.9702 33.2826 10.8338 32.549 10.9056Z" fill="#D7DEED"/>
<path d="M29.1089 23.394H23.4383V22.2825C23.4383 21.7454 23.8737 21.3101 24.4107 21.3101H28.1365C28.6735 21.3101 29.1089 21.7454 29.1089 22.2825V23.394Z" fill="#DE5753"/>
<path d="M39.0651 17.7116C38.9992 17.56 38.8764 17.4404 38.7232 17.3785C38.5699 17.3166 38.3985 17.3173 38.2458 17.3806C38.0931 17.4439 37.9714 17.5647 37.9069 17.7169C37.8424 17.8691 37.8403 18.0405 37.901 18.1942L41.183 26.115C41.2427 26.259 41.1962 26.3778 41.163 26.4358C41.1302 26.4932 41.0527 26.593 40.9002 26.6147C39.5427 26.8089 38.2426 27.2253 37.0362 27.8518C35.7745 28.5073 34.6483 29.3743 33.6844 30.432H22.4413C22.2742 30.432 22.1139 30.4984 21.9958 30.6166C21.8776 30.7347 21.8112 30.895 21.8112 31.0621C21.8112 31.2292 21.8776 31.3895 21.9958 31.5076C22.1139 31.6258 22.2742 31.6922 22.4413 31.6922H33.2035C32.9807 32.1599 32.5031 32.4844 31.9513 32.4844H2.64611C2.09433 32.4844 1.61662 32.1599 1.39389 31.6922H19.753C19.8366 31.6935 19.9197 31.6782 19.9973 31.6472C20.075 31.6161 20.1456 31.5699 20.2052 31.5113C20.2649 31.4527 20.3122 31.3827 20.3445 31.3056C20.3768 31.2285 20.3935 31.1457 20.3935 31.0621C20.3935 30.9785 20.3768 30.8957 20.3445 30.8186C20.3122 30.7415 20.2649 30.6715 20.2052 30.6129C20.1456 30.5543 20.075 30.5081 19.9973 30.477C19.9197 30.446 19.8366 30.4307 19.753 30.432H1.70951L3.98927 26.3978C4.26978 26.4211 4.54928 26.434 4.82685 26.434C5.38056 26.434 5.9268 26.3877 6.46061 26.2951C7.8545 26.054 8.97427 25.5419 9.98368 24.684C10.111 24.5758 10.1902 24.4214 10.2037 24.2549C10.2172 24.0884 10.1641 23.9233 10.0559 23.7959C10.0024 23.7328 9.9369 23.6809 9.86328 23.6431C9.78965 23.6053 9.70929 23.5824 9.62681 23.5757C9.54432 23.569 9.46133 23.5786 9.38256 23.604C9.3038 23.6294 9.23081 23.6701 9.16777 23.7237C8.33683 24.4297 7.40829 24.8523 6.24535 25.0537C5.72898 25.1424 5.2054 25.1821 4.68156 25.1725L4.86255 24.8519C8.83939 17.8146 16.0151 13.1462 24.0577 12.3642L32.6097 11.5329C33.3098 11.4646 33.9859 11.6178 34.562 11.9452C34.5964 11.9704 34.6329 11.9924 34.6719 12.0105C35.1421 12.3028 35.5309 12.7092 35.8021 13.1918C35.804 13.1958 35.806 13.2001 35.8083 13.204C33.6536 13.1987 31.4953 13.2699 29.3763 13.4157C25.8256 13.6577 23.1542 14.0475 20.9696 14.6419C18.9579 15.1882 17.2809 15.9368 15.6914 16.9977C13.495 18.4622 12.2513 20.0651 11.1539 21.4798C10.9583 21.7314 10.7736 21.9692 10.5874 22.2019C10.4853 22.3325 10.4388 22.4981 10.458 22.6628C10.4772 22.8275 10.5606 22.9779 10.6899 23.0816C10.8193 23.1852 10.9843 23.2337 11.1492 23.2166C11.3141 23.1994 11.4656 23.1179 11.5708 22.9898C11.7634 22.7497 11.9508 22.5079 12.1492 22.252C13.1875 20.9136 14.3647 19.3969 16.3905 18.0462C17.8838 17.0496 19.3979 16.3748 21.3003 15.8581C23.4028 15.2859 25.9962 14.9093 29.4623 14.6727C31.7331 14.5169 34.0505 14.449 36.3568 14.4684L36.9388 15.8728C37.072 16.1943 37.4405 16.3469 37.7619 16.2137C38.0833 16.0805 38.236 15.7117 38.1031 15.3902L37.4489 13.8126L38.4502 13.6558C39.168 13.5436 39.706 12.9849 39.8287 12.3074L41.101 11.9255C42.2367 11.585 42.9999 10.5591 42.9999 9.37322C42.9999 7.90348 41.8047 6.70838 40.3359 6.70838H32.6071C31.8328 6.70838 31.2033 6.07808 31.2033 5.30323V4.61985C31.2006 4.45453 31.133 4.2969 31.0151 4.18094C30.8973 4.06498 30.7385 4 30.5732 4C30.4079 4 30.2491 4.06498 30.1313 4.18094C30.0134 4.2969 29.9459 4.45453 29.9432 4.61985V5.30323C29.9432 6.77263 31.1383 7.9684 32.6071 7.9684H40.3359C41.1098 7.9684 41.7397 8.59829 41.7397 9.37322C41.7397 9.99848 41.3375 10.5391 40.7388 10.7187L39.5785 11.0667C39.231 10.5368 38.5956 10.2285 37.9303 10.3325L35.0623 10.7816C34.2936 10.3757 33.4056 10.1895 32.4876 10.2787L23.936 11.1099C19.6091 11.5309 15.5211 13.0226 12.0009 15.3702V14.5431C12.0009 14.1282 11.7684 13.7591 11.3944 13.5797C11.0206 13.4005 10.5876 13.4503 10.2658 13.7093L9.63036 14.2177C9.01198 14.7131 8.65731 15.4513 8.65731 16.2426V18.018C6.71985 19.8284 5.07024 21.9241 3.76554 24.2325L0.0813812 30.7519L0.0784417 30.7577C0.0738226 30.7663 0.0698753 30.7749 0.0655921 30.7838C0.060385 30.7939 0.055094 30.804 0.0508107 30.8143C0.0478713 30.8211 0.0456037 30.8284 0.0430002 30.8353C0.0377091 30.8477 0.032838 30.8605 0.0288907 30.8736L0.0259513 30.8844C0.0209962 30.9012 0.016377 30.9179 0.0127657 30.9346C0.0127657 30.936 0.0124297 30.9369 0.0124297 30.9382C0.00841954 30.9577 0.00536446 30.9774 0.0032754 30.9973C0.0032754 30.9986 0.0032754 30.9996 0.00293946 31.0009C0.00125977 31.0206 0.000335939 31.0403 0 31.0603V31.0984C0 32.5575 1.18696 33.7445 2.64619 33.7445H31.9511C33.3382 33.7445 34.4786 32.6714 34.5878 31.3123C35.4575 30.3507 36.4756 29.5633 37.6168 28.9702C38.6972 28.4092 39.8617 28.0365 41.0783 27.8623C41.578 27.7911 42.0077 27.4988 42.2577 27.0598C42.5084 26.6202 42.5408 26.0999 42.3469 25.6327L39.0651 17.7116ZM38.1254 11.5771C38.1777 11.5689 38.231 11.5711 38.2824 11.5835C38.3338 11.5959 38.3823 11.6184 38.4249 11.6496C38.4678 11.6808 38.504 11.7201 38.5316 11.7653C38.5592 11.8105 38.5776 11.8607 38.5857 11.9131C38.5864 11.9183 38.5874 11.9232 38.5884 11.9285L38.59 11.9387C38.5906 11.9426 38.5913 11.9465 38.5916 11.9501C38.608 12.0557 38.5819 12.1635 38.5189 12.2499C38.4559 12.3362 38.3613 12.3941 38.2557 12.4108L36.9244 12.6191C36.7745 12.3446 36.5969 12.0862 36.3943 11.8481L38.1254 11.5771ZM9.91775 16.2422C9.91737 16.0422 9.96217 15.8447 10.0488 15.6644C10.1354 15.484 10.2616 15.3256 10.418 15.2009L10.7409 14.9427V16.2652C10.4622 16.476 10.1878 16.6923 9.91775 16.9141V16.2422Z" fill="black"/>
<path d="M34.0843 20.4535V20.3479C34.0843 18.3792 32.4828 16.7776 30.514 16.7776H22.0587C20.0901 16.7776 18.4885 18.3792 18.4885 20.3479V20.4535C18.4885 22.4223 20.0901 24.0239 22.0587 24.0239H30.514C32.4828 24.0239 34.0843 22.4223 34.0843 20.4535ZM24.0685 22.7638V22.2826C24.0686 22.1919 24.1047 22.1049 24.1688 22.0408C24.233 21.9766 24.3199 21.9405 24.4106 21.9404H28.1365C28.2273 21.9405 28.3142 21.9766 28.3784 22.0408C28.4425 22.1049 28.4786 22.1919 28.4787 22.2826V22.7638H24.0685ZM32.8242 20.4536C32.8242 21.7275 31.7879 22.7638 30.514 22.7638H29.7388V22.2826C29.7388 21.3991 29.02 20.6803 28.1365 20.6803H24.4106C23.5271 20.6803 22.8084 21.3992 22.8084 22.2826V22.7638H22.0587C20.7849 22.7638 19.7486 21.7275 19.7486 20.4536V20.3479C19.7486 19.0741 20.7849 18.0378 22.0587 18.0378H30.514C31.7879 18.0378 32.8242 19.0742 32.8242 20.3479V20.4536ZM12.0121 27.9407C12.0087 28.1085 11.9397 28.2683 11.8199 28.3858C11.7 28.5033 11.5389 28.5691 11.3711 28.5691C11.2032 28.5691 11.0421 28.5033 10.9222 28.3858C10.8024 28.2683 10.7334 28.1085 10.73 27.9407C10.73 27.8565 10.7466 27.7731 10.7788 27.6953C10.811 27.6174 10.8582 27.5467 10.9177 27.4872C10.9772 27.4276 11.0479 27.3804 11.1257 27.3481C11.2035 27.3159 11.2869 27.2993 11.3711 27.2993C11.4553 27.2993 11.5387 27.3159 11.6165 27.3482C11.6942 27.3804 11.7649 27.4276 11.8244 27.4872C11.884 27.5468 11.9312 27.6175 11.9634 27.6953C11.9955 27.7731 12.0121 27.8565 12.0121 27.9407ZM14.7049 27.9407C14.7021 28.1089 14.6334 28.2693 14.5135 28.3873C14.3936 28.5053 14.2321 28.5714 14.0638 28.5714C13.8956 28.5714 13.7341 28.5053 13.6141 28.3873C13.4942 28.2693 13.4255 28.1089 13.4228 27.9407C13.4227 27.8565 13.4393 27.7731 13.4715 27.6953C13.5037 27.6174 13.5509 27.5467 13.6104 27.4872C13.67 27.4276 13.7406 27.3804 13.8184 27.3481C13.8962 27.3159 13.9796 27.2993 14.0638 27.2993C14.148 27.2993 14.2314 27.3159 14.3092 27.3481C14.387 27.3804 14.4577 27.4276 14.5172 27.4872C14.5767 27.5467 14.6239 27.6174 14.6561 27.6953C14.6883 27.7731 14.7049 27.8565 14.7049 27.9407ZM28.767 27.9407C28.7637 28.1085 28.6947 28.2683 28.5748 28.3858C28.455 28.5033 28.2938 28.5691 28.126 28.5691C27.9582 28.5691 27.797 28.5033 27.6772 28.3858C27.5573 28.2683 27.4883 28.1085 27.485 27.9407C27.485 27.8565 27.5015 27.7731 27.5337 27.6953C27.5659 27.6174 27.6131 27.5467 27.6727 27.4872C27.7322 27.4276 27.8029 27.3804 27.8807 27.3481C27.9585 27.3159 28.0418 27.2993 28.126 27.2993C28.2102 27.2993 28.2936 27.3159 28.3714 27.3482C28.4492 27.3804 28.5199 27.4276 28.5794 27.4872C28.6389 27.5468 28.6861 27.6175 28.7183 27.6953C28.7505 27.7731 28.7671 27.8565 28.767 27.9407ZM31.4598 27.9407C31.4571 28.1089 31.3884 28.2693 31.2684 28.3873C31.1485 28.5053 30.987 28.5714 30.8188 28.5714C30.6505 28.5714 30.489 28.5053 30.3691 28.3873C30.2492 28.2693 30.1804 28.1089 30.1777 27.9407C30.1777 27.8565 30.1942 27.7731 30.2264 27.6953C30.2586 27.6174 30.3058 27.5467 30.3654 27.4872C30.4249 27.4276 30.4956 27.3804 30.5734 27.3481C30.6512 27.3159 30.7346 27.2993 30.8188 27.2993C30.903 27.2993 30.9864 27.3159 31.0641 27.3481C31.1419 27.3804 31.2126 27.4276 31.2722 27.4872C31.3317 27.5467 31.3789 27.6174 31.4111 27.6953C31.4433 27.7731 31.4599 27.8565 31.4598 27.9407Z" fill="black"/>
</svg>
