<svg width="69" height="69" viewBox="0 0 69 69" fill="none" xmlns="http://www.w3.org/2000/svg">
<g clip-path="url(#clip0_14_3780)">
<path d="M2.15625 55.5234L1.07812 60.375C1.07812 60.9513 1.09484 61.21 1.61719 61.4531L8.08594 63.0703C8.6622 63.0703 9.01205 62.6757 9.16406 61.9922L10.2422 57.6797L2.15625 55.5234Z" fill="url(#paint0_linear_14_3780)"/>
<path d="M1.07813 55.5234C1.07813 56.6016 1.06519 57.339 2.15626 57.6797L9.70313 59.2969C10.8556 59.2969 11.5311 58.9573 11.8594 57.6797L18.8672 32.3438L17.7891 6.46875H11.3203C11.3203 6.46875 7.54688 14.5547 1.07813 55.5234Z" fill="url(#paint1_linear_14_3780)"/>
<path d="M66.8438 55.5234L67.9219 60.375C67.9219 60.9513 67.9052 61.21 67.3828 61.4531L60.9141 63.0703C60.3378 63.0703 59.988 62.6757 59.8359 61.9922L58.7578 57.6797L66.8438 55.5234Z" fill="url(#paint2_linear_14_3780)"/>
<path d="M67.9219 55.5234C67.9219 56.6016 67.9348 57.339 66.8438 57.6797L59.2969 59.2969C58.1444 59.2969 57.4689 58.9573 57.1406 57.6797L50.1328 32.3438L51.2109 6.46875H57.6797C57.6797 6.46875 61.4531 14.5547 67.9219 55.5234Z" fill="url(#paint3_linear_14_3780)"/>
<path d="M50.6719 67.9219H18.3281C18.0422 67.9219 17.768 67.8083 17.5658 67.6061C17.3636 67.4039 17.25 67.1297 17.25 66.8438V64.6875H51.75V66.8438C51.75 67.1297 51.6364 67.4039 51.4342 67.6061C51.232 67.8083 50.9578 67.9219 50.6719 67.9219Z" fill="url(#paint4_linear_14_3780)"/>
<path d="M53.3904 20.4844L57.6797 6.46875C53.1958 3.18047 46.8149 1.6905 42.0469 1.07812C40.4097 2.20045 37.7921 2.69531 34.5232 2.69531C31.2543 2.69531 28.5903 2.20045 26.9531 1.07812C22.1851 1.6905 15.8042 3.18047 11.3203 6.46875L15.6328 20.4844C16.1848 23.0298 16.7109 28.0312 16.7109 30.7266L15.0938 63.0703C15.0938 64.2228 15.6544 64.8185 16.7109 65.2266H52.2891C53.3456 64.8185 53.9062 64.2228 53.9062 63.0703L52.2891 30.7266C52.2891 28.0312 52.8384 23.0298 53.3904 20.4844Z" fill="url(#paint5_linear_14_3780)"/>
<path d="M34.5232 3.7729C31.6145 3.77414 28.7171 3.41214 25.8982 2.69531C25.8982 2.69531 26.9763 8.625 34.5232 9.16406C42.0701 8.625 43.1482 2.69531 43.1482 2.69531C40.3293 3.41218 37.4318 3.77418 34.5232 3.7729Z" fill="url(#paint6_linear_14_3780)"/>
<path d="M42.0469 1.07812C40.3628 2.09911 37.6363 2.69531 34.5232 2.69531C31.4101 2.69531 28.6372 2.09911 26.9531 1.07812V3.23438C28.6382 4.25536 31.4101 4.85156 34.5232 4.85156C37.6363 4.85156 40.3618 4.25536 42.0469 3.23438V1.07812Z" fill="url(#paint7_linear_14_3780)"/>
<path d="M44.2829 1.41073C43.5396 1.28651 42.7941 1.17562 42.0469 1.07812C42.0469 5.11193 38.3645 8.08594 34.5458 8.08594C30.7271 8.08594 26.9531 5.11193 26.9531 1.07812C26.2214 1.17573 25.4916 1.28661 24.764 1.41073C25.1322 6.39436 28.5439 10.2422 34.5232 10.2422C40.5024 10.2422 43.9147 6.39436 44.2829 1.41073Z" fill="url(#paint8_linear_14_3780)"/>
<path d="M45.8203 35.5781H41.5078C40.65 35.5781 39.8273 35.2374 39.2208 34.6308C38.6142 34.0242 38.2734 33.2016 38.2734 32.3438V23.1797C38.2734 23.0367 38.3302 22.8996 38.4313 22.7985C38.5324 22.6974 38.6695 22.6406 38.8125 22.6406H48.5156C48.6586 22.6406 48.7957 22.6974 48.8968 22.7985C48.9979 22.8996 49.0547 23.0367 49.0547 23.1797V32.3438C49.0547 33.2016 48.7139 34.0242 48.1074 34.6308C47.5008 35.2374 46.6781 35.5781 45.8203 35.5781Z" fill="url(#paint9_linear_14_3780)"/>
<path d="M49.0547 25.875H38.2734V23.1797C38.2734 23.0367 38.3302 22.8996 38.4313 22.7985C38.5324 22.6974 38.6695 22.6406 38.8125 22.6406H48.5156C48.6586 22.6406 48.7957 22.6974 48.8968 22.7985C48.9979 22.8996 49.0547 23.0367 49.0547 23.1797V25.875Z" fill="url(#paint10_linear_14_3780)"/>
<path d="M48.5156 22.1016H38.8125C38.2179 22.1016 37.7344 22.5851 37.7344 23.1797V32.3438C37.7344 34.4245 39.427 36.1172 41.5078 36.1172H45.8203C47.9011 36.1172 49.5938 34.4245 49.5938 32.3438V23.1797C49.5938 22.5851 49.1102 22.1016 48.5156 22.1016ZM48.5156 23.1797V25.3359H38.8125V23.1797H48.5156ZM45.8203 35.0391H41.5078C40.0216 35.0391 38.8125 33.8299 38.8125 32.3438V26.4141H48.5156V32.3438C48.5156 33.8299 47.3065 35.0391 45.8203 35.0391Z" fill="#3A322B"/>
<path d="M67.8809 57.7061C68.4593 57.1509 68.4615 56.338 68.4609 55.5234C68.4609 55.4954 68.4588 55.4674 68.4545 55.4393C62.0477 14.862 58.3239 6.57387 58.1681 6.24073C58.1627 6.22941 58.1524 6.2224 58.1465 6.21108C58.1242 6.17121 58.0971 6.13426 58.0657 6.10111C58.0506 6.08548 58.0376 6.06984 58.0209 6.05637C58.0128 6.04936 58.0074 6.04019 57.9983 6.03373C53.8955 3.02522 48.3248 1.5746 44.3675 0.88568C44.3519 0.882984 44.3384 0.874359 44.3223 0.872742C44.3163 0.872742 44.3109 0.875437 44.305 0.875437C43.5776 0.749272 42.8475 0.638739 42.1153 0.543914C42.1029 0.542297 42.0911 0.546609 42.0787 0.54607C42.0679 0.544992 42.0582 0.539062 42.0469 0.539062C42.0264 0.539062 42.0091 0.548227 41.9897 0.550383C41.9208 0.556554 41.854 0.577123 41.7935 0.610758C41.7768 0.619383 41.7579 0.622617 41.7423 0.633398C40.268 1.64414 37.839 2.15625 34.5232 2.15625C31.223 2.15625 28.711 1.62959 27.2577 0.633398C27.2421 0.622617 27.2227 0.619383 27.2059 0.610219C27.179 0.595664 27.152 0.583266 27.1224 0.573023C27.0851 0.561021 27.0466 0.553245 27.0076 0.549844C26.9887 0.548227 26.9725 0.539062 26.9531 0.539062C26.9418 0.539062 26.9326 0.544992 26.9213 0.545531C26.9089 0.54607 26.8965 0.541758 26.8847 0.543375C23.0827 1.03177 15.9643 2.39452 11.0017 6.03373C10.9931 6.04019 10.9877 6.04936 10.9791 6.05637C10.9629 6.06984 10.9494 6.08548 10.9343 6.10111C10.9028 6.13413 10.8756 6.17109 10.8535 6.21108C10.8476 6.22186 10.8373 6.22887 10.8319 6.24073C10.6767 6.57387 6.95283 14.862 0.545531 55.4393C0.541227 55.4796 0.539067 55.5201 0.539063 55.5606C0.539063 56.3396 0.541758 57.1374 1.12125 57.6948L0.552 60.258C0.543379 60.2964 0.53904 60.3357 0.539063 60.375C0.539063 60.9507 0.539063 61.5464 1.3897 61.9421C1.42069 61.9565 1.45301 61.9679 1.4862 61.976L7.95495 63.5932C7.99807 63.604 8.04173 63.6094 8.08594 63.6094C8.56031 63.6094 9.40017 63.4142 9.68695 62.1232L10.2659 59.8063C11.1516 59.7044 12.0028 59.2861 12.3785 57.8236L15.3541 47.0655L14.5547 63.0703C14.5547 64.7743 15.6743 65.4039 16.5169 65.7295C16.5783 65.7532 16.6446 65.7656 16.7109 65.7656V66.8438C16.7109 67.7354 17.4365 68.4609 18.3281 68.4609H50.6719C51.5635 68.4609 52.2891 67.7354 52.2891 66.8438V65.7656C52.3554 65.7656 52.4217 65.7532 52.4831 65.7295C53.3251 65.4039 54.4453 64.7748 54.4442 63.0439L53.6448 47.065L56.6183 57.8145C56.9962 59.285 57.8479 59.7044 58.7336 59.8068L59.3093 62.1097C59.5998 63.4142 60.4397 63.6094 60.9141 63.6094C60.9583 63.6094 61.0019 63.604 61.0451 63.5932L67.5138 61.976C67.5472 61.9674 67.5796 61.9561 67.6103 61.9421C68.4609 61.5464 68.4609 60.9507 68.4609 60.375C68.461 60.3357 68.4566 60.2964 68.448 60.258L67.8809 57.7061ZM34.5458 8.625C38.2492 8.625 42.1935 5.86284 42.5509 1.69104C42.9104 1.74171 43.2856 1.7967 43.6889 1.863C43.1234 6.70971 39.6583 9.70312 34.5232 9.70312C29.3854 9.70312 25.9192 6.70702 25.357 1.85545C25.7206 1.79654 26.0848 1.74174 26.4496 1.69104C26.8114 5.86284 30.7999 8.625 34.5458 8.625ZM28.6328 4.55777C30.2781 5.09845 32.3098 5.39062 34.5232 5.39062C36.7242 5.39062 38.7462 5.09738 40.3839 4.55454C39.0583 6.42077 36.7544 7.54688 34.5458 7.54688C32.3098 7.54688 29.9767 6.42185 28.6328 4.55777ZM41.4205 2.04952C41.3658 2.40072 41.2794 2.74623 41.1623 3.08182C39.5106 3.87424 37.1673 4.3125 34.5232 4.3125C31.8996 4.3125 29.4829 3.864 27.8426 3.08398C27.724 2.74784 27.6363 2.40158 27.5806 2.04952C29.2344 2.83439 31.56 3.23438 34.5232 3.23438C37.4611 3.23438 39.771 2.83493 41.4205 2.04952ZM8.14577 62.5296L1.79885 60.9426C1.62581 60.8602 1.61719 60.8267 1.61719 60.4343L2.10881 58.2209L9.17269 59.7346L8.63794 61.8752C8.5118 62.4434 8.28863 62.5194 8.14577 62.5296ZM11.3376 57.5455C11.1004 58.4683 10.7424 58.7476 9.75919 58.7578L2.31743 57.1654C2.22069 57.1356 2.12715 57.0962 2.0382 57.0479C2.03227 57.0436 2.02526 57.0409 2.01879 57.0366C1.64738 56.822 1.61773 56.4657 1.61719 55.566C6.60837 23.964 10.0201 11.9149 11.275 8.15386L15.1061 20.5987C15.6538 23.1252 16.1719 28.0469 16.1724 30.6996L15.601 42.1288L11.3376 57.5455ZM51.2109 66.8438C51.2109 67.1408 50.9689 67.3828 50.6719 67.3828H18.3281C18.0311 67.3828 17.7891 67.1408 17.7891 66.8438V65.7656H51.2109V66.8438ZM52.1861 64.6875H16.8139C15.9546 64.335 15.6328 63.8897 15.6317 63.0973L16.671 42.3056L16.6845 42.2571C16.7058 42.1741 16.7064 42.0871 16.6861 42.0037L17.25 30.7266C17.25 27.9876 16.7201 22.9549 16.1482 20.3259L11.9499 6.68114C15.6776 4.06938 20.5981 2.7255 24.2955 2.04143C24.9451 7.36845 28.8943 10.7812 34.5232 10.7812C40.1494 10.7812 44.0969 7.37222 44.7503 2.05005C48.4423 2.73628 53.3375 4.07962 57.0501 6.68114L52.8518 20.3259C52.8475 20.3404 52.8432 20.355 52.8405 20.3701C52.2799 22.9533 51.75 27.9865 51.7505 30.7535L53.3672 63.0703C53.3672 63.8891 53.0448 64.335 52.1861 64.6875ZM57.6603 57.5358L53.4119 42.1752C53.4092 42.166 53.4028 42.1601 53.4001 42.1515L52.8281 30.7266C52.8281 28.0539 53.3429 23.1527 53.889 20.6208L57.725 8.15332C58.9804 11.9149 62.3932 23.9646 67.3828 55.5606C67.3828 56.435 67.3602 56.7983 67.0378 57.0107C67.0023 57.0276 66.9687 57.0482 66.9375 57.0722C66.8772 57.1013 66.8082 57.1277 66.7305 57.1519L59.2408 58.7578C58.2576 58.7476 57.9002 58.4683 57.6603 57.5358ZM67.2011 60.9426L60.8542 62.5296C60.7114 62.5189 60.4882 62.4418 60.3594 61.8612L59.8279 59.7346L66.8906 58.2188L67.3828 60.4343C67.3828 60.8267 67.3742 60.8602 67.2011 60.9426Z" fill="#3A322B"/>
</g>
<defs>
<linearGradient id="paint0_linear_14_3780" x1="3.63813" y1="30.091" x2="7.6811" y2="88.175" gradientUnits="userSpaceOnUse">
<stop stop-color="#FFAC27"/>
<stop offset="0.997" stop-color="#FFBE5F"/>
</linearGradient>
<linearGradient id="paint1_linear_14_3780" x1="9.97266" y1="1.00966" x2="9.97266" y2="64.404" gradientUnits="userSpaceOnUse">
<stop stop-color="#F7D0BF"/>
<stop offset="1" stop-color="#EEAE9A"/>
</linearGradient>
<linearGradient id="paint2_linear_14_3780" x1="65.3619" y1="30.091" x2="61.3189" y2="88.175" gradientUnits="userSpaceOnUse">
<stop stop-color="#FFAC27"/>
<stop offset="0.997" stop-color="#FFBE5F"/>
</linearGradient>
<linearGradient id="paint3_linear_14_3780" x1="59.0273" y1="1.00966" x2="59.0273" y2="64.404" gradientUnits="userSpaceOnUse">
<stop stop-color="#F7D0BF"/>
<stop offset="1" stop-color="#EEAE9A"/>
</linearGradient>
<linearGradient id="paint4_linear_14_3780" x1="35.1808" y1="85.2452" x2="33.8332" y2="46.7022" gradientUnits="userSpaceOnUse">
<stop stop-color="#FFAC27"/>
<stop offset="0.997" stop-color="#FFBE5F"/>
</linearGradient>
<linearGradient id="paint5_linear_14_3780" x1="34.4493" y1="19.2569" x2="41.6873" y2="77.5765" gradientUnits="userSpaceOnUse">
<stop stop-color="#F18774"/>
<stop offset="0.284" stop-color="#EE8372"/>
<stop offset="0.579" stop-color="#E7766C"/>
<stop offset="0.877" stop-color="#DA6263"/>
<stop offset="1" stop-color="#D3575E"/>
</linearGradient>
<linearGradient id="paint6_linear_14_3780" x1="35.5091" y1="-13.8879" x2="34.0267" y2="11.0438" gradientUnits="userSpaceOnUse">
<stop stop-color="#F18774"/>
<stop offset="0.284" stop-color="#EE8372"/>
<stop offset="0.579" stop-color="#E7766C"/>
<stop offset="0.877" stop-color="#DA6263"/>
<stop offset="1" stop-color="#D3575E"/>
</linearGradient>
<linearGradient id="paint7_linear_14_3780" x1="33.9458" y1="-5.27095" x2="34.2871" y2="-0.698625" gradientUnits="userSpaceOnUse">
<stop stop-color="#FFE886"/>
<stop offset="1" stop-color="#FFC96A"/>
</linearGradient>
<linearGradient id="paint8_linear_14_3780" x1="34.1803" y1="-3.70066" x2="35.4606" y2="15.3719" gradientUnits="userSpaceOnUse">
<stop stop-color="#FFAC27"/>
<stop offset="0.997" stop-color="#FFBE5F"/>
</linearGradient>
<linearGradient id="paint9_linear_14_3780" x1="-1.61989" y1="26.1445" x2="13.2043" y2="27.0879" gradientUnits="userSpaceOnUse">
<stop stop-color="#FFE886"/>
<stop offset="1" stop-color="#FFC96A"/>
</linearGradient>
<linearGradient id="paint10_linear_14_3780" x1="44.0721" y1="17.1336" x2="43.084" y2="35.0126" gradientUnits="userSpaceOnUse">
<stop stop-color="#FFAC27"/>
<stop offset="0.997" stop-color="#FFBE5F"/>
</linearGradient>
<clipPath id="clip0_14_3780">
<rect width="69" height="69" fill="white"/>
</clipPath>
</defs>
</svg>
